<svg width="73" height="72" viewBox="0 0 73 72" fill="none" xmlns="http://www.w3.org/2000/svg">
<g clip-path="url(#clip0_1004_50)">
<path d="M43.1549 26.4797C43.1549 22.4447 39.8544 19.1663 35.7884 19.1663C31.7224 19.1663 28.4219 22.4447 28.4219 26.4797C28.4219 30.2626 31.3459 33.4149 35.0229 33.7932V25.5971C35.0229 25.2188 35.3994 24.8405 35.7884 24.8405C36.1774 24.8405 36.5539 25.2188 36.5539 25.5971V33.7932C40.2309 33.4149 43.1549 30.2626 43.1549 26.4797Z" fill="white"/>
<path d="M29.3281 60.1471C29.3281 61.4081 30.3446 62.5429 31.7376 62.5429H39.6061C40.8736 62.5429 42.0156 61.5342 42.0156 60.1471C42.0156 58.7601 40.8736 57.8774 39.6061 57.8774H31.6121C30.3446 57.8774 29.3281 58.8862 29.3281 60.1471Z" fill="white"/>
<path d="M4.69074 46.7811C5.95823 46.7811 7.10023 45.7723 7.10023 44.3853C7.10023 42.9983 6.08373 41.9895 4.69074 41.9895C3.29775 41.9895 2.28125 42.9983 2.28125 44.3853C2.28125 45.7723 3.42325 46.7811 4.69074 46.7811Z" fill="white"/>
<path d="M16.8827 30.641C17.3847 32.7846 18.2757 34.9282 19.4177 36.6935C19.5432 36.9457 19.5432 37.324 19.4177 37.5762L15.4772 43.8809L18.2757 46.655L24.6257 42.7461C24.7512 42.62 24.8767 42.62 25.0022 42.62C25.1277 42.62 25.2532 42.62 25.3787 42.7461C27.7882 44.2592 29.1937 46.7811 29.1937 49.5552V53.8424C29.1937 55.1033 30.2102 56.2382 31.6032 56.2382H34.9037V35.3065C30.3357 34.9282 26.7842 31.1454 26.7842 26.4799C26.7842 21.5622 30.8502 17.5271 35.7947 17.5271C40.7392 17.5271 44.8052 21.5622 44.8052 26.4799C44.8052 31.1454 41.2537 34.9282 36.6857 35.3065V56.2382H39.6097C40.8772 56.2382 42.0192 55.2294 42.0192 53.8424V49.8074C42.0192 47.0333 43.5377 44.3853 45.8217 42.9982C45.9472 42.8722 46.0727 42.8722 46.1982 42.7461C46.4492 42.62 46.8382 42.62 47.0892 42.7461L53.4392 46.655L56.2377 43.8809L52.2972 37.5762C52.1717 37.324 52.1717 36.9457 52.2972 36.6935C53.5647 34.8021 54.3302 32.7846 54.8322 30.641C54.9577 30.3888 55.0831 30.1366 55.4722 30.0105L62.7132 28.3713V24.3363L55.4722 22.697C55.2212 22.5709 54.9702 22.4448 54.8322 22.0666C54.3302 19.9229 53.4392 17.9054 52.2972 16.014C52.1717 15.7618 52.1717 15.3835 52.2972 15.1313L56.2377 8.82662L53.3137 6.30473L46.9637 10.3398C46.7127 10.4658 46.3237 10.4658 46.0727 10.3398C44.1651 9.2049 42.1321 8.32224 39.9736 7.81786C39.7227 7.69177 39.4717 7.56567 39.3336 7.18739L37.6896 0H33.6236L31.9671 7.18739C31.8416 7.43958 31.7161 7.69177 31.3271 7.81786C29.1686 8.32224 27.0101 9.2049 25.2281 10.3398C24.9771 10.4658 24.588 10.4658 24.3371 10.3398L17.9871 6.30473L15.4521 9.07881L19.3926 15.3835C19.5181 15.6357 19.5181 16.014 19.3926 16.2662C18.1251 18.1576 17.3596 20.1751 16.8576 22.3187C16.7321 22.5709 16.6066 22.8231 16.2176 22.9492L8.97656 24.5884V28.6235L16.2176 30.2627C16.5941 30.1366 16.7196 30.3888 16.8576 30.641H16.8827Z" fill="white"/>
<path d="M68.1671 13.7444C70.3256 13.7444 72.1076 11.9791 72.1076 9.83545C72.1076 7.69184 70.3256 5.92651 68.1671 5.92651C66.0086 5.92651 64.2266 7.69184 64.2266 9.83545C64.2266 11.9791 66.0086 13.7444 68.1671 13.7444Z" fill="white"/>
<path d="M67.414 70.4869H38.8389V64.1821H32.4889V70.4869H7.10145C6.72497 70.4869 6.33594 70.8651 6.33594 71.2434C6.33594 71.6217 6.71242 72 7.10145 72H67.414C67.7905 72 68.1795 71.6217 68.1795 71.2434C68.1795 70.739 67.803 70.4869 67.414 70.4869Z" fill="white"/>
<path d="M72.1075 64.1821H51.539C51.1625 64.1821 50.7734 64.5604 50.7734 64.9387C50.7734 65.317 51.1499 65.6953 51.539 65.6953H72.233C72.6094 65.6953 72.9985 65.317 72.9985 64.9387C72.9985 64.4343 72.622 64.1821 72.1075 64.1821Z" fill="white"/>
<path d="M22.2125 64.9387C22.2125 64.5604 21.836 64.1821 21.447 64.1821H0.765515C0.389032 64.1821 0 64.5604 0 64.9387C0 65.317 0.376483 65.6953 0.765515 65.6953H21.4595C21.836 65.6953 22.225 65.317 22.225 64.9387H22.2125Z" fill="white"/>
</g>
<defs>
<clipPath id="clip0_1004_50">
<rect width="73" height="72" fill="white"/>
</clipPath>
</defs>
</svg>
