<svg width="56" height="66" viewBox="0 0 56 66" fill="none" xmlns="http://www.w3.org/2000/svg">
<path d="M35.6349 0C36.2055 0.340667 36.4052 0.85091 36.388 1.5118C36.2144 8.11241 36.7185 14.6873 37.1268 21.2659C37.1904 22.2947 37.2495 23.3236 37.2801 24.3539C37.3033 25.1132 36.8666 25.6212 36.2384 25.6318C35.6266 25.6424 35.1772 25.1359 35.1331 24.3857C34.8429 19.4998 34.5153 14.6154 34.279 9.72641C34.1706 7.47574 34.2409 5.21674 34.2304 2.96153C34.2296 2.72912 34.2304 2.49671 34.2304 2.22342H31.6645C31.6645 2.79044 31.6765 3.34232 31.6615 3.89344C31.6398 4.71331 31.2188 5.20539 30.5667 5.20312C29.9048 5.20009 29.5189 4.72694 29.5055 3.88284C29.4972 3.34913 29.504 2.81542 29.504 2.23175H27.0996C27.0996 2.75334 27.1041 3.30068 27.0989 3.84878C27.0906 4.72088 26.6823 5.21977 25.9973 5.20463C25.3369 5.19025 24.9578 4.70726 24.9488 3.86392C24.9436 3.37033 24.9436 2.87598 24.9383 2.3824C24.9383 2.34303 24.9151 2.30366 24.8905 2.22266H22.537C22.537 2.77984 22.5444 3.34989 22.5355 3.91994C22.5227 4.71861 22.1428 5.18192 21.5012 5.20084C20.8393 5.22053 20.4063 4.73527 20.3831 3.91918C20.3674 3.36579 20.3802 2.81088 20.3802 2.21888H18.0065C18.0065 2.80558 18.0222 3.35897 18.0027 3.91161C17.9728 4.74435 17.5563 5.21523 16.8967 5.19933C16.264 5.18419 15.8698 4.72618 15.8384 3.92524C15.8168 3.37109 15.834 2.81618 15.834 2.22115H13.4662C13.4662 2.73063 13.4999 3.25904 13.4543 3.78064C13.4244 4.13115 13.387 4.5937 13.1656 4.78675C12.8911 5.02597 12.3826 5.19252 12.0513 5.10243C11.7552 5.02218 11.4134 4.57629 11.3573 4.24546C11.2481 3.6035 11.3251 2.92822 11.3251 2.22417H8.89986C8.89986 2.78438 8.90659 3.35519 8.89836 3.92524C8.88639 4.71256 8.49228 5.18722 7.85062 5.20387C7.18353 5.22128 6.76399 4.733 6.74828 3.9154C6.73781 3.37866 6.73482 2.84192 6.72659 2.30518C6.72659 2.28852 6.70416 2.27187 6.66527 2.21736H3.8339V7.81414H4.68271C12.595 7.81414 20.508 7.81414 28.4203 7.81641C28.7165 7.81641 29.0164 7.81792 29.3073 7.86486C29.8353 7.94965 30.1292 8.28653 30.1643 8.82554C30.2017 9.39407 29.9377 9.78395 29.3925 9.92021C29.0889 9.99592 28.7643 10.0088 28.4487 10.0088C20.4729 10.0133 12.4963 10.0126 4.52043 10.0126H3.71574C3.61702 11.7515 3.5198 13.4382 3.42632 15.1256C3.22739 18.7056 3.02996 22.2857 2.83252 25.8649C2.6493 29.1876 2.34791 32.5087 2.30753 35.8336C2.20059 44.5955 2.20732 53.3582 2.16918 62.121C2.16918 62.2262 2.18114 62.3307 2.19386 62.5441C2.44962 62.5441 2.69267 62.5441 2.93573 62.5441C8.04805 62.5441 13.1604 62.5426 18.2727 62.5479C18.5659 62.5479 18.8687 62.5699 19.1514 62.6441C19.6749 62.7803 19.9195 63.1831 19.8925 63.7024C19.8641 64.2505 19.5665 64.6245 18.9974 64.7024C18.767 64.7342 18.5322 64.7365 18.2996 64.7365C12.7633 64.738 7.22616 64.738 1.6898 64.7373C0.315996 64.7373 0.0116193 64.4284 0.0116193 63.0392C0.0116193 54.8125 -0.0227819 46.585 0.0310635 38.3583C0.049012 35.6345 0.291316 32.9122 0.437896 30.1899C0.584475 27.4676 0.740776 24.7453 0.891843 22.023C1.09077 18.4429 1.33682 14.8652 1.47143 11.2829C1.59258 8.06547 1.60455 4.84352 1.62923 1.62309C1.63446 0.963708 1.73318 0.404258 2.28584 0.00227111H35.6349V0Z" fill="white"/>
<path d="M56 32.738C55.6433 33.869 55.4294 35.0742 54.9021 36.1174C53.5919 38.7118 51.4934 40.3863 48.6486 41.0223C46.6615 41.4659 44.7089 40.2493 44.1914 38.2674C43.6746 36.2878 44.7837 34.2445 46.7423 33.6601C47.8095 33.3414 48.3397 32.7176 48.4287 31.5593C48.585 29.5267 50.1742 28.0466 52.1059 27.9952C53.9329 27.9467 55.5034 29.2882 55.8923 31.2247C55.908 31.3034 55.9633 31.3746 56 31.4488V32.738ZM53.8073 31.9795C53.8469 31.102 53.2382 30.3435 52.3826 30.205C51.6235 30.0816 50.8286 30.6198 50.6237 31.448C50.522 31.8591 50.5586 32.3065 50.4487 32.7145C50.0246 34.2952 49.0135 35.2764 47.4445 35.7116C46.5292 35.966 46.0348 36.882 46.2899 37.6974C46.5965 38.6777 47.3832 39.1092 48.3689 38.8375C51.5712 37.9563 53.6562 35.3271 53.8065 31.9787L53.8073 31.9795Z" fill="white"/>
<path d="M39.3565 45.8469C39.3056 50.237 43.7471 56.3167 49.967 56.7869C50.16 55.6271 49.7756 54.621 49.0606 53.7807C48.2604 52.8389 47.3555 51.9873 46.4776 51.1159C46.3788 51.0175 46.15 51.0054 45.9907 51.0266C45.3513 51.1121 44.8562 50.8873 44.6984 50.3634C44.5197 49.7737 44.7283 49.327 45.2399 48.9917C48.0458 47.1574 51.7118 47.52 54.1991 49.8933C54.5693 50.2468 54.9365 50.6057 55.2746 50.9895C55.727 51.5027 55.718 52.1212 55.2873 52.5467C54.8827 52.9464 54.2762 52.9646 53.7946 52.5437C53.4102 52.2083 53.0639 51.8268 52.7057 51.4619C51.5989 50.3346 50.234 49.9652 48.5476 50.0424C48.7675 50.2915 48.9103 50.449 49.0487 50.611C49.8347 51.5338 50.7657 52.3688 51.3752 53.3991C52.7244 55.6793 52.334 58.3872 50.5279 60.5577C48.0787 63.5018 44.8562 65.0249 41.1962 65.7184C38.6946 66.1923 36.2193 66.0901 33.8037 65.2203C33.2473 65.0196 32.6894 64.7971 32.1823 64.498C31.9139 64.3406 31.6955 64.0257 31.5512 63.7334C29.9164 60.4199 29.8633 56.9648 30.7547 53.4567C31.4569 50.692 32.6939 48.1998 34.7153 46.1641C36.0076 44.8635 37.5033 43.9127 39.37 43.7681C41.3705 43.6129 43.0008 44.432 44.3365 45.8893C44.6992 46.2852 44.6326 46.9302 44.2542 47.2891C43.8257 47.6949 43.3493 47.7145 42.8654 47.3898C42.3038 47.0128 41.7878 46.5389 41.182 46.2656C40.6331 46.0173 39.9899 45.9824 39.3558 45.8462L39.3565 45.8469ZM37.1152 46.9477C37.0075 47.0294 36.9387 47.0771 36.8751 47.1309C33.1912 50.2218 31.4308 56.5037 32.8449 61.2799C33.1695 62.3761 33.7469 62.9946 34.841 63.3019C38.5802 64.3512 42.0959 63.7297 45.4695 61.9589C46.8507 61.2345 48.0623 60.2798 49.0053 58.9868C42.5581 57.4697 38.6161 53.4839 37.1152 46.9477Z" fill="white"/>
<path d="M40.2509 32.9159C40.2344 35.4232 38.3454 37.4589 35.876 37.633C34.3369 37.742 33.5008 38.4832 33.0566 40.1108C32.5316 42.0352 31.3328 43.2911 29.3846 43.6908C27.512 44.0754 25.9527 43.4327 24.7659 41.9436C23.7144 40.6241 23.5985 39.0994 23.9694 37.496C25.0807 32.7009 29.3195 28.8612 34.1454 28.2094C36.1781 27.9346 37.9408 28.2965 39.2712 29.9922C39.939 30.8432 40.2569 31.8273 40.2494 32.9167L40.2509 32.9159ZM35.3786 30.2883C31.5033 30.3246 27.5681 33.299 26.3259 37.1319C26.0544 37.9691 25.7844 38.8163 26.0163 39.7065C26.3132 40.8474 27.3751 41.6483 28.5051 41.6302C29.6493 41.612 30.6731 40.833 30.9289 39.6399C31.4285 37.3083 33.233 35.6223 35.6838 35.4573C37.1989 35.3551 38.1569 34.2097 38.0784 32.7047C38.0058 31.3019 36.8579 30.2746 35.3779 30.289L35.3786 30.2883Z" fill="white"/>
<path d="M20.6161 52.8987C20.652 57.1927 23.677 61.2595 27.7543 62.4631C28.7602 62.7599 29.1625 63.2353 28.9935 63.925C28.82 64.6328 28.1806 64.891 27.156 64.5533C22.5433 63.0355 19.7785 59.8029 18.7195 55.0548C18.3957 53.6028 18.2992 52.125 18.8579 50.6844C19.5953 48.782 21.785 47.4352 23.6748 47.7282C26.0978 48.1037 27.7678 49.8509 27.883 52.15C27.9241 52.9722 28.0258 53.7549 28.488 54.4772C28.8537 55.0495 28.6705 55.6756 28.1537 55.9882C27.6302 56.3054 26.9915 56.1941 26.6879 55.5711C26.311 54.7989 26.0515 53.9609 25.8122 53.1296C25.6843 52.6853 25.765 52.1796 25.6476 51.7306C25.353 50.6087 24.2372 49.8274 23.1072 49.8857C21.9196 49.9471 20.9332 50.8207 20.7253 52.0054C20.6737 52.2999 20.6527 52.5997 20.6176 52.8965L20.6161 52.8987Z" fill="white"/>
<path d="M19.5399 20.895C22.9822 20.895 26.3932 23.4795 27.3542 26.8105C27.6002 27.6622 27.3856 28.2633 26.7634 28.4684C26.1053 28.6857 25.6124 28.3715 25.3125 27.5108C24.4443 25.0186 22.7205 23.5575 20.1524 23.1366C19.7448 23.07 19.3028 23.0859 18.8967 23.1669C18.2064 23.3047 17.8557 23.8308 17.8991 24.5212C17.9387 25.1458 18.3784 25.5765 19.05 25.6833C19.6311 25.7756 20.2361 25.8158 20.7813 26.0171C21.7408 26.3707 22.4154 27.0853 22.7571 28.0679C22.9508 28.6244 23.2387 29.0332 23.7869 29.2913C24.4293 29.5941 24.6312 30.2225 24.3448 30.7849C24.0733 31.3187 23.5154 31.4769 22.8641 31.2195C21.9001 30.8379 21.224 30.1604 20.8897 29.174C20.5981 28.3132 20.0521 27.9112 19.1457 27.8794C17.1445 27.8083 15.6974 26.3086 15.7251 24.4009C15.7542 22.4326 17.223 20.9594 19.2213 20.8965C19.3275 20.8935 19.4329 20.8965 19.5391 20.8965L19.5399 20.895Z" fill="white"/>
<path d="M45.8307 23.9549C45.281 23.9731 44.7665 23.4833 44.7373 22.914C44.7051 22.2811 45.5981 21.3257 46.2405 21.3045C46.7894 21.2871 47.3069 21.7815 47.3331 22.3477C47.3623 22.9882 46.4783 23.933 45.8307 23.9542V23.9549Z" fill="white"/>
<path d="M18.5759 43.8142C18.5819 44.4085 18.1362 44.8817 17.5529 44.8991C16.8955 44.9188 16.0078 44.0421 16.0018 43.3676C15.9966 42.7794 16.4505 42.2986 17.0271 42.2827C17.6822 42.2646 18.5692 43.1412 18.5759 43.8142Z" fill="white"/>
<path d="M52.9943 8.41598C53.5463 8.3963 54.0593 8.88459 54.084 9.45539C54.1116 10.1027 53.2434 11.0399 52.5935 11.0649C52.0341 11.0861 51.5338 10.6091 51.5069 10.03C51.4769 9.3812 52.3445 8.44021 52.9943 8.41674V8.41598Z" fill="white"/>
<path d="M45.0431 15.1339C45.0461 15.7759 44.1263 16.7002 43.4928 16.6911C42.9357 16.6828 42.4391 16.1756 42.4376 15.6139C42.4361 14.9674 43.3522 14.0483 43.9879 14.0589C44.5421 14.068 45.0401 14.5752 45.0424 15.1347L45.0431 15.1339Z" fill="white"/>
<path d="M19.1316 33.5072C19.7949 33.5019 20.6677 34.3861 20.6587 35.0546C20.6512 35.6428 20.189 36.1046 19.6065 36.1054C18.9431 36.1061 18.0681 35.2212 18.0756 34.5572C18.0823 33.9773 18.5505 33.5118 19.1316 33.5072Z" fill="white"/>
<path d="M12.1242 34.8139C12.1182 35.3998 11.6523 35.8715 11.0749 35.8753C10.4168 35.8798 9.53884 34.9865 9.54557 34.3203C9.55155 33.7381 10.022 33.2627 10.5956 33.2589C11.2529 33.2544 12.1309 34.1477 12.1242 34.8139Z" fill="white"/>
</svg>
