<svg width="93" height="68" viewBox="0 0 93 68" fill="none" xmlns="http://www.w3.org/2000/svg">
<path d="M59.8809 9.88494V4.49834H59.2927C58.4524 4.49834 57.6122 4.48061 56.7726 4.50448C56.2355 4.51948 55.8509 4.29172 55.6065 3.85869C55.0244 2.82965 55.0244 1.77402 55.5802 0.735432C55.8295 0.271035 56.232 0.0528165 56.7961 0.0548623C60.4208 0.0691829 64.0456 0.0719107 67.6703 0.0534984C68.3138 0.0500888 68.7287 0.32218 68.989 0.854089C69.4592 1.81357 69.4544 2.78669 68.9676 3.73935C68.7032 4.25558 68.2862 4.52494 67.662 4.50653C66.6637 4.47652 65.6639 4.49834 64.64 4.49834V9.89449C72.3327 10.6051 78.8138 13.7754 84.11 19.3761C84.4456 19.1122 84.777 18.8531 85.1063 18.5919C85.4287 18.3368 85.7498 18.0797 86.104 17.7974C85.638 17.2212 85.2064 16.6354 84.7183 16.0994C84.1915 15.5204 84.186 15.0479 84.6714 14.3523C85.0421 13.8204 85.5613 13.4685 86.211 13.3328C86.675 13.236 87.0588 13.3389 87.373 13.729C89.1432 15.9241 90.919 18.1159 92.7086 20.2953C93.078 20.7447 93.078 21.19 92.8211 21.6524C92.4228 22.3691 91.8097 22.8233 90.9832 22.9556C90.5848 23.0197 90.2424 22.901 89.9793 22.5682C89.485 21.9422 88.9748 21.3285 88.4432 20.6752C87.7645 21.2119 87.1044 21.7342 86.4492 22.2525C86.9125 22.9965 87.3806 23.7111 87.8107 24.4476C89.8399 27.9166 91.0854 31.6482 91.5204 35.6279C92.1818 41.6815 91.1054 47.4261 88.147 52.7779C84.8875 58.6746 80.1035 62.9667 73.8669 65.6521C70.762 66.9887 67.506 67.7327 64.1215 67.9414C59.8443 68.2053 55.7045 67.5909 51.7035 66.0845C48.4813 64.8713 45.5767 63.1256 42.9551 60.9134C42.8067 60.7886 42.5726 60.7006 42.3786 60.7006C36.637 60.689 30.8947 60.6917 25.1531 60.6904C24.0851 60.6904 23.1847 60.0105 22.939 59.0271C22.6863 58.0179 23.1281 56.9936 24.0733 56.5238C24.3806 56.371 24.7513 56.2715 25.0938 56.2708C31.4567 56.2558 37.8204 56.2585 44.1834 56.2667C44.3346 56.2667 44.5224 56.3431 44.6301 56.4474C47.8371 59.5304 51.5841 61.6812 55.9185 62.803C58.6782 63.5177 61.4827 63.7543 64.3307 63.5163C69.0684 63.1201 73.3477 61.521 77.1616 58.7312C80.3299 56.414 82.8072 53.5042 84.5781 50.0215C86.7102 45.829 87.5946 41.3882 87.1403 36.7163C86.4333 29.4455 83.0882 23.5904 77.2382 19.1551C73.9 16.6245 70.1027 15.086 65.9366 14.4853C60.4712 13.6969 55.2903 14.6039 50.4124 17.1578C48.2852 18.2714 46.3824 19.6959 44.6549 21.3523C44.5389 21.4635 44.3422 21.5487 44.1827 21.5487C37.8197 21.5583 31.4561 21.5583 25.0931 21.5556C23.8703 21.5556 22.9031 20.607 22.8761 19.4013C22.8492 18.1998 23.7702 17.2041 24.9819 17.1284C25.1311 17.1189 25.2809 17.1209 25.4307 17.1209C31.0687 17.1209 36.7074 17.1196 42.3455 17.125C42.6009 17.125 42.7984 17.0657 42.9972 16.8959C46.8691 13.6076 51.301 11.4295 56.3059 10.4182C57.4188 10.1932 58.5546 10.0813 59.68 9.91767C59.7359 9.90949 59.7918 9.89994 59.8823 9.88562L59.8809 9.88494Z" fill="white"/>
<path d="M32.7927 36.6952C33.1013 34.8969 33.4017 33.1436 33.7075 31.3604H33.2691C27.3321 31.3604 21.3945 31.3611 15.4575 31.3604C14.2299 31.3604 13.3351 30.688 13.0811 29.586C12.789 28.319 13.7335 27.0431 15.046 26.9326C15.1717 26.9217 15.2987 26.9189 15.4251 26.9189C23.5949 26.9189 31.764 26.9189 39.9338 26.9189C40.0588 26.9189 40.1837 26.9189 40.3356 26.9189C36.2021 34.9187 36.1986 42.8857 40.3336 50.8985C40.2279 50.906 40.1223 50.9196 40.0167 50.9196C31.8123 50.9203 23.6087 50.921 15.4043 50.9189C14.2928 50.9189 13.4221 50.3038 13.1259 49.33C12.8429 48.3992 13.2122 47.3899 14.0352 46.8464C14.4833 46.5505 14.9859 46.4659 15.5127 46.4659C21.4497 46.4673 27.3874 46.4666 33.3244 46.4666C33.4597 46.4666 33.595 46.4666 33.7048 46.4666C33.4003 44.6833 33.1013 42.9328 32.7927 41.1257C32.705 41.1257 32.5607 41.1257 32.4158 41.1257C22.4515 41.1257 12.4866 41.1257 2.52237 41.1257C1.59996 41.1257 0.901247 40.7342 0.469731 39.9275C0.0506423 39.1426 0.114161 38.3611 0.624386 37.6417C1.07454 37.0061 1.7125 36.6938 2.51132 36.6945C12.4756 36.6972 22.4405 36.6965 32.4047 36.6965C32.5421 36.6965 32.6788 36.6965 32.7913 36.6965L32.7927 36.6952Z" fill="white"/>
<path d="M59.4073 41.8568C60.0287 41.2621 60.6411 40.6804 61.2487 40.094C65.2628 36.2179 69.2755 32.3404 73.2904 28.465C74.2604 27.5287 75.6682 27.5273 76.5526 28.4561C77.4184 29.3658 77.3135 30.7317 76.3503 31.653C74.1845 33.7233 72.0373 35.8121 69.8817 37.8927C66.9281 40.7432 63.9779 43.5978 61.0167 46.4414C60.0798 47.3409 58.788 47.3252 57.8283 46.4339C54.7441 43.5705 51.6614 40.705 48.5786 37.8402C48.4109 37.6847 48.2403 37.532 48.0753 37.3744C47.1501 36.4906 47.1073 35.1227 47.9752 34.2253C48.8196 33.3524 50.2184 33.334 51.1415 34.1912C53.8162 36.6727 56.4882 39.1563 59.1615 41.6386C59.2361 41.7074 59.3134 41.7736 59.408 41.8575L59.4073 41.8568Z" fill="white"/>
</svg>
