<svg width="80" height="81" viewBox="0 0 80 81" fill="none" xmlns="http://www.w3.org/2000/svg">
<mask id="mask0_226_14" style="mask-type:alpha" maskUnits="userSpaceOnUse" x="0" y="0" width="80" height="81">
<rect y="0.5" width="80" height="80" fill="#D9D9D9"/>
</mask>
<g mask="url(#mask0_226_14)">
</g>
<g clip-path="url(#clip0_226_14)">
<path d="M4.19336 64.4143C4.2466 64.2964 4.31384 64.1828 4.35167 64.0608C4.76075 62.6997 5.55649 61.6477 6.80055 60.9104C7.0233 60.7787 7.25025 60.435 7.25025 60.1896C7.27267 49.8637 7.26987 39.5391 7.26707 29.2132C7.26707 29.0565 7.23905 28.8999 7.22364 28.7253C6.80335 28.6962 6.40828 28.6976 6.02161 28.6366C5.1334 28.4966 4.50577 27.8133 4.49176 26.9276C4.46795 25.4071 4.46515 23.8853 4.49176 22.3648C4.50998 21.3849 5.25249 20.6724 6.30881 20.6364C7.51924 20.5948 8.73247 20.6364 9.9443 20.6114C10.2049 20.6059 10.5075 20.5352 10.7134 20.3869C13.895 18.0972 17.0654 15.7908 20.2344 13.4845C21.5288 12.542 22.8107 11.5884 24.384 11.1185C27.9032 10.0665 31.2837 10.3063 34.4485 12.2343C35.5567 12.9093 36.5836 13.7145 37.6357 14.4769C38.2871 14.9495 38.423 15.5663 38.0294 16.0763C37.6497 16.5684 37.0529 16.6224 36.414 16.1817C35.5356 15.576 34.6769 14.9426 33.8027 14.3286C30.5973 12.0735 26.1324 11.9681 22.9172 14.1733C20.0088 16.1678 17.1705 18.2635 14.3013 20.3148C14.2312 20.3647 14.1724 20.4299 14.0197 20.5685H42.5334C41.8568 20.0848 41.3272 19.7064 40.7991 19.3266C40.5735 19.1644 40.3381 19.012 40.1252 18.8332C39.6152 18.4021 39.5116 17.8352 39.8408 17.364C40.1826 16.8761 40.8145 16.7638 41.3861 17.1699C42.7856 18.1637 44.1502 19.206 45.5539 20.1929C45.8677 20.4132 46.2852 20.5851 46.6635 20.6045C47.7562 20.6586 48.8532 20.6114 49.9487 20.6281C51.295 20.6475 52.0011 21.3641 52.0067 22.6974C52.0123 23.9656 52.0095 25.2325 52.0067 26.5007C52.0039 27.9741 51.3301 28.656 49.8507 28.6892C49.6671 28.6934 49.4822 28.7073 49.2202 28.7197C49.2202 29.0094 49.2202 29.2797 49.2202 29.55C49.2202 34.7351 49.2202 39.9217 49.2202 45.1068C49.2202 45.2912 49.2272 45.4755 49.2174 45.6598C49.1824 46.3445 48.7481 46.7881 48.1401 46.7714C47.5489 46.7548 47.144 46.3376 47.1286 45.6737C47.109 44.8213 47.1216 43.9689 47.1216 43.1151C47.1216 42.8878 47.1216 42.6605 47.1216 42.3237C46.6341 42.3237 46.197 42.3403 45.7627 42.3195C45.1392 42.289 44.7624 41.9688 44.7189 41.3368C44.6797 40.7519 45.0832 40.3222 45.7402 40.2432C45.97 40.2155 46.2054 40.2363 46.4393 40.2294C46.6439 40.2224 46.847 40.2086 47.0852 40.1961V38.7643C46.6607 38.7643 46.2502 38.7893 45.8425 38.7588C45.1014 38.702 44.7063 38.3139 44.7133 37.6985C44.7203 37.0969 45.142 36.6991 45.8677 36.6506C46.2572 36.6243 46.6509 36.6465 47.081 36.6465V35.1925C46.6887 35.1925 46.3006 35.2119 45.9168 35.1884C45.135 35.1412 44.7091 34.7518 44.7147 34.1197C44.7203 33.4932 45.1518 33.1107 45.935 33.0663C46.302 33.0456 46.6705 33.0622 47.0796 33.0622V31.611C46.7363 31.611 46.3973 31.6179 46.0597 31.611C45.1813 31.5902 44.7105 31.2132 44.7147 30.5424C44.7189 29.8674 45.1701 29.5139 46.0709 29.4876C46.3917 29.4779 46.7139 29.4862 47.0782 29.4862V28.7322H9.41474V60.4003C9.90648 60.4003 10.4094 60.3892 10.9124 60.4031C11.6367 60.4211 12.0766 60.805 12.0934 61.408C12.1116 62.0289 11.6409 62.4572 10.8956 62.4752C10.3366 62.4891 9.76638 62.5459 9.22001 62.4655C7.92412 62.2756 6.46151 63.5203 6.30741 65.1405C6.16871 66.6 7.28388 68.0637 8.74788 68.3062C9.13595 68.37 9.53522 68.3963 9.93029 68.3963C17.9956 68.4019 26.0595 68.3963 34.1249 68.4116C34.6614 68.4116 35.0341 68.2508 35.4026 67.8766C37.3261 65.9334 39.2958 64.0331 41.2081 62.0788C42.815 60.4363 44.7456 59.5909 47.1314 59.5798C47.1314 59.2984 47.1314 59.0531 47.1314 58.8064C47.1314 56.0412 47.1272 53.2747 47.1342 50.5096C47.137 49.6821 47.6035 49.2012 48.2872 49.2843C48.891 49.3564 49.2258 49.7819 49.2272 50.5248C49.2328 53.4286 49.23 56.3323 49.23 59.2374C49.23 59.4869 49.23 59.7364 49.23 60.1439C49.485 59.936 49.6433 59.8265 49.7778 59.6934C50.8495 58.6345 51.9129 57.5673 52.9888 56.5125C56.4478 53.1195 61.3806 53.1056 64.8507 56.4751C65.5484 57.1528 66.2433 57.8361 66.9214 58.5347C67.5084 59.139 67.5434 59.7087 67.0587 60.1744C66.5935 60.6207 65.9911 60.5583 65.3971 59.9914C64.5089 59.1432 63.6753 58.2326 62.7297 57.4522C60.4811 55.5935 57.3038 55.5783 55.1071 57.4952C53.7874 58.6484 52.6456 60.0011 51.3973 61.2929C52.5853 62.4031 53.8518 63.5896 55.1197 64.7746C56.2881 65.8668 57.4481 66.9701 58.6375 68.0387C58.8546 68.2328 59.2007 68.3866 59.4879 68.388C64.0326 68.4102 68.5773 68.4033 73.1234 68.4005C73.2789 68.4005 73.433 68.37 73.7426 68.3381C73.5003 68.072 73.3476 67.8918 73.1809 67.7241C71.7351 66.2854 70.2711 64.8647 68.8547 63.3983C68.5969 63.1322 68.4022 62.6748 68.4232 62.3186C68.4386 62.0386 68.8 61.5978 69.062 61.5563C69.4347 61.4967 69.9628 61.6228 70.236 61.8709C71.3344 62.8674 72.3599 63.9416 73.412 64.9867C73.8561 65.4274 74.2638 65.9126 74.7499 66.302C76.2686 67.5204 76.2728 69.6978 73.992 70.5073H8.80952C7.96334 70.158 7.06113 69.903 6.28639 69.44C5.08997 68.7262 4.59263 67.4857 4.19476 66.2203C4.19476 65.6215 4.19476 65.0213 4.19476 64.4226L4.19336 64.4143ZM49.8549 22.7986H6.64084V23.6164H7.43938C10.3072 23.6164 13.1735 23.6164 16.0413 23.6164C16.6003 23.6164 17.162 23.59 17.7182 23.6316C18.3234 23.6774 18.6541 24.0876 18.6569 24.6462C18.6597 25.2075 18.3305 25.597 17.7266 25.6719C17.5193 25.6982 17.3077 25.6829 17.0976 25.6829C13.8572 25.6829 10.6168 25.6829 7.37774 25.6829C7.13117 25.6829 6.8846 25.6829 6.5918 25.6829C6.60721 26.0253 6.61842 26.2651 6.62963 26.5007H49.8352V25.6829C49.5354 25.6829 49.2833 25.6829 49.0297 25.6829C46.0919 25.6829 43.1555 25.6857 40.2177 25.6816C39.4359 25.6816 38.9806 25.3115 38.9526 24.6905C38.9246 24.0447 39.4065 23.6178 40.2036 23.6164C43.1639 23.6108 46.1241 23.6136 49.0843 23.6136C49.3323 23.6136 49.5789 23.6136 49.8535 23.6136V22.7958L49.8549 22.7986ZM55.7767 68.3645C55.6632 68.212 55.6212 68.1316 55.5596 68.0734C53.7635 66.3963 51.9955 64.6873 50.1575 63.0546C48.0854 61.2139 45.2359 61.2305 43.2059 63.1197C41.4421 64.7622 39.7736 66.503 38.0658 68.2037C38.0434 68.2259 38.063 68.2882 38.063 68.3631H55.7767V68.3645Z" fill="black"/>
<path d="M24.7302 40.5063C24.9193 38.6254 25.7347 37.2047 27.329 36.2511C27.951 35.8797 28.545 35.8838 29.1657 36.2553C30.7585 37.2103 31.5711 38.6351 31.749 40.4231C32.4019 40.5007 33.0267 40.5423 33.6375 40.6559C34.3646 40.7904 34.8115 41.2228 34.9782 41.9713C35.236 43.1314 35.1898 44.2485 34.7008 45.3449C34.6266 45.5112 34.5762 45.7635 34.6504 45.9076C35.3621 47.2812 35.2598 48.6492 34.7078 50.0352C34.6406 50.2043 34.5972 50.4566 34.6756 50.5952C35.7642 52.5232 35.0665 55.6902 32.5153 57.0666C31.5935 57.5642 30.7193 57.7527 29.3898 57.7166C29.2385 58.4485 29.394 59.4783 28.1934 59.4325C27.1076 59.391 27.2071 58.4679 27.1188 57.7069C25.2948 57.8164 23.7523 57.28 22.5517 55.9217C21.2614 54.4608 20.9658 52.3083 21.784 50.634C21.8666 50.4663 21.8428 50.1974 21.77 50.0144C21.2222 48.6256 21.1171 47.259 21.8484 45.8896C21.9227 45.7496 21.8162 45.514 21.7882 45.3241C21.6551 44.426 21.3791 43.5236 21.4155 42.6324C21.4758 41.1494 22.1104 40.6227 23.6192 40.509C23.9653 40.4827 24.3141 40.5049 24.7302 40.5049V40.5063ZM23.5562 52.0145C23.2284 54.0436 24.656 55.7055 26.5753 55.6043C26.9886 55.5821 27.1371 55.4408 27.1441 55.0291C27.1749 53.194 25.5133 51.6153 23.5576 52.0145H23.5562ZM29.429 55.5101C31.6608 55.8954 33.405 54.1296 32.9188 52.0311C30.7585 51.6708 29.1222 53.2813 29.429 55.5101ZM27.095 45.8951C27.2603 44.4731 26.3988 43.0857 24.9964 42.7295C24.5481 42.6158 24.0465 42.7031 23.5702 42.699C23.5828 43.191 23.5058 43.7066 23.6347 44.1654C23.7397 44.5424 24.0171 45.0358 24.3421 45.1606C25.2093 45.4932 26.1438 45.654 27.095 45.8951ZM29.4206 45.9561C30.1912 45.7039 30.9 45.3324 31.6355 45.2673C32.4033 45.2007 32.7115 44.814 32.8628 44.207C32.9833 43.7274 32.9987 43.2229 33.0589 42.7502C31.0555 42.1099 29.118 43.902 29.4206 45.9548V45.9561ZM23.3657 47.4544C23.5142 48.11 23.6249 48.7518 23.8168 49.3685C23.8784 49.5668 24.1292 49.7885 24.3365 49.8481C25.2514 50.1115 26.183 50.3194 27.0964 50.5439C27.329 48.6021 25.5049 46.9042 23.3643 47.4544H23.3657ZM33.0645 47.4517C31.0331 46.8487 29.0984 48.6367 29.4234 50.6035C30.1533 50.3707 30.879 50.0075 31.6327 49.9354C32.3472 49.8675 32.7045 49.5681 32.8516 48.9611C32.9721 48.4621 32.9987 47.9423 33.0645 47.4517ZM28.2662 42.5174C28.5324 42.2374 28.7608 42.0129 28.9709 41.7731C29.1755 41.5402 29.4571 41.3199 29.5397 41.0454C29.7877 40.2277 29.2749 38.9068 28.5422 38.423C28.3965 38.3274 28.0519 38.3399 27.9132 38.448C27.2113 38.9899 26.9661 39.7717 26.8695 40.6157C26.7938 41.281 27.2828 41.5818 27.7045 41.9366C27.8796 42.0836 28.0253 42.2651 28.2662 42.5174Z" fill="black"/>
<path d="M15.1513 47.5057C15.2998 54.0755 19.3668 59.1206 25.5464 60.454C29.6751 61.3452 33.4352 60.3639 36.7009 57.6667C36.9152 57.4893 37.1142 57.2925 37.3411 57.1317C37.8819 56.7464 38.4619 56.7963 38.8387 57.2439C39.21 57.6833 39.2016 58.3223 38.679 58.7173C37.519 59.5947 36.3885 60.5704 35.0968 61.2094C26.055 65.6863 15.3965 60.5496 13.3329 50.7781C11.6195 42.6615 17.1407 34.4562 25.3447 32.9246C33.5823 31.3875 41.6084 36.7376 43.1663 44.8417C43.8416 48.3498 43.312 51.7081 41.6505 54.8835C41.31 55.5336 40.723 55.7803 40.1599 55.5225C39.6037 55.2675 39.3991 54.6548 39.7466 53.9798C40.8687 51.801 41.4627 49.5085 41.2778 47.0608C40.8729 41.6677 38.1425 37.7799 33.1256 35.7369C25.5086 32.6349 17.1183 37.1797 15.4259 45.1577C15.241 46.0309 15.2158 46.9374 15.1527 47.5084L15.1513 47.5057Z" fill="black"/>
<path d="M25.5833 16.252C25.5805 16.8064 25.1308 17.2527 24.5648 17.2638C23.9652 17.2763 23.4944 16.8203 23.5 16.2354C23.5057 15.6837 23.9624 15.2166 24.5115 15.2C25.0775 15.1834 25.5861 15.6823 25.5833 16.252Z" fill="black"/>
<path d="M31.9279 17.2625C31.3605 17.2528 30.9164 16.812 30.9122 16.2548C30.9066 15.6741 31.3983 15.1848 31.9727 15.1987C32.5149 15.2125 32.987 15.6893 32.9954 16.2299C33.0038 16.8078 32.5233 17.2722 31.9279 17.2625Z" fill="black"/>
<path d="M60.1521 59.1193C60.1451 59.6848 59.7094 60.12 59.1406 60.1269C58.5508 60.1353 58.0534 59.6557 58.0646 59.0888C58.0744 58.533 58.6082 58.041 59.17 58.0673C59.7234 58.0936 60.1591 58.5593 60.1521 59.1179V59.1193Z" fill="black"/>
<path d="M35.6043 20.0733C35.0565 20.0442 34.597 19.5619 34.6096 19.0255C34.6222 18.4614 35.1476 17.9749 35.7108 18.0067C36.2894 18.0386 36.7433 18.5584 36.6929 19.1294C36.6438 19.6824 36.1605 20.1038 35.6057 20.0747L35.6043 20.0733Z" fill="black"/>
<path d="M21.8648 19.0407C21.8662 19.6243 21.38 20.0927 20.7944 20.0747C20.2509 20.0567 19.7773 19.5785 19.7773 19.0449C19.7773 18.514 20.2523 18.0262 20.7916 18.0054C21.3632 17.9832 21.8634 18.4669 21.8648 19.0421V19.0407Z" fill="black"/>
<path d="M29.2793 19.013C29.2961 19.5979 28.8254 20.0761 28.2384 20.0733C27.6948 20.0705 27.2101 19.6062 27.1919 19.0726C27.1737 18.5223 27.6864 18.004 28.2496 18.0067C28.8016 18.0095 29.2653 18.4613 29.2807 19.013H29.2793Z" fill="black"/>
<path d="M56.622 61.0598C57.2258 61.0722 57.6587 61.5352 57.6293 62.1381C57.6027 62.6883 57.1193 63.1443 56.5785 63.1291C56.063 63.1152 55.5544 62.6052 55.546 62.0937C55.5362 61.5393 56.049 61.0487 56.6234 61.0598H56.622Z" fill="black"/>
<path d="M50.459 64.8159C51.0348 64.8173 51.4691 65.2373 51.4831 65.8069C51.4972 66.3891 51.0208 66.8839 50.4506 66.8797C49.9351 66.8756 49.4167 66.3766 49.3971 65.8665C49.3761 65.3093 49.8776 64.8145 50.459 64.8159Z" fill="black"/>
<path d="M46.5075 65.1333C45.9499 65.1291 45.4806 64.6786 45.468 64.1339C45.4554 63.5795 45.9723 63.057 46.5271 63.0639C47.1043 63.0708 47.5708 63.567 47.5498 64.1547C47.5302 64.7147 47.0777 65.1388 46.5075 65.1333Z" fill="black"/>
<path d="M42.895 64.8145C43.4665 64.8145 43.9093 65.24 43.9247 65.8027C43.9401 66.3848 43.4651 66.881 42.8936 66.8796C42.3416 66.8783 41.8204 66.3432 41.8414 65.8013C41.8624 65.2608 42.3388 64.8145 42.895 64.8158V64.8145Z" fill="black"/>
</g>
<defs>
<clipPath id="clip0_226_14">
<rect width="71.6129" height="60" fill="white" transform="translate(4.19336 10.5)"/>
</clipPath>
</defs>
</svg>
