<svg width="90" height="91" viewBox="0 0 90 91" fill="none" xmlns="http://www.w3.org/2000/svg">
<mask id="mask0_227_37" style="mask-type:alpha" maskUnits="userSpaceOnUse" x="0" y="0" width="90" height="91">
<rect y="0.428955" width="90" height="90" fill="#D9D9D9"/>
</mask>
<g mask="url(#mask0_227_37)">
</g>
<g clip-path="url(#clip0_227_37)">
<path d="M44.5475 10.429C44.7483 10.429 44.9491 10.429 45.1499 10.429C47.8318 11.9631 50.4393 13.6466 53.2098 15.0021C60.3207 18.4804 67.6852 21.073 75.8116 20.517C77.0158 20.4342 77.026 21.2944 77.0506 22.1118C77.3108 30.6479 76.8828 39.1226 74.6637 47.4259C71.5455 59.0945 65.5063 68.8021 55.101 75.4058C52.0517 77.3405 48.6769 78.7693 45.4509 80.4296H44.5469C44.3425 80.3093 44.1501 80.1569 43.9313 80.073C30.5186 74.9248 21.6814 65.4374 16.9993 52.0336C13.5034 42.0235 12.7224 31.6521 12.9082 21.1563C12.9244 20.236 13.3662 19.9931 14.2287 19.9776C16.832 19.9294 19.4467 19.9425 22.0332 19.6901C30.4671 18.8668 37.9641 15.7236 44.5475 10.429ZM52.6751 40.0418C51.3863 40.4942 50.2786 40.9436 49.1355 41.2705C47.3894 41.7699 45.1535 40.4222 44.8964 38.6755C44.8221 38.1725 45.0055 37.3147 45.3549 37.1176C47.8677 35.7026 50.3739 34.2221 53.0389 33.1463C55.4756 32.1629 57.1648 33.0059 58.4409 35.2513C59.1543 36.5062 59.7615 37.8266 60.5473 39.0333C62.9672 42.7522 62.5841 46.2192 59.8346 49.5982C57.3878 52.6056 55.0188 55.6756 52.5336 58.8212C53.9495 61.2995 55.487 63.9914 57.0347 66.7018C61.516 63.3723 66.0524 56.6704 68.3014 50.0607C70.9539 42.2664 71.9016 34.2441 71.633 26.0057C61.6155 26.2265 53.2068 22.1517 44.9431 17.2857C37.0931 23.2458 28.0958 25.8497 18.2365 25.5866C18.1717 25.8682 18.1094 26.0081 18.1124 26.1468C18.2701 34.1792 18.9942 42.1319 21.6682 49.7881C25.0213 59.3897 30.8987 66.9019 40.1292 71.6077C40.4445 71.7685 40.7933 71.8643 41.3286 72.0667C40.4445 69.4867 39.649 67.143 38.8386 64.8046C37.5864 61.1893 36.4457 57.5092 34.0444 54.4314C32.405 52.3312 31.8602 49.9363 31.6875 47.136C33.0698 48.1879 34.268 49.1505 35.5184 50.0405C37.2723 51.2888 38.2554 51.0966 39.5765 49.3922C40.2185 48.5647 40.8899 47.7551 41.6026 46.9878C42.2763 46.2627 43.022 45.6037 43.7359 44.9155C42.8098 47.4991 42.4238 49.9821 43.2126 52.8325C43.6622 49.8286 43.9283 47.0146 45.7446 44.7327C47.7478 42.2152 50.5987 42.1098 53.6468 42.3313C53.3009 41.5163 53.015 40.8418 52.6757 40.0424L52.6751 40.0418Z" fill="#FF0000"/>
<path d="M37.5534 33.7935C37.8531 33.9988 38.4412 34.2405 38.7942 34.6721C40.463 36.711 42.1216 38.7631 43.6735 40.8895C44.5319 42.0658 44.2046 42.6004 42.3104 44.2803C41.3783 45.1066 40.5379 44.9268 39.8204 44.1607C37.949 42.161 36.1358 40.1078 34.3387 38.0421C34.1073 37.776 34.0114 37.3099 34.0168 36.939C34.0342 35.8484 36.2053 33.8036 37.5528 33.7935H37.5534Z" fill="#FF0000"/>
<path d="M29.8203 42.4117C30.5234 41.4836 31.1798 40.3924 32.0813 39.5644C32.3505 39.3173 33.496 39.606 33.915 39.9948C35.7738 41.7182 37.5786 43.5118 39.2486 45.4132C39.6095 45.824 39.6125 46.9735 39.2876 47.4551C38.6804 48.3552 37.9293 49.8923 36.5171 48.9612C34.4562 47.6034 32.5914 45.9419 30.7135 44.3286C30.3118 43.9839 30.2135 43.2916 29.8203 42.4117Z" fill="#FF0000"/>
<path d="M48.6452 33.5547C47.7071 32.0581 46.7228 30.7294 46.0323 29.2644C45.7691 28.7054 45.9232 27.5975 46.3368 27.1582C47.0537 26.3968 48.0625 25.7562 49.0666 25.4717C49.6132 25.3169 50.652 25.8176 51.0315 26.3373C52.1356 27.8493 53.0185 29.5203 54.1035 31.3199C52.2393 32.0831 50.516 32.7886 48.6452 33.5547Z" fill="#FF0000"/>
<path d="M47.5011 33.9309C45.743 34.9745 43.4406 35.118 42.9149 37.6034C41.8174 36.0621 40.7078 34.7013 39.8507 33.1987C39.5348 32.6445 39.533 31.5593 39.8848 31.0646C40.4627 30.2526 41.378 29.6007 42.2783 29.1137C43.1822 28.6244 44.0406 29.0631 44.6281 29.8722C45.5877 31.1937 46.5168 32.5367 47.5011 33.9309Z" fill="#FF0000"/>
</g>
<defs>
<clipPath id="clip0_227_37">
<rect width="64.2353" height="70" fill="white" transform="translate(12.8828 10.429)"/>
</clipPath>
</defs>
</svg>
