<svg width="89" height="89" viewBox="0 0 89 89" fill="none" xmlns="http://www.w3.org/2000/svg">
<path d="M19.3817 89H10.2846C9.96348 87.9831 9.38379 86.9716 9.36565 85.9492C9.27131 80.7039 9.32211 75.4559 9.32211 70.2097C9.32211 69.1139 9.32211 68.0171 9.32211 66.7389C7.76993 66.7389 6.46088 66.6554 5.16726 66.757C2.85669 66.9394 1.0877 66.1982 0.000907173 64.08V43.5107C1.03599 41.3326 2.81042 40.5978 5.13188 40.7674C6.47177 40.8654 7.82346 40.7856 9.1942 40.7856V33.2678C7.57852 33.2678 6.07715 33.1626 4.59574 33.2923C2.30422 33.4928 0.839135 32.5249 0 30.4574V10.2846C0.891751 8.12918 2.4911 7.33268 4.80983 7.45515C7.51774 7.59848 10.2384 7.48871 12.9163 7.48871C13.2344 3.38769 14.203 0.891448 15.822 0H73.178C76.7994 1.34624 75.7662 4.62386 76.0601 7.48871C78.8642 7.48871 81.534 7.59848 84.1911 7.45515C86.5089 7.32996 88.1073 8.1319 89 10.2837V30.4574C88.1581 32.5212 86.6958 33.4937 84.4043 33.2923C82.9238 33.1626 81.4224 33.2678 79.8158 33.2678V40.7856C81.2582 40.7856 82.57 40.8645 83.869 40.7683C86.1905 40.596 87.9649 41.3326 89 43.5107V64.08C86.9643 68.1758 83.0172 66.1792 79.6788 66.9412C79.6788 67.6243 79.6788 68.3264 79.6788 69.0286C79.6788 74.6685 79.726 80.3084 79.6353 85.9464C79.6189 86.9688 79.0365 87.9822 78.7163 88.9991H69.6183C69.1356 86.5651 68.653 84.1321 68.1641 81.6646H20.3452C20.3452 82.9265 20.4685 84.0532 20.3134 85.14C20.1274 86.4436 19.7029 87.7136 19.3827 88.9982L19.3817 89ZM16.682 85.3359C16.682 83.6005 16.7001 82.0356 16.6766 80.4717C16.6512 78.7934 17.3216 77.9125 19.1277 77.9153C36.0637 77.9388 52.9998 77.9361 69.9349 77.9189C71.6231 77.9171 72.3243 78.7399 72.318 80.3401C72.3116 81.964 72.3162 83.5887 72.3162 85.247H75.9748V82.9727C75.9748 77.3709 75.9685 71.7701 75.9775 66.1683C75.9821 63.5456 76.4493 63.083 79.1036 63.0603C81.1239 63.0431 83.1451 63.0567 85.218 63.0567V44.5621H3.74753V63.0567C5.7043 63.0567 7.53498 63.054 9.36656 63.0567C12.695 63.063 13.0216 63.3814 13.0225 66.6291C13.0243 72.1647 13.0197 77.7003 13.027 83.2358C13.0279 83.9271 13.0878 84.6184 13.1223 85.3359H16.6811H16.682ZM85.2815 11.0711C79.1472 11.0711 73.2234 11.0539 67.2995 11.0847C65.985 11.092 64.9708 10.623 64.9508 9.29036C64.93 7.93685 65.946 7.44335 67.2614 7.47873C68.9397 7.52409 70.6198 7.48962 72.2799 7.48962V3.7566H16.7564V7.48871H19.0325C31.9461 7.48871 44.8597 7.48871 57.7724 7.48962C58.3648 7.48962 59.0869 7.29458 59.5205 7.56128C60.1583 7.95409 60.9983 8.68346 60.9956 9.26496C60.9929 9.86369 60.171 10.6003 59.535 11.0031C59.1096 11.2725 58.3811 11.0711 57.7878 11.0711C40.5261 11.072 23.2644 11.0711 6.00186 11.0711H3.7439V29.5512H85.2815V11.0711ZM68.5206 33.3531H20.4803V40.7094H68.5206V33.3531ZM13.2021 33.3132V40.6549H16.506V33.3132H13.2021ZM72.4423 33.3604V40.6676H75.8197V33.3604H72.4423Z" fill="#FF0000"/>
<path d="M44.2696 74.0889C36.1068 74.0889 27.9441 74.0944 19.7804 74.0862C17.0326 74.0835 16.6888 73.7342 16.6779 71.039C16.6706 69.1303 16.6743 67.2207 16.6797 65.312C16.6833 63.8732 17.4118 63.1239 18.8497 63.0758C19.3758 63.0586 19.9029 63.0577 20.4291 63.0577C36.4915 63.0577 52.5538 63.0559 68.6162 63.0577C72.0535 63.0577 72.3112 63.3208 72.313 66.7517C72.313 68.2658 72.3257 69.7798 72.3103 71.2939C72.2867 73.619 71.8585 74.078 69.5479 74.0826C61.1221 74.0989 52.6954 74.0889 44.2696 74.0889ZM68.5645 66.8878H20.4726V70.2906H68.5654V66.8878H68.5645Z" fill="#FF0000"/>
<path d="M29.8436 48.2134C29.4344 48.8267 29.1813 49.3719 28.784 49.7738C25.3059 53.2882 21.7978 56.7717 18.3089 60.2752C17.4017 61.186 16.2414 61.6587 15.4594 60.5338C15.0467 59.9396 15.19 58.3638 15.7053 57.8168C19.1362 54.1709 22.7014 50.6474 26.3192 47.1856C26.8063 46.7193 27.8723 46.6078 28.6016 46.7338C29.0607 46.8128 29.3909 47.6401 29.8436 48.2144V48.2134Z" fill="#FF0000"/>
<path d="M74.2605 48.0631C73.9067 48.7434 73.7471 49.354 73.3633 49.7431C69.848 53.3092 66.3046 56.8463 62.7458 60.3679C61.8395 61.2642 60.789 61.5482 59.8192 60.4768C58.8839 59.4444 59.4219 58.5454 60.2411 57.7272C63.7382 54.2346 67.2009 50.7066 70.7652 47.2829C71.2659 46.8012 72.2765 46.6279 73.0141 46.6987C73.4513 46.7413 73.8142 47.5423 74.2623 48.0612L74.2605 48.0631Z" fill="#FF0000"/>
<path d="M38.8701 61.3324C38.3167 60.8852 37.4259 60.515 37.3515 60.0224C37.2435 59.3058 37.5012 58.2906 37.9929 57.769C40.5638 55.0393 43.2563 52.424 45.9089 49.7705C46.7934 48.886 47.6697 47.9942 48.5732 47.1288C49.465 46.2751 50.6098 46.0438 51.2793 47.1007C51.6558 47.694 51.5687 49.1273 51.0997 49.6235C47.6171 53.303 43.9938 56.8492 40.3905 60.4125C40.0367 60.7618 39.5205 60.9469 38.8701 61.3324Z" fill="#FF0000"/>
<path d="M52.0876 14.6991C51.7193 15.3359 51.5251 15.9092 51.1423 16.2975C47.627 19.8563 44.0772 23.3798 40.5438 26.9205C39.6248 27.8413 38.6052 28.1642 37.6381 27.1346C36.7618 26.2011 37.0512 25.244 37.9266 24.375C41.4755 20.8506 44.9726 17.2718 48.5786 13.8073C49.0794 13.3265 50.1109 13.1659 50.8493 13.2539C51.2875 13.3056 51.6322 14.1348 52.0876 14.6991Z" fill="#FF0000"/>
<path d="M29.9136 14.8223C29.3739 15.5698 29.0282 16.2048 28.5402 16.6992C25.2145 20.0675 21.8579 23.405 18.5141 26.7561C17.5942 27.6778 16.5401 28.2974 15.4542 27.1807C14.3783 26.0739 15.0088 25.0552 15.9423 24.1299C19.3977 20.7053 22.7996 17.2254 26.3094 13.8579C26.8165 13.3717 27.8425 13.1304 28.5492 13.2483C29.0491 13.3318 29.4165 14.2126 29.9127 14.8232L29.9136 14.8223Z" fill="#FF0000"/>
<path d="M74.3441 14.8048C73.8968 15.4761 73.6483 16.0149 73.2564 16.4123C69.79 19.9176 66.2947 23.3939 62.8175 26.8883C61.9122 27.7982 60.9034 28.1701 59.901 27.1877C58.9575 26.2633 59.3022 25.2599 60.1395 24.419C63.7111 20.8338 67.2672 17.2315 70.9104 13.7198C71.3731 13.2735 72.3837 13.0712 73.0205 13.2326C73.5376 13.3633 73.8732 14.2088 74.3441 14.8057V14.8048Z" fill="#FF0000"/>
</svg>
