<svg width="95" height="89" viewBox="0 0 95 89" fill="none" xmlns="http://www.w3.org/2000/svg">
<path d="M14.083 0C15.3734 0.264208 15.9237 1.09903 16.2579 2.36424C18.3064 10.1243 20.4471 17.859 22.5175 25.6132C22.7123 26.3429 22.9923 26.5863 23.7382 26.5688C25.8195 26.5181 27.9028 26.5512 30.0351 26.5512C30.2997 23.556 30.8487 20.7121 32.0113 18.0349C36.1457 8.51371 43.2923 2.78164 53.543 1.37427C68.2505 -0.644614 81.6703 9.62767 83.9343 24.4058C84.1532 25.8361 84.9913 26.5512 86.4485 26.5512C88.5705 26.5512 90.6925 26.5344 92.8145 26.5577C94.6804 26.5785 95.4404 27.6925 94.7469 29.451C90.5596 40.0648 86.3505 50.6707 82.1542 61.2812C81.7607 62.2757 81.0529 62.7301 79.998 62.7262C77.2334 62.7146 74.4682 62.7236 71.7029 62.7236C59.1645 62.7236 46.6253 62.7236 34.0869 62.7236C33.674 62.7236 33.2604 62.7236 32.7862 62.7236C32.812 63.0339 32.7985 63.2598 32.8539 63.4676C33.4398 65.6799 34.0604 67.8832 34.614 70.1033C34.7592 70.6862 34.9934 70.94 35.585 70.8576C35.8056 70.8264 36.0347 70.8524 36.2592 70.8524C54.8424 70.8524 73.4255 70.8524 92.0081 70.8524C92.3294 70.8524 92.652 70.8388 92.9726 70.8576C94.1062 70.9245 94.8598 71.6288 94.8907 72.6356C94.923 73.6912 94.1933 74.5182 93.0836 74.6604C92.7984 74.6967 92.5062 74.6811 92.2165 74.6818C91.2216 74.6837 90.2274 74.6824 89.128 74.6824C91.6674 80.0062 90.8706 84.4964 85.8543 87.7331C82.6955 89.7715 78.5212 89.2723 75.6198 86.7944C73.863 85.2936 72.7681 83.3903 72.4313 81.0948C72.1023 78.8533 72.5655 76.7422 73.8204 74.7389H52.4926C53.9443 77.2148 54.4333 79.7485 53.5901 82.436C52.9726 84.4049 51.8223 86.0064 50.1558 87.2268C46.8995 89.6111 42.491 89.5177 39.3154 86.9905C35.6527 84.0751 34.9385 80.064 37.1902 74.6831C36.0373 74.6831 34.9276 74.6896 33.8185 74.6818C32.2862 74.6708 31.6842 74.1988 31.281 72.7129C25.166 50.1605 19.0496 27.6087 12.932 5.05759C12.8494 4.75249 12.743 4.45453 12.6301 4.09684C9.26352 4.09684 5.92277 4.06178 2.58395 4.11566C1.40521 4.13514 0.533565 3.79823 0 2.71738V1.55279C0.361302 0.680318 1.0639 0.238241 1.92909 0H14.083ZM31.4745 58.7488C31.8333 58.7488 32.1197 58.7488 32.4062 58.7488C47.5131 58.7488 62.62 58.743 77.727 58.767C78.4709 58.7683 78.7728 58.4976 79.0322 57.8374C82.5123 48.9926 86.0208 40.1589 89.519 31.3212C89.6325 31.0337 89.7099 30.7312 89.8357 30.3352C87.9912 30.3352 86.2601 30.3118 84.5317 30.3657C84.3259 30.3722 84.0123 30.7734 83.9575 31.0356C83.8052 31.7588 83.8033 32.5125 83.6723 33.2415C80.9935 48.1202 66.8531 58.1185 52.3991 55.2908C42.7968 53.4121 35.9953 47.8521 32.041 38.8346C30.87 36.164 30.2984 33.3252 30.0422 30.391H23.7898C26.3654 39.8947 28.9145 49.301 31.4752 58.7495L31.4745 58.7488ZM81.0858 74.8876C78.2863 74.8726 75.9798 77.1492 75.9534 79.9523C75.9269 82.7813 78.2728 85.1793 81.0632 85.1754C83.8568 85.1715 86.135 82.8755 86.1537 80.0451C86.1718 77.2739 83.8414 74.9019 81.0864 74.8869L81.0858 74.8876ZM44.7279 74.8882C41.9587 74.8791 39.6058 77.183 39.5574 79.9504C39.5103 82.6937 41.9613 85.1826 44.7021 85.1748C47.4312 85.167 49.7854 82.7846 49.7906 80.025C49.7958 77.2343 47.4918 74.8973 44.7272 74.8882H44.7279ZM55.1275 30.4131H46.1853C46.3931 32.4209 46.5905 34.3307 46.7873 36.236H55.1269V30.4131H55.1275ZM67.8815 26.2974C67.6808 24.433 67.5105 22.6459 67.2647 20.8698C67.2376 20.6763 66.7763 20.4186 66.5073 20.4069C65.3201 20.3563 64.1298 20.3849 62.9407 20.3849C61.6336 20.3849 60.3264 20.3849 59.0322 20.3849V26.2974H67.8815ZM55.1127 40.3751H47.8718C49.2912 44.6907 50.8119 48.7674 55.1127 51.205V40.3751ZM55.1217 5.6347C52.1797 6.61557 47.9938 13.0286 48.0944 16.3198H55.1217V5.63534V5.6347ZM46.206 26.2695H54.8888V20.4316H46.8537C46.6376 22.3797 46.4253 24.2915 46.206 26.2695ZM68.0428 30.3897H59.409V36.2464H67.4357C67.6363 34.3113 67.8344 32.4008 68.0434 30.3897H68.0428ZM59.2109 40.3569V51.1926C63.4872 48.7077 65.0098 44.64 66.4015 40.3569H59.2109ZM66.4208 16.3458C64.9846 12.0244 63.4846 7.93856 59.2348 5.5172V16.3465H66.4208V16.3458ZM33.8675 26.2968H42.2775C42.4581 24.3259 42.633 22.4077 42.8181 20.3901C40.44 20.3901 38.1006 20.3823 35.7618 20.4063C35.5998 20.4082 35.3379 20.6173 35.2947 20.7776C34.8114 22.566 34.3624 24.3636 33.8682 26.2968H33.8675ZM71.2732 36.2944C73.603 36.2944 75.9095 36.3029 78.216 36.2789C78.4096 36.2769 78.7038 36.0945 78.7767 35.9218C79.5199 34.1672 79.8696 32.3242 79.9799 30.3865H71.8752C71.6745 32.3547 71.4797 34.2691 71.2732 36.2944ZM80.1941 26.3026C79.7419 24.4499 79.3412 22.7361 78.8896 21.0353C78.8238 20.7867 78.518 20.4206 78.318 20.4167C75.9592 20.3732 73.5991 20.3888 71.2848 20.3888C71.4881 22.418 71.6797 24.3331 71.8771 26.3026H80.1941ZM42.7943 36.2912C42.5891 34.2847 42.3923 32.3677 42.1917 30.4027H33.9249C34.4166 32.3554 34.8701 34.1853 35.3534 36.0069C35.3863 36.1322 35.6405 36.2776 35.7934 36.2789C38.1296 36.2964 40.4664 36.2906 42.7949 36.2906L42.7943 36.2912ZM76.8573 16.3835C74.3365 12.1821 71.0919 9.20702 67.006 7.34847C68.0841 10.1944 69.1435 13.0189 70.239 15.8291C70.33 16.0628 70.6603 16.3542 70.8848 16.3594C72.8062 16.4016 74.7282 16.3835 76.8573 16.3835ZM47.3409 49.3283C45.7898 46.6738 44.7156 43.8559 43.8485 40.9457C43.7756 40.7009 43.4917 40.342 43.2988 40.3374C41.3555 40.292 39.4103 40.3101 37.2373 40.3101C39.8142 44.4433 43.1401 47.3684 47.3402 49.3283H47.3409ZM76.8456 40.3082C74.7024 40.3082 72.7533 40.2868 70.8055 40.34C70.599 40.3458 70.3274 40.7607 70.2177 41.0379C69.3667 43.1853 68.5667 45.3528 67.706 47.4963C67.4634 48.1007 67.0712 48.6447 66.7473 49.216C71.0074 47.3568 74.3449 44.4946 76.845 40.3082H76.8456ZM37.3399 16.0024C37.5302 16.0985 37.5851 16.1491 37.6399 16.1498C38.8283 16.1608 40.0174 16.1764 41.2058 16.1686C42.0058 16.1634 42.9885 16.3958 43.5498 16.0154C44.0446 15.6804 44.0207 14.6223 44.3091 13.918C45.2421 11.642 46.2131 9.38164 47.1628 7.13036C43.1439 9.10704 39.84 12.027 37.3392 16.0024H37.3399Z" fill="#FF0000"/>
</svg>
