<svg width="80" height="79" viewBox="0 0 80 79" fill="none" xmlns="http://www.w3.org/2000/svg">
<g clip-path="url(#clip0_145_69)">
<path d="M71.7016 26.9497C72.5052 30.4101 73.5266 33.4594 73.8821 36.5845C75.2806 48.8607 71.6205 59.5587 62.5132 67.9616C51.8287 77.8202 39.124 80.6682 25.326 76.0712C11.528 71.4751 3.04239 61.6267 0.560846 47.3151C-2.81981 27.8268 9.3968 9.85659 28.7416 5.24928C29.763 5.00599 30.0301 4.58379 29.9798 3.63821C29.915 2.42786 29.9644 1.2124 29.9644 0C33.2423 3.36527 36.4657 6.67431 39.6768 9.97108C36.6979 12.8784 33.3543 16.1404 29.9644 19.4484V14.1398C28.309 14.7511 26.8776 15.1805 25.5294 15.7918C14.2726 20.901 8.00755 32.1786 9.16252 43.6053C10.4429 56.2793 19.3137 66.0173 31.3629 68.4492C47.2777 71.6611 62.3735 61.1943 64.8478 45.198C65.4675 41.1938 65.1479 37.2234 63.9775 33.345C63.7258 32.5098 63.8706 32.0804 64.592 31.6235C66.8187 30.2097 69.0043 28.7315 71.7016 26.9497Z" fill="#FF0000"/>
<path d="M36.4073 44.3015C49.1418 32.5353 63.1485 23.1275 79.8288 17.5439C80.1699 19.2092 79.4291 19.8471 78.4498 20.4216C74.3457 22.829 70.1739 25.1352 66.1808 27.7154C56.9811 33.6608 48.5551 40.5038 42.0014 49.3831C40.8587 50.9318 39.8435 52.5787 38.8406 54.2235C37.5829 56.2864 35.7569 56.4581 34.3615 54.5414C29.5988 47.998 24.8514 41.4433 20.1072 34.8865C19.2081 33.6445 19.2944 32.2818 20.2788 31.4752C21.3958 30.5593 22.5569 30.7351 23.7694 31.9271C28.0297 36.1163 32.3043 40.2891 36.4063 44.3035L36.4073 44.3015Z" fill="#FF0000"/>
<path d="M67.2295 19.9064C64.5784 21.3345 62.0146 22.7155 59.3348 24.159C54.9194 18.7175 49.3038 15.1662 41.8098 13.6941C43.4354 12.403 44.7784 11.3378 46.291 10.1367C44.1752 8.12081 42.4818 6.50769 40.7227 4.83119C47.3134 3.31212 63.0103 12.2732 67.2295 19.9054V19.9064Z" fill="#FF0000"/>
</g>
<defs>
<clipPath id="clip0_145_69">
<rect width="79.913" height="78.2128" fill="white"/>
</clipPath>
</defs>
</svg>
