<svg width="81" height="81" viewBox="0 0 81 81" fill="none" xmlns="http://www.w3.org/2000/svg">
<mask id="mask0_226_21" style="mask-type:alpha" maskUnits="userSpaceOnUse" x="0" y="0" width="81" height="81">
<rect x="0.797852" y="0.5" width="80" height="80" fill="#D9D9D9"/>
</mask>
<g mask="url(#mask0_226_21)">
</g>
<g clip-path="url(#clip0_226_21)">
<path d="M18.0208 10.5H22.8653C29.0235 12.2528 34.695 14.9885 39.571 19.1626C42.54 21.7043 45.2986 24.492 47.9095 26.9434C51.4458 25.7704 55.0177 24.2774 58.7358 23.4256C64.5126 22.1021 69.0605 24.9829 70.8745 30.6171C71.1615 31.5072 71.4882 32.3849 71.7958 33.2681V41.9882C71.6222 42.5898 71.3953 43.1831 71.2818 43.7957C70.0939 50.171 68.3579 56.3795 64.5153 61.7061C59.9866 67.9857 53.7054 71.1945 45.9615 70.3728C38.3981 69.5703 33.3745 65.1323 30.6871 58.0023C30.4438 57.3556 29.6236 56.6693 28.9415 56.4834C22.5796 54.7538 17.9032 50.9899 14.9643 45.1095C11.5687 38.3131 9.64132 31.1421 9.80672 23.4967C9.93521 17.5398 11.715 12.5768 18.0208 10.5ZM12.5106 22.8486C12.326 31.2078 14.0539 39.0733 18.517 46.1486C19.6119 47.885 21.1306 49.4737 22.7614 50.7301C27.528 54.4038 32.8319 55.3062 38.6469 53.3648C38.4938 52.9765 38.4801 52.7878 38.3776 52.7044C31.8435 47.3313 27.3025 40.3735 23.0143 33.2367C22.6411 32.6146 22.9583 31.5783 22.9555 30.7333C23.6896 31.1626 24.6601 31.4224 25.1126 32.0541C26.5657 34.0816 27.6347 36.4059 29.2026 38.3282C32.6063 42.4982 36.1973 46.5178 39.7774 50.5415C40.9448 51.854 42.0985 51.6858 43.4381 50.4143C49.2614 44.8881 50.2415 35.5746 45.1824 28.5144C39.9086 21.1506 32.6979 16.2354 24.0231 13.5954C22.4607 13.1196 20.726 13.2057 18.8519 13.0102C23.5775 18.6267 27.9545 23.7852 32.2755 28.9901C33.5099 30.4777 34.6759 32.0404 35.6888 33.6824C36.0634 34.2881 35.9062 35.2219 35.9909 36.0067C35.2063 35.6799 34.3765 35.427 33.6534 34.9977C33.2734 34.7721 33.1039 34.2156 32.7936 33.8451C28.0283 28.1616 23.2754 22.4672 18.461 16.8261C17.7242 15.962 16.6921 15.3481 15.1912 14.1258C15.0408 16.3913 14.695 17.9718 14.8768 19.488C15.8473 27.5518 19.0597 34.8117 23.1305 41.7448C23.6595 42.6445 24.8638 43.7259 23.3752 44.5572C22.9815 44.7773 21.4464 43.7396 21.009 42.9589C19.2442 39.8007 17.5273 36.5918 16.1317 33.2599C14.7155 29.8761 13.7012 26.3255 12.5092 22.8473L12.5106 22.8486ZM49.8218 31.8709C52.9727 30.706 55.7681 29.4167 58.6989 28.6483C63.229 27.4602 65.9342 29.4359 66.3894 34.0748C66.6 36.2295 66.5521 38.4266 66.399 40.5896C66.3512 41.265 65.5802 41.8884 65.14 42.5365C64.771 41.8679 64.1463 41.2253 64.0765 40.528C63.8401 38.134 63.9016 35.7113 63.6528 33.3201C63.43 31.1777 61.8798 30.3464 59.9975 30.9302C56.7496 31.9392 53.6001 33.264 50.6612 34.3605C51.7506 45.1424 47.9614 52.4269 38.3749 56.2906C41.4519 63.0719 48.7912 64.8329 55.056 60.4715C58.0441 58.3906 59.6107 55.3458 61.0897 52.1739C61.3686 51.5751 62.3104 51.2839 62.9461 50.8518C63.0964 51.5628 63.6145 52.5048 63.337 52.9491C61.4369 55.9898 59.8649 59.4858 57.2622 61.7881C50.2839 67.9584 40.9284 66.0511 36.2766 58.1103C35.8405 57.3666 34.516 57.1424 33.6028 56.6775C33.4306 56.9373 33.2597 57.197 33.0875 57.4568C33.8106 58.7871 34.4121 60.2022 35.2746 61.434C41.3808 70.1582 54.4353 70.1869 61.5791 61.4532C65.4558 56.7131 67.2165 51.0132 68.4413 45.1328C69.4186 40.4364 69.9107 35.7182 68.3797 31.0341C67.2192 27.4821 64.8297 25.6993 61.1649 25.7526C56.6922 25.8168 52.7567 27.5245 48.9374 29.8488C49.2969 30.6704 49.5758 31.3103 49.8205 31.8722L49.8218 31.8709Z" fill="black"/>
<path d="M45.7275 38.3241C45.5252 38.6002 45.0016 39.3167 44.4767 40.0331C44.0612 39.2962 43.3586 38.5879 43.2793 37.8168C42.9157 34.2894 41.2534 31.4634 39.0198 28.8302C38.5345 28.2573 38.5673 27.2456 38.3623 26.4348C39.1592 26.6713 40.2009 26.6659 40.7148 27.184C43.5622 30.0538 45.4322 33.4472 45.7289 38.3227L45.7275 38.3241Z" fill="black"/>
</g>
<defs>
<clipPath id="clip0_226_21">
<rect width="62" height="60" fill="white" transform="translate(9.79785 10.5)"/>
</clipPath>
</defs>
</svg>
