<svg width="81" height="81" viewBox="0 0 81 81" fill="none" xmlns="http://www.w3.org/2000/svg">
<mask id="mask0_226_26" style="mask-type:alpha" maskUnits="userSpaceOnUse" x="0" y="0" width="81" height="81">
<rect x="1.16309" y="1" width="79" height="79" stroke="#D9D9D9"/>
</mask>
<g mask="url(#mask0_226_26)">
</g>
<g clip-path="url(#clip0_226_26)">
<path d="M74.8697 56.0026C74.8697 55.2058 74.864 54.4516 74.8712 53.6974C74.8783 52.8765 75.2617 52.4305 75.9587 52.4121C76.7283 52.3922 77.1203 52.787 77.1388 53.6676C77.163 54.7797 77.1673 55.8932 77.1545 57.0053C77.1459 57.8036 76.7682 58.2439 75.9644 58.3007C75.1648 58.3575 74.3566 58.3134 73.4487 58.3134C73.7224 61.5631 72.6007 64.2276 70.0452 66.216C68.446 67.4617 66.5874 68.0511 64.5436 67.9829C62.0151 67.8991 59.9043 66.8992 58.2367 65.0187C56.572 63.1411 55.8964 60.9069 56.0674 58.3688H44.6538C44.8391 61.5432 43.7986 64.1949 41.293 66.1706C39.7181 67.4119 37.8794 68.0284 35.8741 67.9999C30.9241 67.9318 26.7295 63.6964 27.2298 58.3688H25.8273C26.0639 61.5276 24.9849 64.1552 22.4935 66.145C20.8801 67.4332 19.0073 68.0482 16.9478 67.9872C14.4051 67.9105 12.2729 66.9134 10.5839 64.9988C8.91348 63.1041 8.2778 60.8714 8.46737 58.3021C7.41123 58.3021 6.42209 58.339 5.43722 58.2907C4.53644 58.2467 4.16445 57.822 4.16302 56.9429C4.15874 54.2443 4.16159 51.5457 4.173 48.8485C4.17727 48.0219 4.61911 47.6043 5.46715 47.5958C6.32089 47.5873 7.17606 47.5944 8.14953 47.5944C8.14953 47.1981 8.14953 46.8288 8.14953 46.4596C8.14953 41.6788 8.14525 36.8995 8.15523 32.1187C8.15523 31.5918 8.0184 31.1856 7.62075 30.8035C6.64586 29.8689 5.73368 28.8705 4.77019 27.926C4.18725 27.3536 4.07323 26.7798 4.41957 26.0156C6.25106 21.9706 8.05118 17.9114 9.85131 13.855C10.1421 13.1974 10.6366 12.9687 11.3236 13.0028C13.835 13.1306 16.3463 13.2457 18.8577 13.3692C21.7724 13.5113 24.6871 13.632 27.5989 13.8223C28.1676 13.8592 28.7348 14.1291 29.2736 14.3606C31.0124 15.1048 32.7399 15.8775 34.4673 16.6487C34.9833 16.8788 35.3154 17.2424 35.2512 17.8631C35.1956 18.4085 34.8678 18.7522 34.3718 18.8388C34.0782 18.89 33.7262 18.7749 33.434 18.6513C31.7807 17.954 30.1373 17.231 28.4455 16.4967C25.1873 23.8142 21.942 31.1018 18.6738 38.4405C22.3068 40.0483 25.9114 41.6433 29.6142 43.2809C32.8753 35.9649 36.1164 28.6929 39.3874 21.3514C39.0881 21.198 38.7959 21.0659 38.5208 20.904C37.9265 20.5517 37.7155 20.0049 37.955 19.4822C38.2443 18.8488 38.7759 18.6286 39.48 18.8814C40.7842 19.3501 41.8987 19.931 42.5943 21.3187C43.8628 23.8511 45.355 26.2727 46.7618 28.737C47.0625 29.2639 47.1195 29.761 46.8573 30.3419C45.0443 34.3685 43.2528 38.4064 41.4597 42.4429C41.2118 43.0011 40.8298 43.359 40.2126 43.4798C39.8007 43.5593 39.3988 43.6956 38.9698 43.8135V47.5475H47.5485C47.5485 47.1101 47.5485 46.6698 47.5485 46.2309C47.5428 39.8892 47.5243 33.5475 47.5443 27.2059C47.5471 26.4162 47.607 25.5725 47.8892 24.8496C48.485 23.3227 49.809 22.7674 51.3654 22.7546C54.2388 22.7319 57.1136 22.7191 59.987 22.7631C63.7554 22.8214 66.881 25.2373 67.7761 28.7455C67.9258 29.3321 68.0156 29.9513 68.0213 30.5564C68.0484 33.3487 68.0355 36.1424 68.0369 38.9348C68.0369 39.1649 68.0369 39.3949 68.0369 39.7827C69.4138 39.7827 70.7151 39.7628 72.0149 39.787C74.3025 39.8281 76.7696 42.0055 77.0005 44.2751C77.1445 45.6826 77.1388 47.1072 77.1502 48.5247C77.1573 49.3101 76.6841 49.7575 75.9857 49.7504C75.2774 49.7433 74.8954 49.3059 74.8697 48.4906C74.8284 47.1697 74.8826 45.836 74.7044 44.5336C74.5177 43.163 73.1266 42.0864 71.7356 42.0538C70.3359 42.0211 68.9349 42.0211 67.5338 42.0254C66.1199 42.0296 65.7479 41.6831 65.7465 40.2869C65.7437 37.1622 65.7465 34.0375 65.7437 30.9129C65.7408 28.0893 64.0932 25.9304 61.3538 25.2132C60.8322 25.0768 60.2749 25.0328 59.7333 25.03C56.9782 25.0129 54.2246 25.0172 51.4695 25.0271C50.2224 25.0314 49.8105 25.4504 49.8133 26.7073C49.8219 31.4384 49.8475 36.1708 49.8518 40.9019C49.8547 43.386 49.8304 45.8715 49.8105 48.3557C49.8005 49.5402 49.4684 49.8598 48.2797 49.8598C34.6455 49.8598 21.0098 49.8598 7.3756 49.8598C7.09482 49.8598 6.81547 49.8598 6.49193 49.8598V56.0111C7.27441 56.0111 8.0298 56.0367 8.7795 55.9912C8.95054 55.9813 9.16718 55.7555 9.25982 55.5765C10.5625 53.0569 12.5479 51.4136 15.3543 50.8029C19.0586 49.9975 23.1449 51.8056 24.8695 55.3507C25.1047 55.8336 25.3783 56.0111 25.9399 56.0481C27.1628 56.1276 27.9011 55.8847 28.665 54.6689C32.2824 48.9181 40.529 49.357 43.7003 55.3777C43.9768 55.9018 44.2918 56.0736 44.8548 56.0694C48.6289 56.0395 52.4045 56.0196 56.1786 56.0381C56.7715 56.041 56.8656 55.649 57.0594 55.291C58.3194 52.9532 60.2307 51.4519 62.8318 50.8526C66.482 50.0103 70.2447 51.5727 72.1646 54.7115C72.7432 55.6575 73.6435 56.0869 74.8655 55.9998L74.8697 56.0026ZM26.215 15.8974C25.0448 15.8974 24.03 15.9371 23.0195 15.8903C19.4677 15.7255 15.9173 15.5395 12.3669 15.3406C11.8681 15.3122 11.6286 15.4628 11.422 15.9357C9.97674 19.245 8.5087 22.5444 7.00218 25.8267C6.74563 26.3849 6.77556 26.7244 7.20884 27.1633C9.76722 29.761 12.2957 32.3871 14.8384 34.9991C15.474 35.651 16.1282 36.2859 16.8252 36.9804C19.9437 29.9783 23.028 23.0529 26.215 15.8974ZM32.2268 43.038C32.4078 43.038 32.5275 43.0608 32.6358 43.0352C34.7638 42.5111 36.8932 41.9969 39.0111 41.4345C39.2719 41.3649 39.5542 41.078 39.671 40.8209C41.2958 37.2347 42.8964 33.637 44.487 30.0365C44.5669 29.8547 44.5811 29.565 44.4899 29.4002C43.3668 27.382 42.2194 25.3779 41.0293 23.2858C38.079 29.9073 35.1671 36.4407 32.2268 43.038ZM32.9466 45.3048C32.5589 45.3957 32.2311 45.4469 31.9218 45.5506C30.726 45.9497 29.6328 45.846 28.4526 45.2949C24.8552 43.6133 21.1937 42.068 17.5763 40.4275C16.9478 40.1434 16.3691 39.706 15.846 39.2501C15.2403 38.7203 14.7229 38.0911 14.0573 37.3895V47.5532H32.9466V45.3048ZM23.5582 59.3957C23.5896 55.8151 20.8502 52.9262 17.1801 52.9035C13.5798 52.8808 10.6808 55.6376 10.725 59.5264C10.7635 62.8528 13.7081 65.699 17.1459 65.7005C20.6435 65.7019 23.5782 62.8172 23.5597 59.3943L23.5582 59.3957ZM42.3734 59.2352C42.3334 55.6703 39.5185 52.8822 35.991 52.8921C32.271 52.9021 29.6199 55.764 29.5501 59.1159C29.4717 62.8826 32.3152 65.726 36.0323 65.7019C39.6482 65.6777 42.409 62.7306 42.3748 59.2352H42.3734ZM64.7902 65.6877C68.3177 65.6834 71.1441 62.8698 71.1882 59.3758C71.2324 55.8393 68.4916 52.9063 64.8101 52.9063C61.2056 52.9063 58.3978 55.5609 58.3522 59.3971C58.3108 62.8428 61.284 65.6919 64.7916 65.6877H64.7902ZM10.4713 33.8841V47.5504H11.7327C11.7327 47.2734 11.7327 47.0405 11.7327 46.8075C11.7327 43.359 11.6828 39.9077 11.7569 36.4606C11.7811 35.3329 11.5103 34.4935 10.4699 33.8841H10.4713ZM36.6452 44.3831C36.3173 44.4598 36.0109 44.4896 35.7444 44.6103C35.552 44.697 35.2812 44.8944 35.2712 45.0563C35.2227 45.8758 35.2484 46.6982 35.2484 47.5461H36.6452V44.3845V44.3831Z" fill="black"/>
<path d="M51.2103 34.1157C51.2103 32.0094 51.2075 29.9031 51.2103 27.7953C51.2118 26.8139 51.6037 26.4304 52.5886 26.429C54.9631 26.429 57.3419 26.5057 59.7136 26.4049C61.9128 26.3111 64.3756 27.8209 64.4255 30.9001C64.4783 34.0703 64.4512 37.2418 64.4227 40.4134C64.4127 41.6405 63.9823 42.0183 62.7679 42.0197C59.658 42.0226 56.5466 42.0197 53.4366 42.0197C53.3183 42.0197 53.1986 42.0197 53.0803 42.0155C51.4298 41.9516 51.2061 41.72 51.2061 40.0796C51.2061 38.0912 51.2061 36.1027 51.2061 34.1143H51.2103V34.1157ZM53.5335 28.7015V39.6805C53.6461 39.7075 53.7131 39.7359 53.7801 39.7359C56.4155 39.7401 59.0508 39.733 61.6861 39.7487C62.1565 39.7515 62.1593 39.4802 62.1579 39.1507C62.1522 37.4946 62.1593 35.8386 62.1451 34.1825C62.1337 32.907 62.1522 31.6259 62.0496 30.3562C61.9755 29.45 61.1474 28.7185 60.2794 28.7086C58.0488 28.683 55.8183 28.7001 53.5335 28.7001V28.7015Z" fill="black"/>
<path d="M54.1453 45.3177C53.5752 45.3177 53.005 45.3362 52.4364 45.3134C51.6924 45.2836 51.1892 44.778 51.2106 44.1246C51.232 43.4869 51.7152 43.0608 52.4649 43.0537C53.6051 43.0438 54.7439 43.0438 55.8841 43.0537C56.6196 43.0608 57.0885 43.4997 57.1013 44.1545C57.1141 44.805 56.6538 45.268 55.9254 45.3134C55.6176 45.3333 55.3083 45.3191 54.999 45.3191C54.714 45.3191 54.4289 45.3191 54.1438 45.3191V45.3163L54.1453 45.3177Z" fill="black"/>
<path d="M17.0844 54.2756C19.992 54.2728 22.2382 56.5055 22.2154 59.3759C22.1941 62.1015 19.9008 64.3754 17.16 64.3527C14.4947 64.3314 12.0831 62.387 12.0674 59.2637C12.0518 56.0751 14.8097 54.1591 17.0844 54.2742V54.2756ZM17.1486 56.5438C15.5779 56.5382 14.3094 57.788 14.3351 59.3177C14.3607 60.8687 15.6093 62.0901 17.1657 62.0873C18.6608 62.0845 19.9022 60.8786 19.9222 59.41C19.9464 57.7809 18.7534 56.5495 17.1486 56.5438Z" fill="black"/>
<path d="M35.8789 64.3512C33.1894 64.3541 30.8804 62.1043 30.8818 59.3858C30.8818 56.3464 33.3062 54.2358 35.9957 54.2543C38.6838 54.2713 41.0526 56.3847 41.0313 59.2495C41.007 62.3571 38.6724 64.3441 35.8803 64.3512H35.8789ZM35.9872 56.5381C34.3738 56.5438 33.1423 57.7823 33.168 59.3731C33.1908 60.8289 34.4579 62.0958 35.9031 62.0802C37.5336 62.0617 38.6881 60.9709 38.7608 59.2609C38.8249 57.771 37.5037 56.531 35.9858 56.5367L35.9872 56.5381Z" fill="black"/>
<path d="M64.8448 54.2728C67.6256 54.2742 69.8732 56.5381 69.8775 59.3418C69.8818 62.0802 67.5187 64.364 64.6909 64.3555C62.0171 64.347 59.8036 62.0915 59.7352 59.4398C59.6554 56.3563 62.2323 54.1435 64.8463 54.2742L64.8448 54.2728ZM64.8277 56.541C63.22 56.5339 62.0427 57.6815 62.0299 59.268C62.0171 60.8488 63.1986 62.0717 64.7465 62.083C66.2958 62.0944 67.5914 60.8516 67.5942 59.3489C67.5971 57.8107 66.3514 56.5452 64.8277 56.5396V56.541Z" fill="black"/>
</g>
<defs>
<clipPath id="clip0_226_26">
<rect width="73" height="55" fill="white" transform="translate(4.16309 13)"/>
</clipPath>
</defs>
</svg>
