<svg width="81" height="81" viewBox="0 0 81 81" fill="none" xmlns="http://www.w3.org/2000/svg">
<mask id="mask0_226_28" style="mask-type:alpha" maskUnits="userSpaceOnUse" x="0" y="0" width="81" height="81">
<rect x="1.0957" y="1" width="79" height="79" stroke="#D9D9D9"/>
</mask>
<g mask="url(#mask0_226_28)">
</g>
<g clip-path="url(#clip0_226_28)">
<path d="M19.8217 13C31.0141 13 42.2077 13 53.4001 13C54.2936 13.4672 54.9628 14.0999 54.9763 15.1887C54.9862 15.9832 54.9899 16.779 54.9751 17.5735C54.9615 18.281 54.7101 18.9051 54.1198 19.3196C53.8068 19.539 53.7316 19.7794 53.7328 20.1325C53.7439 23.6797 53.739 27.227 53.7402 30.773C53.7402 30.9667 53.7575 31.1604 53.7674 31.3579C53.9892 31.3677 54.1321 31.3787 54.2739 31.3799C55.8722 31.3812 57.4706 31.3763 59.069 31.3824C59.8824 31.3861 60.2965 31.7245 60.2854 32.3523C60.2755 32.9518 59.8651 33.2731 59.0937 33.2841C58.9507 33.2866 58.8065 33.2841 58.6636 33.2841C51.2656 33.2841 43.8665 33.2841 36.4686 33.2841H35.7402C35.7193 33.4399 35.7008 33.5171 35.7008 33.5944C35.6983 37.1207 35.6885 40.6471 35.7045 44.1735C35.7094 45.2562 36.3355 45.8301 37.4668 45.835C40.1102 45.8448 42.7537 45.8423 45.3983 45.8362C46.6997 45.8337 47.2506 45.2685 47.2518 43.9577C47.2543 41.4907 47.2518 39.025 47.2518 36.5579C47.2518 35.4887 47.5032 35.2411 48.5939 35.2398C52.9183 35.2398 57.2426 35.2398 61.567 35.2398C64.0268 35.2398 66.4854 35.2435 68.9452 35.2374C69.75 35.2349 70.2368 34.8377 70.2232 34.2283C70.2096 33.6262 69.766 33.2854 68.9699 33.2841C67.3099 33.2805 65.6499 33.2866 63.9899 33.2817C63.2406 33.2792 62.7883 32.9335 62.7649 32.3633C62.7415 31.7772 63.2184 31.3836 63.9886 31.3812C65.6893 31.375 67.3912 31.375 69.0919 31.3812C69.9693 31.3848 70.7617 31.6497 71.336 32.3302C71.6417 32.6931 71.845 33.1407 72.0952 33.5502V34.8965C71.463 36.5861 70.2158 37.144 68.4498 37.1183C63.7989 37.0496 59.1454 37.095 54.4932 37.095H53.7895C53.7649 37.2372 53.7452 37.2961 53.7452 37.3549C53.7427 45.244 53.739 53.1342 53.7513 61.0232C53.7513 61.2047 53.8857 61.4414 54.0335 61.5554C54.6239 62.0127 54.9455 62.6037 54.9702 63.3333C54.9973 64.1683 55.0022 65.0058 54.9702 65.8408C54.9282 66.9468 54.174 67.87 53.1056 67.9277C51.4505 68.0172 49.7893 67.9927 48.1305 67.9669C47.5587 67.9583 47.2235 67.5095 47.2567 66.9884C47.29 66.4575 47.6807 66.1154 48.3117 66.1105C49.7055 66.0995 51.0993 66.0946 52.4931 66.1142C52.9183 66.1203 53.0883 65.9781 53.0711 65.5502C53.0489 65.0009 53.0661 64.4491 53.0661 63.8985C53.0661 63.3214 52.77 63.0329 52.1776 63.0329C38.7534 63.0329 25.3292 63.0329 11.905 63.0329C11.7817 63.0329 11.6585 63.0402 11.5365 63.0329C11.1409 63.0059 10.977 63.1996 10.9819 63.5798C10.9893 64.1303 10.9819 64.6808 10.9819 65.2314C10.9819 65.815 11.2756 66.1068 11.8631 66.1068C22.3358 66.1068 32.8097 66.1068 43.2824 66.1068C43.4869 66.1068 43.694 66.0921 43.8973 66.1154C44.4149 66.1743 44.7945 66.5691 44.7747 67.0485C44.7526 67.5623 44.4667 67.8798 43.954 67.9632C43.7334 67.9988 43.5054 67.9963 43.2799 67.9963C32.7863 67.9976 22.2926 67.9976 11.799 67.9963C11.534 67.9963 11.2654 67.9877 11.0029 67.951C9.88758 67.7916 9.1383 66.9382 9.12597 65.8126C9.11735 64.9972 9.1309 64.1818 9.12228 63.3664C9.11488 62.6381 9.40079 62.0409 9.9874 61.6351C10.3078 61.4132 10.3633 61.1716 10.362 60.8246C10.351 57.9701 10.3559 55.1169 10.3559 52.2624C10.3559 41.5802 10.3559 30.8981 10.3583 20.2146C10.3583 19.8615 10.346 19.5783 9.98494 19.3355C9.37245 18.9284 9.10379 18.297 9.12105 17.5478C9.1346 16.9568 9.17034 16.3609 9.11365 15.7748C8.98672 14.4554 9.49569 13.5309 10.7207 13H16.2552C16.6274 13.3298 16.9873 13.6609 16.7667 14.2396C16.5485 14.8122 16.079 14.8564 15.5614 14.8515C14.2502 14.8417 12.9389 14.8601 11.6277 14.8429C11.1508 14.8368 10.956 15.0182 10.977 15.4928C11.0004 16.0016 10.9819 16.5117 10.9819 17.0205C10.9819 17.6181 11.288 17.9168 11.9 17.9168C25.3193 17.9168 38.7386 17.9168 52.1579 17.9168C52.3008 17.9168 52.445 17.9083 52.588 17.9168C52.9256 17.9389 53.0735 17.7918 53.0674 17.4521C53.0563 16.882 53.0661 16.3106 53.0661 15.7404C53.0661 15.1453 52.7572 14.8478 52.1394 14.8478C41.6914 14.8478 31.2421 14.8478 20.7941 14.8478C20.5685 14.8478 20.3405 14.8625 20.1187 14.8319C19.5937 14.7595 19.2721 14.4285 19.3411 13.9208C19.383 13.5984 19.6541 13.3065 19.8217 13ZM49.1152 37.1269C49.1152 37.4113 49.1152 37.632 49.1152 37.854C49.1127 40.0353 49.1373 42.2166 49.1004 44.3967C49.0696 46.2482 47.6265 47.7024 45.7804 47.7245C42.9114 47.7576 40.0424 47.7576 37.1735 47.7245C35.3052 47.7024 33.8523 46.1991 33.8461 44.3366C33.8338 40.4031 33.8325 36.4684 33.8572 32.535C33.8596 32.2039 34.0248 31.8299 34.2232 31.5516C34.6299 30.9827 35.1105 30.4664 35.6256 29.8509H12.2698V51.1246H51.7894V37.1269H49.1152ZM12.2599 61.1471H51.7721V53.0766H12.2599V61.1471ZM12.2574 27.9345H13.0597C20.417 27.9345 27.7754 27.894 35.1315 27.9676C36.6165 27.9823 37.6972 27.7076 38.5796 26.4189C39.7233 24.7477 43.2318 24.7428 44.3028 26.3552C45.2763 27.8192 46.521 28.0791 48.0985 27.9541C49.3136 27.8572 50.5435 27.9345 51.7906 27.9345V19.8725H12.2574V27.9345ZM46.07 31.3407C45.9591 31.1813 45.8999 31.082 45.826 30.9937C44.9325 29.9331 44.044 28.8676 43.1382 27.8167C42.2237 26.7561 40.6907 26.7831 39.7763 27.8621C38.9321 28.859 38.0904 29.8571 37.2499 30.8551C37.1304 30.9961 37.0244 31.1482 36.8765 31.3407H46.07ZM47.3307 29.8497C47.6277 30.209 47.8384 30.4812 48.0689 30.735C48.2698 30.9569 48.4842 31.3248 48.7109 31.3382C49.7363 31.4032 50.769 31.3664 51.7956 31.3664V29.8485H47.3307V29.8497Z" fill="black"/>
</g>
<defs>
<clipPath id="clip0_226_28">
<rect width="63" height="55" fill="white" transform="translate(9.0957 13)"/>
</clipPath>
</defs>
</svg>
