<svg width="81" height="81" viewBox="0 0 81 81" fill="none" xmlns="http://www.w3.org/2000/svg">
<mask id="mask0_226_29" style="mask-type:alpha" maskUnits="userSpaceOnUse" x="0" y="0" width="81" height="81">
<rect x="0.52832" y="0.5" width="80" height="80" fill="#D9D9D9"/>
</mask>
<g mask="url(#mask0_226_29)">
</g>
<g clip-path="url(#clip0_226_29)">
<path d="M10.9588 30.3067C10.8305 27.3078 12.2652 25.3924 14.8665 24.2406C15.4894 23.965 15.8166 23.4757 15.8267 22.8018C15.8707 20.1759 17.3193 18.5108 19.499 17.3426C19.7305 17.2187 19.9848 17.1188 20.2402 17.0594C20.9777 16.8862 21.3603 16.3842 21.5377 15.6926C22.2689 12.8492 24.0673 11.0805 26.9379 10.6038C29.5971 10.1626 31.7705 11.1551 33.3248 13.3752C33.8231 14.087 34.4272 14.3702 35.2515 14.2842C37.3746 14.063 38.9943 14.9341 40.2049 16.6346C40.8241 17.5044 41.2054 18.4766 41.2747 19.5614C41.3212 20.2972 41.6975 20.7815 42.3884 21.0685C45.1596 22.2152 46.7164 24.7501 46.5024 27.7592C46.471 28.1941 46.3741 28.6303 46.257 29.0513C46.1438 29.4584 45.9651 29.8465 45.7901 30.308C45.9751 30.308 46.1387 30.308 46.3011 30.308C54.5945 30.308 62.888 30.3067 71.1815 30.308C73.6758 30.308 75.7158 31.9288 76.2922 34.3601C77.0536 37.5714 74.5769 40.736 71.2847 40.7372C63.4166 40.7423 55.5485 40.7385 47.6804 40.7385C47.5243 40.7385 47.3695 40.7385 47.1883 40.7385C47.1241 41.6425 47.0599 42.5034 47.0033 43.3657C46.7919 46.548 46.5805 49.7289 46.3741 52.9112C46.2029 55.5473 46.0418 58.1846 45.8682 60.8207C45.7763 62.2177 45.7008 63.6186 45.5586 65.0106C45.2892 67.634 43.1347 69.9173 40.5334 70.3725C40.0652 70.4546 39.5832 70.49 39.1075 70.49C31.6384 70.4976 24.1692 70.5027 16.7001 70.4938C13.4821 70.49 10.9651 68.4684 10.3661 65.3418C10.1559 64.2482 10.1572 63.1128 10.0804 61.9952C9.8929 59.2529 9.7142 56.5107 9.53549 53.7671C9.39076 51.5432 9.25359 49.3193 9.11012 47.0954C8.97672 45.0321 8.83703 42.9687 8.71118 40.9041C8.69733 40.6689 8.5891 40.5994 8.389 40.5324C6.24202 39.8206 4.99108 38.33 4.67268 36.0858C4.30646 33.5105 6.23321 30.863 8.80305 30.4104C9.36056 30.3118 9.93947 30.3371 10.5083 30.308C10.6631 30.3004 10.8179 30.308 10.9588 30.308V30.3067ZM43.9578 56.5979C43.7702 56.5979 43.6268 56.5979 43.4833 56.5979C38.2203 56.5979 32.9573 56.5979 27.6955 56.5979C27.5621 56.5979 27.4287 56.6055 27.2966 56.5928C26.7479 56.5435 26.3427 56.1124 26.32 55.5612C26.2911 54.8569 26.7542 54.422 27.5445 54.422C32.8868 54.422 38.2291 54.422 43.5727 54.422C43.7413 54.422 43.9087 54.422 44.105 54.422C44.173 53.3676 44.2372 52.365 44.3039 51.3232H43.7652C38.6092 51.3232 33.4519 51.3232 28.2958 51.3232C28.1763 51.3232 28.0567 51.327 27.9372 51.3207C27.4942 51.2992 27.1242 51.0185 26.9795 50.6013C26.7189 49.844 27.2614 49.1524 28.1259 49.1524C33.389 49.1511 38.652 49.1524 43.915 49.1524H44.4511C44.5178 48.1182 44.5832 47.1257 44.6487 46.1067C44.4851 46.0991 44.3542 46.0877 44.2246 46.0877C39.134 46.0877 34.0446 46.0877 28.954 46.0865C28.769 46.0865 28.5803 46.0865 28.4003 46.046C27.8629 45.9284 27.5219 45.4872 27.5357 44.9549C27.5483 44.4227 27.9107 44.008 28.4594 43.9157C28.6419 43.8853 28.8294 43.8841 29.0144 43.8841C34.0912 43.8828 39.1679 43.8828 44.2447 43.8828H44.7972C44.8664 42.8195 44.9331 41.7929 44.9998 40.7587H10.8619C10.8859 41.071 10.9123 41.3593 10.9312 41.6475C11.1992 45.7085 11.4673 49.7681 11.7316 53.8291C11.9556 57.2768 12.201 60.7246 12.3872 64.1749C12.5332 66.8767 14.694 68.3395 16.7932 68.3243C24.2888 68.2687 31.7844 68.3041 39.28 68.3015C41.3049 68.3015 42.9812 66.9917 43.3562 65.0017C43.5462 63.989 43.5425 62.9409 43.6306 61.8599H43.0668C37.737 61.8599 32.4086 61.8599 27.0789 61.8574C26.8813 61.8574 26.6774 61.8511 26.4874 61.8043C25.8745 61.65 25.5423 60.9825 25.765 60.3857C25.9513 59.8876 26.3301 59.6664 27.0122 59.6664C32.3947 59.6664 37.7773 59.6664 43.1599 59.6664C43.2794 59.6664 43.4128 59.6992 43.5148 59.6562C43.6217 59.612 43.769 59.502 43.7765 59.411C43.8508 58.4943 43.8999 57.5752 43.9603 56.5966L43.9578 56.5979ZM40.5498 32.4788C30.5032 32.4788 20.4567 32.4788 10.4101 32.4788C10.1572 32.4788 9.90423 32.4737 9.65253 32.4851C7.91707 32.561 6.55916 34.2564 6.85742 35.9721C7.13303 37.56 8.35251 38.5689 9.99987 38.5689C30.3459 38.5689 50.6907 38.5689 71.0367 38.5689C71.1299 38.5689 71.223 38.5689 71.3161 38.5677C73.2857 38.512 74.6914 36.5549 74.1226 34.6622C73.7148 33.3082 72.5721 32.4801 71.0896 32.4801C60.9097 32.4788 50.731 32.4801 40.551 32.4801L40.5498 32.4788ZM28.1461 30.3067C32.9825 30.3067 37.8201 30.3092 42.6565 30.2979C42.8553 30.2979 43.1171 30.2207 43.2442 30.0829C43.9464 29.3218 44.3114 28.4002 44.3542 27.3672C44.4322 25.4607 43.3524 23.8259 41.5478 23.085C40.3358 22.5869 39.5405 21.717 39.2183 20.4388C39.1277 20.0798 39.1403 19.6967 39.061 19.3338C38.6394 17.4146 37.2676 16.3589 35.3056 16.4677C33.6822 16.5574 32.4438 15.9645 31.5163 14.5902C30.5297 13.1274 29.0811 12.4661 27.3482 12.743C25.4705 13.0439 24.1944 14.1641 23.7049 16.0441C23.287 17.646 22.4011 18.7244 20.7713 19.1935C19.2045 19.6449 18.1121 21.1342 18.0228 22.7449C17.9284 24.4606 17.1406 25.6933 15.5121 26.3444C15.1723 26.4797 14.8463 26.6858 14.5606 26.9159C13.6357 27.6618 13.0568 28.586 13.1448 29.8415C13.1713 30.2144 13.3047 30.3181 13.6772 30.3168C18.501 30.3029 23.3235 30.308 28.1473 30.308L28.1461 30.3067Z" fill="black"/>
<path d="M31.7797 18.4196C31.6375 18.6776 31.5343 18.9696 31.3456 19.1871C30.9705 19.6169 30.554 20.0114 30.1437 20.4097C29.6428 20.8951 28.9934 20.9078 28.5505 20.4526C28.1112 20.0025 28.1389 19.3413 28.6209 18.852C29.0413 18.426 29.4566 17.9936 29.892 17.5839C30.2331 17.2628 30.6433 17.2009 31.0712 17.3956C31.4827 17.5827 31.6954 17.9152 31.781 18.4196H31.7797Z" fill="black"/>
<path d="M33.4699 25.9966C32.9841 25.9384 32.6544 25.726 32.4606 25.3164C32.2655 24.9042 32.3108 24.4896 32.6104 24.1596C33.0647 23.6576 33.5454 23.1759 34.0463 22.7195C34.4641 22.339 35.0996 22.382 35.4936 22.7638C35.9063 23.1646 35.963 23.8018 35.5678 24.243C35.116 24.7475 34.6315 25.2254 34.1319 25.6818C33.9595 25.8386 33.6952 25.8942 33.4724 25.9966H33.4699Z" fill="black"/>
<path d="M25.3303 24.2252C25.2007 24.4756 25.1126 24.7638 24.9313 24.9699C24.5274 25.4276 24.0844 25.8524 23.6439 26.2772C23.1883 26.7159 22.5352 26.7096 22.1098 26.2797C21.6945 25.86 21.6718 25.2152 22.0897 24.7676C22.5352 24.2922 22.9945 23.8295 23.4702 23.3845C23.8 23.076 24.2052 23.0241 24.618 23.2087C25.0308 23.3946 25.2422 23.7283 25.3303 24.2252Z" fill="black"/>
</g>
<defs>
<clipPath id="clip0_226_29">
<rect width="71.8033" height="60" fill="white" transform="translate(4.62695 10.5)"/>
</clipPath>
</defs>
</svg>
