<svg width="90" height="91" viewBox="0 0 90 91" fill="none" xmlns="http://www.w3.org/2000/svg">
<mask id="mask0_227_38" style="mask-type:alpha" maskUnits="userSpaceOnUse" x="0" y="0" width="90" height="91">
<rect y="0.428955" width="90" height="90" fill="#D9D9D9"/>
</mask>
<g mask="url(#mask0_227_38)">
</g>
<g clip-path="url(#clip0_227_38)">
<path d="M44.2044 23.4708C50.5625 34.1369 56.9388 44.2799 60.2052 55.8825C62.1619 62.8342 60.4832 69.2098 55.8912 74.7001C49.3045 82.5755 38.2333 82.2772 31.9895 74.1317C27.5482 68.3381 26.2746 61.8287 28.4382 54.8693C31.8942 43.7515 37.9034 33.8583 44.2044 23.4708ZM55.6557 53.067C53.2013 62.4873 52.1234 63.9897 44.0884 69.6844C43.0244 70.4386 41.9837 71.3095 41.1803 72.3184C39.7276 74.1428 40.2358 75.5965 42.4521 76.3941C46.0935 77.7038 49.1427 76.4529 51.8464 74.1164C57.5422 69.1919 59.1213 60.7695 55.6566 53.0679L55.6557 53.067Z" fill="#FF0000"/>
<path d="M72.5845 10.429C76.8215 17.4599 80.6724 23.5441 82.3909 30.5997C84.0445 37.3878 78.6612 44.3514 72.2053 43.9978C66.8853 43.7064 62.5591 37.9204 63.1902 31.797C63.3409 30.3339 63.6361 28.8043 64.2568 27.4844C66.8273 22.0154 69.5475 16.6146 72.5854 10.4298L72.5845 10.429ZM79.4603 28.4004C78.7279 33.0138 76.0233 35.923 72.3724 38.2383C71.5932 38.7325 71.3231 40.003 70.8175 40.9156C71.9153 41.2684 73.0148 41.8964 74.1108 41.8905C75.0511 41.8854 76.0978 41.3034 76.9072 40.7197C80.4663 38.1547 81.6126 32.8596 79.4612 28.4004H79.4603Z" fill="#FF0000"/>
<path d="M25.064 77.0383C20.9361 74.9386 17.0316 72.9685 12.1037 74.055C10.9903 74.3004 8.78873 72.637 8.17751 71.3503C7.64074 70.2212 8.12383 67.6981 9.06577 67.0257C10.5402 65.9734 13.0413 65.1545 14.6507 65.6572C20.2504 67.4066 22.6468 72.3115 25.0649 77.0391L25.064 77.0383ZM16.5407 67.9904C16.6532 67.7552 16.7658 67.52 16.8783 67.2848C15.2118 66.9363 13.5504 66.3807 11.8751 66.3364C11.1566 66.3176 10.4086 67.3615 9.6744 67.923C9.81898 68.1301 9.96443 68.3372 10.109 68.5434C12.2526 68.3585 14.3962 68.1744 16.5398 67.9895L16.5407 67.9904Z" fill="#FF0000"/>
<path d="M62.4384 70.2366C64.7456 67.6367 66.8754 64.8511 69.4172 62.4984C71.2768 60.7771 73.8542 60.5658 75.8073 62.4447C76.6272 63.2329 77.1856 65.123 76.7882 66.0782C76.3337 67.1715 74.4948 68.6457 73.5849 68.4531C69.6232 67.6163 66.4226 69.1041 63.2123 70.9422L62.4375 70.2366H62.4384ZM69.7427 63.78C71.727 63.8754 73.4932 63.9615 75.6922 64.0672C73.4057 61.596 72.1556 61.6275 69.7427 63.78Z" fill="#FF0000"/>
<path d="M14.6657 60.2471C12.8199 59.4103 11.1507 58.6076 9.44344 57.8927C7.53792 57.0942 6.88254 55.7172 7.57774 53.8621C8.2487 52.0701 9.71182 51.6474 11.4866 52.1783C14.5557 53.0969 15.6483 55.8961 14.6665 60.2463L14.6657 60.2471Z" fill="#FF0000"/>
</g>
<defs>
<clipPath id="clip0_227_38">
<rect width="75.3846" height="70" fill="white" transform="translate(7.30762 10.429)"/>
</clipPath>
</defs>
</svg>
