<svg width="90" height="91" viewBox="0 0 90 91" fill="none" xmlns="http://www.w3.org/2000/svg">
<mask id="mask0_227_36" style="mask-type:alpha" maskUnits="userSpaceOnUse" x="0" y="0" width="90" height="91">
<rect y="0.428955" width="90" height="90" fill="#D9D9D9"/>
</mask>
<g mask="url(#mask0_227_36)">
</g>
<g clip-path="url(#clip0_227_36)">
<path d="M57.3994 21.0442C57.1997 20.9613 57.0038 20.8236 56.7985 20.8053C48.3201 20.022 40.8749 22.0972 35.2352 29.0562C33.4062 31.3135 32.3852 33.9688 31.8399 36.8264C31.5602 38.2908 30.656 39.077 29.5192 38.84C28.4323 38.6136 27.7467 37.6723 27.9539 36.5113C28.6885 32.3936 30.2293 28.6573 33.0906 25.5868C33.4702 25.1793 33.5926 24.8084 33.5898 24.2226C33.5813 22.5346 33.5258 20.8072 33.8394 19.1664C34.6531 14.9109 37.5907 12.6208 41.3976 11.377C46.2396 9.79502 51.0609 10.3471 55.8021 11.8973C61.5284 13.7692 66.6322 16.7077 70.6294 21.4093C72.3671 23.4528 73.7582 25.7227 74.441 28.3702C74.5437 28.7691 74.4438 29.404 74.1839 29.6622C73.9767 29.8674 73.3259 29.7894 72.9689 29.6217C67.3603 26.9819 62.054 27.1919 57.1253 31.2818C55.8605 32.3309 54.6323 33.436 53.3053 34.3966C48.4454 37.918 42.1304 37.5711 37.9505 33.646C37.4137 33.1422 37.3167 32.7655 37.6953 32.0978C39.5196 28.878 42.2453 26.7054 45.408 25.0377C48.8946 23.1994 52.6215 22.1136 56.4764 21.4527C56.7825 21.4007 57.083 21.3178 57.3862 21.2494C57.3909 21.181 57.3956 21.1126 57.4004 21.0442H57.3994Z" fill="#FF0000"/>
<path d="M61.9811 68.4948C62.1723 68.2819 62.3899 68.0872 62.5519 67.8531C65.9943 62.8731 67.9731 57.419 67.5926 51.2318C67.2676 45.9444 65.2851 41.4586 61.3425 37.9334C60.9319 37.5663 60.541 37.0557 60.3885 36.5354C60.1408 35.6914 60.5043 34.9544 61.2418 34.4756C62.0649 33.9418 62.8589 34.0854 63.5766 34.7039C65.9349 36.7368 67.8817 39.1155 69.1909 41.9856C69.6985 43.0974 69.8153 44.4915 70.5518 45.3692C71.2638 46.2171 72.5909 46.4916 73.5657 47.1458C78.0319 50.1431 79.4625 54.6597 77.7785 60.3749C76.3837 65.1083 73.5431 68.8638 69.9782 72.0701C65.7287 75.8921 60.9517 78.7478 55.3431 79.9521C52.7172 80.5157 50.0801 80.6332 47.4476 80.0166C47.0323 79.9193 46.5067 79.7276 46.3005 79.4019C45.8795 78.7391 46.3448 78.3046 46.9033 77.9202C50.2411 75.6204 52.5006 72.5374 53.3699 68.4659C53.919 65.8935 53.4876 63.3625 52.9772 60.8537C52.1116 56.603 52.5439 52.6432 55.1801 49.0814C56.7125 47.0109 58.6979 45.664 61.1033 44.8971C61.6967 44.7083 62.0094 44.8413 62.3286 45.3924C63.9985 48.2731 64.5627 51.4177 64.5363 54.7108C64.5015 59.1137 63.5135 63.3211 62.0216 67.4244C61.9114 67.726 61.8182 68.0343 61.7174 68.3397C61.805 68.3907 61.8926 68.4428 61.9811 68.4938V68.4948Z" fill="#FF0000"/>
<path d="M19.3694 49.0178C19.4231 49.2953 19.4259 49.5063 19.5041 49.6816C22.6545 56.788 27.4664 62.0445 35.0237 64.2335C38.5612 65.2586 42.0535 65.0534 45.5186 63.8539C45.964 63.6997 46.4613 63.6005 46.9257 63.6294C47.7262 63.6785 48.4034 64.4464 48.5155 65.2865C48.6389 66.2095 48.1858 67.1383 47.2628 67.4003C45.4394 67.9167 43.5991 68.4254 41.7333 68.7135C39.5143 69.0555 37.286 68.8493 35.0905 68.2973C34.7628 68.2144 34.2843 68.4206 33.9773 68.6412C31.6839 70.2935 29.2276 71.4352 26.3522 71.388C24.0117 71.3495 22.0282 70.3446 20.2303 68.9341C16.6692 66.1411 14.5557 62.322 13.2626 58.0337C11.1218 50.9331 10.8119 43.7882 13.2786 36.679C14.082 34.3638 15.2517 32.2375 16.9385 30.4648C17.2644 30.1227 17.8691 29.8231 18.2854 29.8905C18.55 29.9339 18.8439 30.6767 18.8863 31.1286C19.2875 35.4255 20.7605 39.2244 24.1888 41.8662C25.7683 43.0839 27.7226 43.8046 29.5337 44.6919C30.4275 45.1293 31.3967 45.401 32.3093 45.7989C37.5177 48.0698 40.4948 53.0556 40.0163 58.6744C39.8233 60.9423 39.6858 61.1032 37.4885 60.952C34.014 60.7121 30.9794 59.2457 28.1558 57.2707C25.1711 55.1829 22.5914 52.6413 20.3066 49.7808C20.1163 49.5429 19.9157 49.3126 19.7123 49.0881C19.6802 49.0534 19.6011 49.0631 19.3713 49.0178H19.3694Z" fill="#FF0000"/>
</g>
<defs>
<clipPath id="clip0_227_36">
<rect width="66.9231" height="70" fill="white" transform="translate(11.5391 10.429)"/>
</clipPath>
</defs>
</svg>
