<svg width="142" height="142" viewBox="0 0 142 142" fill="none" xmlns="http://www.w3.org/2000/svg">
<g clip-path="url(#clip0_19_1056)">
<path d="M99.6335 0C102.195 1.07291 103.3 2.96341 103.09 5.7547C102.956 7.55627 103.05 9.37793 103.067 11.191C103.093 14.0339 101.851 16.151 99.3782 17.4879C98.6811 17.8665 98.5549 18.294 98.4544 19.0198C97.7545 23.9684 99.8544 28.3489 101.151 32.893C103.882 42.4775 105.345 52.2427 105.354 62.2116C105.368 84.8718 105.363 107.535 105.354 130.195C105.354 137.074 100.428 141.994 93.5459 141.994C66.3984 142 39.2538 141.997 12.1063 141.994C5.96998 141.994 1.91349 138.879 0.238111 132.895C0.203685 132.768 0.0831953 132.665 0.0028688 132.55C0 107.265 0 81.9772 0 56.6864C0.0889329 56.2762 0.235242 55.8688 0.261061 55.4528C0.745889 47.7302 2.11718 40.1653 4.26017 32.7324C5.55687 28.2399 7.58798 23.8966 6.90808 19.0054C6.8048 18.271 6.6671 17.8436 5.97572 17.4735C3.55158 16.1711 2.30078 14.1056 2.29791 11.3258C2.29504 9.46686 2.40406 7.59931 2.27209 5.74896C2.07128 2.96628 3.15568 1.0643 5.72613 0H99.6335ZM52.6425 137.427C66.146 137.427 79.6466 137.43 93.15 137.427C97.9524 137.427 100.781 134.584 100.781 129.762C100.784 107.575 100.804 85.3911 100.775 63.2042C100.758 51.4395 98.8217 39.9817 95.0492 28.8338C94.7107 27.8354 94.2631 27.4539 93.1529 27.4539C66.1948 27.4883 39.2395 27.4912 12.2813 27.451C11.1023 27.451 10.6519 27.8326 10.2904 28.8997C6.48063 40.1452 4.58722 51.6977 4.58148 63.5628C4.57 85.5574 4.57861 107.552 4.58148 129.547C4.58148 134.667 7.32979 137.43 12.4277 137.43C25.8336 137.43 39.2424 137.43 52.6483 137.43L52.6425 137.427ZM6.86505 4.6072C6.86505 6.54074 6.86505 8.34231 6.86505 10.1439C6.86505 13.1188 7.49044 13.747 10.4625 13.747C38.6055 13.747 66.7484 13.747 94.8943 13.747C95.3705 13.747 95.8553 13.7814 96.3229 13.7183C97.4245 13.572 98.3282 12.9466 98.3856 11.8537C98.5147 9.45251 98.4258 7.0399 98.4258 4.65024H91.5865V9.04228H86.985V4.67319H82.3777V9.0681H77.8278V4.6445H73.2721V9.04515H68.6705V4.66745H64.0632V9.07097H59.5133V4.6904H54.906V9.04802H50.3561V4.66458H45.7488V9.07671H41.1989V4.68753H36.5916V9.05376H32.0417V4.66171H27.4344V9.08245H22.8844V4.68466H18.2771V9.0595H13.6756V4.6072H6.86505ZM93.8271 22.8409V18.4145H11.5584V22.8409H93.8271Z" fill="black"/>
<path d="M132.837 105.303C132.851 109.161 129.828 112.22 125.989 112.222C122.139 112.228 119.101 109.19 119.107 105.337C119.113 101.556 122.122 98.5155 125.883 98.4926C129.753 98.4696 132.823 101.473 132.837 105.303ZM126.018 103.08C124.845 103.051 123.726 104.124 123.694 105.309C123.665 106.482 124.741 107.604 125.923 107.632C127.094 107.661 128.218 106.582 128.247 105.401C128.276 104.224 127.203 103.106 126.018 103.077V103.08Z" fill="black"/>
<path d="M114.48 125.964C110.65 125.952 107.637 122.886 107.658 119.018C107.678 115.192 110.753 112.202 114.634 112.234C118.393 112.263 121.388 115.312 121.388 119.105C121.388 122.946 118.335 125.975 114.48 125.964ZM114.525 121.377C115.702 121.374 116.8 120.269 116.798 119.093C116.795 117.914 115.693 116.818 114.517 116.821C113.338 116.824 112.242 117.925 112.245 119.102C112.245 120.281 113.349 121.379 114.525 121.377Z" fill="black"/>
<path d="M135.198 125.964C131.337 125.981 128.276 122.963 128.27 119.125C128.261 115.269 131.291 112.231 135.141 112.234C138.925 112.234 141.971 115.24 142 118.998C142.029 122.868 139.022 125.946 135.198 125.964ZM137.41 119.13C137.43 117.954 136.351 116.841 135.167 116.821C133.99 116.801 132.877 117.882 132.857 119.064C132.837 120.241 133.916 121.354 135.101 121.377C136.274 121.397 137.39 120.312 137.41 119.13Z" fill="black"/>
<path d="M119.153 128.267C122.988 128.282 125.989 131.346 125.966 135.218C125.943 139.037 122.854 142.032 118.978 141.997C115.231 141.963 112.233 138.902 112.236 135.115C112.242 131.274 115.289 128.253 119.153 128.267ZM121.376 135.19C121.411 134.016 120.343 132.892 119.159 132.855C117.985 132.817 116.861 133.887 116.823 135.075C116.786 136.248 117.856 137.373 119.041 137.41C120.211 137.447 121.339 136.374 121.376 135.19Z" fill="black"/>
<path d="M142 135.198C141.983 139.022 138.902 142.026 135.032 141.997C131.222 141.968 128.233 138.87 128.27 134.992C128.307 131.248 131.371 128.259 135.167 128.267C139.005 128.276 142.017 131.331 142 135.198ZM137.41 135.19C137.444 134.016 136.377 132.892 135.192 132.854C134.019 132.817 132.894 133.887 132.857 135.075C132.82 136.248 133.89 137.373 135.075 137.41C136.245 137.447 137.373 136.374 137.41 135.19Z" fill="black"/>
<path d="M81.0379 132.834C77.911 132.763 74.1672 131.001 71.4906 127.355C69.5685 124.736 67.1788 123.591 63.9313 123.64C56.349 123.752 48.761 123.735 41.1788 123.649C38.0948 123.614 35.8314 124.756 33.9867 127.22C30.6732 131.644 26.1319 133.554 20.6898 132.648C15.0124 131.701 11.2916 128.267 9.65352 122.728C8.69821 119.498 9.07976 116.336 10.4424 113.252C10.6863 112.699 10.7265 111.855 10.4855 111.316C7.5134 104.721 9.71664 97.2619 15.787 93.5727C21.8402 89.8978 29.5659 91.3609 33.915 97.1586C35.8285 99.7118 38.1637 100.865 41.3567 100.819C48.9389 100.716 56.5269 100.722 64.1091 100.819C67.2505 100.859 69.5398 99.6946 71.4246 97.193C74.7495 92.778 79.2966 90.899 84.7416 91.8285C90.4304 92.7981 94.114 96.2636 95.732 101.8C96.6614 104.982 96.3516 108.137 94.9 111.121C94.4955 111.95 94.5529 112.544 94.9287 113.361C99.143 122.53 92.5132 132.849 81.0408 132.843L81.0379 132.834ZM14.4071 116.213C14.2551 116.635 14.0973 116.97 14.017 117.32C13.0387 121.684 15.5546 126.167 19.832 127.699C23.7738 129.111 27.7585 127.811 30.5384 124.139C33.1002 120.757 36.3822 119.024 40.7083 119.076C48.9619 119.173 57.2154 119.03 65.469 119.165C67.2103 119.193 69.1668 119.612 70.6156 120.51C72.4631 121.658 74.0008 123.382 75.4839 125.026C78.1032 127.929 82.1683 129.036 85.76 127.625C89.3403 126.222 91.7988 122.495 91.6009 118.772C91.3972 114.882 88.6604 111.373 84.9711 110.326C84.1678 110.1 83.3301 109.993 82.5326 109.836V105.389C85.7313 105.28 88.4136 106.488 90.9898 108.232C92.1001 105.094 91.6066 102.297 89.6558 99.7979C87.5673 97.1213 84.7674 95.8964 81.3679 96.2894C78.5019 96.6221 76.3675 98.1655 74.6663 100.472C72.2479 103.745 69.0119 105.406 64.8579 105.372C56.5585 105.303 48.2533 105.418 39.9538 105.297C38.2526 105.271 36.3363 104.91 34.9219 104.046C33.0658 102.91 31.4564 101.249 30.0077 99.5856C26.4561 95.5033 20.5722 95.0501 16.6591 98.7163C12.7576 102.368 12.8178 108.338 16.7682 112.059C18.4722 113.662 20.5636 114.317 22.8041 114.575V119.082C19.6312 119.13 16.9546 118.006 14.4071 116.216V116.213Z" fill="black"/>
<path d="M82.4494 61.9132C82.4379 78.3798 69.0836 91.6363 52.5335 91.6105C36.1527 91.5847 22.8988 78.2335 22.9103 61.7669C22.9217 45.2975 36.2645 32.0496 52.8233 32.0725C69.2099 32.0955 82.4609 45.4409 82.4494 61.9132ZM77.8765 61.7899C77.845 47.9568 66.4214 36.5908 52.5966 36.6425C38.8206 36.6912 27.5003 48.04 27.4831 61.8128C27.4688 75.6402 38.8665 87.0463 52.6913 87.0377C66.5161 87.0291 77.9081 75.6086 77.8765 61.7899Z" fill="black"/>
<path d="M38.944 69.9658C38.9928 68.0236 40.2063 65.6225 42.5185 63.7176C43.055 63.2759 43.5628 62.6132 43.7464 61.9562C44.9255 57.7191 48.4053 54.968 52.7229 54.9766C56.9515 54.9852 60.4485 57.765 61.5961 61.9103C61.7797 62.5701 62.2588 63.2615 62.7981 63.6861C66.4788 66.5864 67.5201 71.5981 65.1964 75.6029C62.8756 79.6048 57.967 81.2629 53.6896 79.4097C52.9007 79.0683 52.3327 79.1429 51.5753 79.4585C45.5451 81.9743 38.9297 77.5335 38.9411 69.9658H38.944ZM48.1988 75.7836C49.091 75.3791 50.075 75.098 50.8581 74.5385C52.1348 73.6234 53.2249 73.632 54.4958 74.5529C56.8453 76.2569 59.7543 75.6746 61.1744 73.3136C62.5858 70.9641 61.6793 68.1126 59.0371 66.8618C57.8207 66.288 57.224 65.525 57.224 64.1193C57.224 61.612 55.2531 59.6526 52.8233 59.5522C50.5827 59.4604 48.2791 61.2247 48.2131 63.557C48.1586 65.5077 47.3123 66.4343 45.7086 67.2347C43.93 68.124 43.1927 70.2526 43.7177 72.1317C44.2886 74.1742 46.0873 75.5856 48.2016 75.7807L48.1988 75.7836Z" fill="black"/>
<path d="M41.2362 47.7246C41.2161 44.9476 43.3648 43.1202 46.1303 43.5591C49.0278 44.0181 51.5897 47.1107 51.5266 50.0683C51.4721 52.5469 49.4495 54.3255 46.9795 54.0702C44.0046 53.7604 41.2591 50.7281 41.2362 47.7274V47.7246Z" fill="black"/>
<path d="M64.1235 47.799C64.0747 50.7969 61.2805 53.8119 58.3113 54.073C55.8384 54.291 53.8618 52.4894 53.836 49.9965C53.8044 47.1048 56.3203 44.0725 59.1604 43.5705C61.969 43.0771 64.1694 44.9504 64.1235 47.799Z" fill="black"/>
<path d="M36.2272 54.0815C39.3973 54.1102 42.4439 57.1453 42.4927 60.321C42.53 62.682 40.8948 64.3861 38.528 64.4549C35.3035 64.5467 32.122 61.503 32.0732 58.2842C32.033 55.7511 33.7084 54.0586 36.2272 54.0815Z" fill="black"/>
<path d="M66.9378 64.4577C64.5509 64.4291 62.8842 62.7824 62.8612 60.4329C62.8296 57.349 65.796 54.2221 68.8742 54.093C71.6684 53.9754 73.4643 55.8171 73.275 58.6026C73.0713 61.6263 69.9644 64.495 66.9349 64.4577H66.9378Z" fill="black"/>
</g>
<defs>
<clipPath id="clip0_19_1056">
<rect width="142" height="142" fill="white"/>
</clipPath>
</defs>
</svg>
