<svg width="165" height="124" viewBox="0 0 165 124" fill="none" xmlns="http://www.w3.org/2000/svg">
<g clip-path="url(#clip0_19_1094)">
<path d="M159.817 96.9514C159.817 95.155 159.804 93.4547 159.82 91.7544C159.836 89.9035 160.702 88.898 162.278 88.8564C164.017 88.8116 164.903 89.7018 164.945 91.6871C165 94.1944 165.01 96.7049 164.981 99.2122C164.961 101.012 164.108 102.004 162.291 102.133C160.483 102.261 158.657 102.161 156.605 102.161C157.223 109.488 154.688 115.495 148.912 119.978C145.297 122.786 141.096 124.115 136.477 123.962C130.762 123.773 125.991 121.518 122.221 117.279C118.459 113.045 116.932 108.008 117.318 102.286H91.5203C91.939 109.443 89.5873 115.421 83.9239 119.876C80.3641 122.674 76.2084 124.064 71.6757 124C60.4873 123.846 51.0064 114.297 52.1371 102.286H48.9672C49.5019 109.408 47.0632 115.332 41.432 119.818C37.7852 122.722 33.5522 124.109 28.8971 123.971C23.1499 123.798 18.3305 121.55 14.513 117.234C10.7373 112.962 9.30053 107.928 9.72899 102.136C7.34185 102.136 5.10611 102.219 2.88004 102.11C0.844032 102.011 0.00321483 101.053 -6.69109e-06 99.0713C-0.00967126 92.9872 -0.00322821 86.9031 0.022544 80.8222C0.0322085 78.9586 1.03088 78.0171 2.94769 77.9979C4.87738 77.9787 6.81029 77.9947 9.01059 77.9947C9.01059 77.1013 9.01059 76.2688 9.01059 75.4362C9.01059 64.6578 9.00093 53.8825 9.02348 43.1041C9.02348 41.9161 8.71421 41.0003 7.81541 40.1389C5.61189 38.0319 3.55011 35.7808 1.37236 33.6514C0.0547592 32.3609 -0.202963 31.0672 0.579867 29.3445C4.71953 20.2248 8.78831 11.073 12.8571 1.92769C13.5143 0.445096 14.6322 -0.0704499 16.1849 0.00640166C21.8613 0.294595 27.5376 0.553969 33.2139 0.832556C39.8019 1.15277 46.3899 1.42495 52.9715 1.85404C54.2569 1.9373 55.5391 2.54571 56.7568 3.06766C60.687 4.74558 64.5915 6.48755 68.496 8.22632C69.6622 8.74506 70.4128 9.56481 70.2679 10.9642C70.1422 12.1938 69.4013 12.9687 68.2802 13.164C67.6165 13.2793 66.8208 13.0199 66.1604 12.7413C62.4235 11.1691 58.709 9.5392 54.8851 7.88369C47.5207 24.3812 40.1853 40.8114 32.7983 57.3569C41.01 60.9817 49.1572 64.5777 57.5267 68.2698C64.8976 51.7755 72.2233 35.3805 79.6167 18.8286C78.9402 18.4828 78.2798 18.185 77.658 17.82C76.3147 17.0258 75.8379 15.793 76.3791 14.6146C77.0331 13.1864 78.2347 12.6901 79.8261 13.2601C82.7738 14.3168 85.2931 15.6265 86.8652 18.755C89.7323 24.4644 93.1052 29.9241 96.2849 35.4798C96.9646 36.6678 97.0935 37.7886 96.5007 39.0982C92.4029 48.1763 88.3535 57.28 84.3008 66.3805C83.7403 67.639 82.8769 68.4459 81.482 68.7181C80.551 68.8974 79.6425 69.2048 78.6728 69.4706V77.8891H98.0632C98.0632 76.9028 98.0632 75.9101 98.0632 74.9207C98.0503 60.6231 98.0084 46.3255 98.0535 32.0279C98.0599 30.2475 98.1953 28.3454 98.8331 26.7155C100.18 23.2732 103.173 22.0212 106.69 21.9924C113.185 21.9411 119.683 21.9123 126.177 22.0116C134.695 22.1429 141.76 27.5897 143.783 35.499C144.121 36.8215 144.324 38.2176 144.337 39.5818C144.398 45.8772 144.369 52.1758 144.373 58.4712C144.373 58.99 144.373 59.5087 144.373 60.3829C147.485 60.3829 150.426 60.3381 153.364 60.3925C158.534 60.4854 164.111 65.3943 164.633 70.5113C164.958 73.6846 164.945 76.8964 164.971 80.0921C164.987 81.8629 163.918 82.8716 162.339 82.8556C160.738 82.8396 159.875 81.8533 159.817 80.0153C159.723 77.0373 159.846 74.0305 159.443 71.0941C159.021 68.004 155.877 65.5768 152.732 65.5031C149.569 65.4295 146.402 65.4295 143.235 65.4391C140.04 65.4487 139.199 64.6674 139.196 61.5197C139.189 54.4749 139.196 47.4302 139.189 40.3855C139.183 34.0196 135.459 29.1524 129.267 27.5353C128.088 27.2279 126.828 27.1286 125.604 27.1222C119.377 27.0838 113.153 27.0934 106.926 27.1158C104.107 27.1254 103.176 28.07 103.182 30.9039C103.201 41.5703 103.259 52.2398 103.269 62.9062C103.276 68.5068 103.221 74.1105 103.176 79.7111C103.153 82.3817 102.403 83.1021 99.7158 83.1021C68.8987 83.1021 38.0784 83.1021 7.26131 83.1021C6.62667 83.1021 5.99525 83.1021 5.26396 83.1021V96.9707C7.03258 96.9707 8.73999 97.0283 10.4345 96.9258C10.8211 96.9034 11.3108 96.3943 11.5202 95.9908C14.4646 90.3102 18.9522 86.6053 25.2954 85.2284C33.6681 83.4128 42.9042 87.4891 46.8023 95.4817C47.3338 96.5704 47.9524 96.9707 49.2216 97.0539C51.9857 97.2332 53.6545 96.6857 55.3812 93.9446C63.5574 80.9791 82.1972 81.9686 89.3651 95.5425C89.99 96.7241 90.702 97.1115 91.9745 97.1019C100.505 97.0347 109.039 96.9899 117.569 97.0315C118.91 97.0379 119.122 96.1541 119.56 95.3472C122.408 90.0764 126.728 86.6918 132.608 85.3405C140.858 83.4416 149.363 86.9639 153.702 94.0407C155.01 96.1733 157.045 97.1414 159.807 96.945L159.817 96.9514ZM49.8434 6.53238C47.1985 6.53238 44.9048 6.62204 42.6208 6.51637C34.5927 6.14492 26.5679 5.72544 18.5431 5.27714C17.4156 5.2131 16.8743 5.55252 16.4072 6.61884C13.1406 14.0798 9.82242 21.5184 6.41727 28.9186C5.83739 30.177 5.90505 30.9424 6.88439 31.9318C12.667 37.7886 18.382 43.7093 24.1292 49.5981C25.566 51.0679 27.0447 52.4992 28.62 54.0651C35.6687 38.2785 42.6401 22.6648 49.8434 6.53238ZM63.4318 67.7222C63.8409 67.7222 64.1115 67.7735 64.3564 67.7158C69.1661 66.5342 73.9791 65.3751 78.7662 64.107C79.3558 63.9501 79.9936 63.3033 80.2578 62.7237C83.9303 54.6383 87.5481 46.5272 91.1433 38.4098C91.3237 37.9999 91.356 37.3467 91.1498 36.9752C88.6112 32.425 86.0179 27.9067 83.3279 23.19C76.6594 38.1184 70.0778 52.8483 63.4318 67.7222ZM65.0587 72.8329C64.1824 73.0378 63.4415 73.1531 62.7424 73.3868C60.0395 74.2866 57.5686 74.0529 54.9012 72.8104C46.7701 69.0191 38.494 65.5352 30.3178 61.8367C28.8971 61.1963 27.5891 60.21 26.4068 59.1821C25.0377 57.9877 23.8683 56.5691 22.3638 54.9873V77.9019H65.0587V72.8329ZM43.8385 104.601C43.9094 96.5288 37.7176 90.0156 29.4222 89.9644C21.2846 89.9131 14.732 96.1285 14.8319 104.896C14.9189 112.395 21.5745 118.813 29.3449 118.816C37.2505 118.819 43.8836 112.315 43.8417 104.598L43.8385 104.601ZM86.3658 104.24C86.2756 96.2021 79.9131 89.9163 71.9398 89.9387C63.5317 89.9612 57.5396 96.4135 57.3818 103.971C57.2046 112.463 63.6315 118.873 72.0333 118.819C80.2063 118.764 86.4464 112.12 86.369 104.24H86.3658ZM137.034 118.787C145.007 118.777 151.395 112.434 151.495 104.557C151.595 96.5832 145.4 89.9708 137.079 89.9708C128.932 89.9708 122.585 95.9556 122.482 104.605C122.389 112.373 129.109 118.797 137.037 118.787H137.034ZM14.2585 47.0844V77.8955H17.1095C17.1095 77.271 17.1095 76.7459 17.1095 76.2207C17.1095 68.4459 16.9967 60.6647 17.1643 52.8931C17.219 50.3506 16.6069 48.4581 14.2552 47.0844H14.2585ZM73.4185 70.7547C72.6776 70.9276 71.9849 70.9948 71.3825 71.267C70.9476 71.4623 70.3355 71.9074 70.313 72.2725C70.2034 74.1201 70.2614 75.9742 70.2614 77.8858H73.4185V70.7579V70.7547Z" fill="black"/>
<path d="M106.339 47.6064C106.339 42.8576 106.333 38.1088 106.339 33.3568C106.343 31.1441 107.228 30.2796 109.455 30.2764C114.822 30.2764 120.198 30.4493 125.559 30.2219C130.53 30.0106 136.097 33.4145 136.209 40.3567C136.328 47.5039 136.267 54.6543 136.203 61.8047C136.18 64.5714 135.207 65.4231 132.463 65.4263C125.433 65.4327 118.401 65.4263 111.371 65.4263C111.104 65.4263 110.833 65.4263 110.566 65.4167C106.835 65.2726 106.33 64.7507 106.33 61.0522C106.33 56.5692 106.33 52.0862 106.33 47.6032H106.339V47.6064ZM111.59 35.3998V60.1524C111.845 60.2132 111.996 60.2773 112.148 60.2773C118.104 60.2869 124.061 60.2709 130.017 60.3061C131.081 60.3125 131.087 59.7009 131.084 58.958C131.071 55.2243 131.087 51.4906 131.055 47.7569C131.029 44.8814 131.071 41.993 130.839 39.1303C130.671 37.0873 128.8 35.4382 126.838 35.4158C121.796 35.3582 116.754 35.3966 111.59 35.3966V35.3998Z" fill="black"/>
<path d="M112.972 72.8618C111.684 72.8618 110.395 72.9034 109.11 72.8521C107.428 72.7849 106.291 71.6449 106.339 70.172C106.388 68.7342 107.48 67.7735 109.174 67.7575C111.751 67.7351 114.325 67.7351 116.903 67.7575C118.565 67.7735 119.625 68.763 119.654 70.2392C119.683 71.7058 118.642 72.7497 116.996 72.8521C116.3 72.897 115.601 72.865 114.902 72.865C114.258 72.865 113.613 72.865 112.969 72.865V72.8586L112.972 72.8618Z" fill="black"/>
<path d="M29.2063 93.0577C35.7782 93.0513 40.8554 98.0851 40.8038 104.557C40.7555 110.702 35.5721 115.828 29.3771 115.777C23.3528 115.729 17.902 111.345 17.8666 104.304C17.8311 97.1148 24.0648 92.7951 29.2063 93.0545V93.0577ZM29.3513 98.1715C25.8012 98.1587 22.934 100.977 22.992 104.425C23.05 107.922 25.8721 110.676 29.39 110.67C32.7693 110.663 35.5753 107.945 35.6204 104.633C35.6752 100.961 32.9787 98.1844 29.3513 98.1715Z" fill="black"/>
<path d="M71.6853 115.774C65.6063 115.78 60.3875 110.708 60.3907 104.579C60.3907 97.7263 65.8705 92.9679 71.9495 93.0095C78.0253 93.048 83.3795 97.8128 83.3312 104.272C83.2764 111.278 77.9995 115.758 71.6886 115.774H71.6853ZM71.9302 98.1586C68.2834 98.1714 65.5 100.964 65.558 104.55C65.6096 107.832 68.4735 110.689 71.7401 110.653C75.4255 110.612 78.035 108.153 78.1993 104.297C78.3442 100.938 75.3579 98.1426 71.927 98.1554L71.9302 98.1586Z" fill="black"/>
<path d="M137.156 93.0512C143.442 93.0544 148.522 98.1586 148.532 104.48C148.541 110.653 143.2 115.802 136.808 115.783C130.765 115.764 125.762 110.679 125.607 104.701C125.427 97.7487 131.251 92.7598 137.16 93.0544L137.156 93.0512ZM137.118 98.165C133.484 98.149 130.823 100.736 130.794 104.313C130.765 107.877 133.436 110.634 136.934 110.66C140.436 110.685 143.364 107.884 143.371 104.496C143.377 101.028 140.562 98.1746 137.118 98.1618V98.165Z" fill="black"/>
</g>
<defs>
<clipPath id="clip0_19_1094">
<rect width="165" height="124" fill="white"/>
</clipPath>
</defs>
</svg>
