<svg width="103" height="156" viewBox="0 0 103 156" fill="none" xmlns="http://www.w3.org/2000/svg">
<g clip-path="url(#clip0_19_1046)">
<path d="M33.5685 56.2198C27.8338 55.3385 24.4511 52.0088 24.3543 47.2162C24.2522 42.1942 28.3832 37.9258 33.4665 37.9128C45.5063 37.8815 57.5461 37.8893 69.5858 37.9101C74.2191 37.918 78.0257 41.3051 78.6353 45.8786C79.1952 50.0818 76.2702 54.4415 72.0346 55.6749C71.2157 55.9122 70.3628 56.0321 69.3791 56.2381C69.3791 61.9198 69.4602 67.6041 69.3425 73.2858C69.2902 75.8333 69.8448 78.0444 71.0718 80.3103C81.1599 98.959 91.1486 117.66 101.137 136.361C104.494 142.642 103.233 149.294 97.9743 153.343C95.5883 155.181 92.8648 156.003 89.8379 156C64.2697 155.982 38.6989 156.005 13.1307 155.982C3.14468 155.971 -3.02433 146.05 1.50694 137.151C5.06759 130.157 8.87679 123.292 12.5813 116.372C19.3233 103.788 26.0862 91.2147 32.7811 78.605C33.3017 77.622 33.5973 76.4017 33.613 75.2883C33.6941 69.411 33.6523 63.5312 33.647 57.6539C33.647 57.169 33.5921 56.684 33.5633 56.2198H33.5685ZM66.9435 83.6792C66.4359 83.7991 66.0121 83.8643 65.6118 83.9999C55.3327 87.4782 44.7528 89.293 33.9322 89.9006C33.2808 89.9371 32.4226 90.6385 32.0851 91.2591C23.538 107.092 15.0379 122.948 6.55621 138.814C3.26764 144.965 6.80737 150.777 13.8188 150.798C20.3358 150.816 26.8553 150.803 33.3723 150.803C52.0573 150.803 70.7422 150.801 89.4271 150.809C91.9701 150.809 94.1912 150.081 95.897 148.118C98.1155 145.565 98.3745 142.363 96.5615 138.971C89.8876 126.486 83.1927 114.015 76.5057 101.538C73.327 95.6057 70.1509 89.6737 66.9435 83.6844V83.6792ZM64.118 56.0712C63.3253 56.0712 62.7183 56.0712 62.1113 56.0712C59.1943 56.0712 56.2798 56.0816 53.3627 56.066C51.3901 56.0556 50.1605 55.0752 50.1056 53.5263C50.0506 51.9253 51.3221 50.8928 53.4072 50.8537C54.0273 50.8406 54.6473 50.851 55.27 50.851C59.8614 50.851 64.4528 50.8875 69.0443 50.8328C71.5794 50.8041 73.4107 49.0884 73.4029 46.932C73.3924 44.7756 71.6657 43.1042 69.2222 43.099C57.4336 43.0703 45.6423 43.0677 33.8537 43.1042C31.4416 43.1121 29.6704 44.833 29.6468 46.9503C29.6207 49.1119 31.3107 50.7363 33.7778 50.8354C35.3894 50.898 37.0036 50.8484 38.6178 50.851C41.4799 50.8537 42.7619 51.6124 42.8508 53.3464C42.9319 54.963 41.807 55.8235 38.8925 56.2694C38.8925 56.9082 38.8925 57.5783 38.8925 58.2458C38.8925 63.1948 38.7434 68.1516 38.9422 73.0928C39.0861 76.665 38.5969 79.9531 36.5222 82.9282C36.2554 83.3115 36.1246 83.7861 35.8211 84.4666C45.6659 83.8565 55.0057 81.9947 64.1206 78.9466V56.0738L64.118 56.0712Z" fill="black"/>
<path d="M62.4828 7.54002e-05C69.1934 0.0235427 74.6194 5.50706 74.5854 12.2291C74.5514 18.8991 68.9396 24.4478 62.318 24.3513C55.576 24.2548 50.116 18.8078 50.0873 12.1509C50.0611 5.43405 55.6258 -0.0233919 62.4828 7.54002e-05ZM62.3389 19.0138C66.2266 19.0216 69.3425 15.937 69.3137 12.1118C69.285 8.32313 66.0801 5.17852 62.2735 5.2072C58.5297 5.23328 55.4452 8.33356 55.4322 12.0779C55.4191 15.9787 58.4329 19.006 62.3389 19.0138Z" fill="black"/>
<path d="M45.2263 26.8283C45.1819 31.0942 41.7703 34.3431 37.4301 34.2544C33.388 34.171 30.0131 30.7604 30 26.7475C29.987 22.6016 33.545 19.0476 37.6943 19.0633C41.8907 19.0789 45.2708 22.5625 45.2263 26.8283ZM40.0123 26.7579C39.8579 25.3499 39.1698 24.4581 37.6812 24.4373C36.2946 24.419 35.4705 25.1622 35.4077 26.5389C35.3423 27.9808 36.1115 28.9013 37.5661 28.9717C39.0259 29.0421 39.7768 28.1451 40.0123 26.7579Z" fill="black"/>
<path d="M30.4892 125.777C34.7563 125.751 38.3536 129.326 38.3169 133.555C38.2777 137.829 34.7327 141.362 30.4788 141.367C26.2274 141.372 22.672 137.81 22.672 133.547C22.672 129.253 26.1437 125.805 30.4892 125.779V125.777ZM33.7072 133.503C33.6889 131.631 32.284 130.282 30.3872 130.324C28.582 130.363 27.2713 131.691 27.2504 133.497C27.2268 135.393 28.582 136.767 30.4736 136.765C32.3703 136.765 33.7229 135.396 33.7072 133.503Z" fill="black"/>
<path d="M60.696 95.4754C64.39 95.4623 67.4824 98.5261 67.4484 102.164C67.4144 105.835 64.3403 108.836 60.641 108.81C56.994 108.784 54.077 105.864 54.0456 102.208C54.0142 98.4662 56.9522 95.491 60.696 95.478V95.4754ZM63.1369 102.482C63.1264 102.195 63.116 101.908 63.1055 101.619C62.2918 101.068 61.5201 100.156 60.6541 100.054C59.4716 99.9159 58.5847 100.795 58.5925 102.13C58.6004 103.559 59.5422 104.429 60.8137 104.218C61.6613 104.077 62.3677 103.089 63.1369 102.482Z" fill="black"/>
<path d="M73.0628 145.695C69.6224 145.654 66.9173 142.892 66.9984 139.508C67.0795 136.131 69.9547 133.372 73.2825 133.479C76.5946 133.586 79.2815 136.35 79.2527 139.628C79.2239 143.054 76.4874 145.74 73.0628 145.698V145.695ZM75.3729 139.505C74.2898 138.835 73.6488 138.121 73.1151 138.194C72.5552 138.269 72.0974 139.098 71.5924 139.599C72.1418 140.121 72.6363 140.945 73.2616 141.059C73.722 141.143 74.3525 140.298 75.3729 139.505Z" fill="black"/>
<path d="M39.748 107.59C41.4616 107.683 42.6808 109.055 42.5971 110.802C42.516 112.536 41.1738 113.73 39.4027 113.649C37.6786 113.571 36.4594 112.21 36.5432 110.458C36.6243 108.763 38.0396 107.496 39.748 107.59Z" fill="black"/>
<path d="M57.9777 124.069C59.4716 124.071 60.7273 125.281 60.7561 126.742C60.7849 128.225 59.3669 129.615 57.8835 129.555C56.4132 129.498 55.2386 128.241 55.2569 126.742C55.2752 125.224 56.4551 124.064 57.9803 124.069H57.9777Z" fill="black"/>
<path d="M51.5602 75.8253C48.1172 75.854 45.3624 73.1422 45.3912 69.7551C45.4199 66.3758 48.2297 63.578 51.568 63.6067C54.8435 63.6353 57.5774 66.3602 57.6402 69.6586C57.7056 73.0562 55.0057 75.794 51.5628 75.8227L51.5602 75.8253ZM51.5732 67.5492C50.8172 68.5635 49.9878 69.2101 50.0846 69.6612C50.2207 70.2922 51.0422 70.7772 51.5706 71.3248C52.0625 70.8033 52.8814 70.3209 52.9546 69.7473C53.02 69.2258 52.277 68.6 51.5732 67.5492Z" fill="black"/>
</g>
<defs>
<clipPath id="clip0_19_1046">
<rect width="103" height="156" fill="white"/>
</clipPath>
</defs>
</svg>
