<svg width="171" height="142" viewBox="0 0 171 142" fill="none" xmlns="http://www.w3.org/2000/svg">
<g clip-path="url(#clip0_19_1106)">
<path d="M15.0787 46.8759C14.773 39.7785 18.1897 35.2453 24.3847 32.5195C25.8683 31.8672 26.6475 30.7092 26.6715 29.1144C26.7764 22.8996 30.2261 18.9589 35.4171 16.1941C35.9686 15.9009 36.574 15.6645 37.1824 15.5239C38.9387 15.1139 39.8498 13.926 40.2724 12.2893C42.0137 5.55989 46.2966 1.37383 53.133 0.245776C59.4659 -0.798496 64.6419 1.55037 68.3433 6.80464C69.5302 8.48924 70.9688 9.15949 72.9319 8.95602C77.988 8.43239 81.8453 10.494 84.7285 14.5185C86.2031 16.5771 87.1112 18.8781 87.276 21.4454C87.3869 23.1868 88.2831 24.3328 89.9285 25.0121C96.5281 27.726 100.236 33.7253 99.726 40.8467C99.6511 41.876 99.4203 42.9083 99.1416 43.9047C98.8719 44.8682 98.4463 45.7868 98.0297 46.8789C98.4702 46.8789 98.8599 46.8789 99.2465 46.8789C118.997 46.8789 138.748 46.8759 158.499 46.8789C164.44 46.8789 169.298 50.7149 170.671 56.4689C172.484 64.069 166.586 71.5585 158.745 71.5615C140.007 71.5734 121.269 71.5644 102.531 71.5644C102.16 71.5644 101.791 71.5644 101.359 71.5644C101.207 73.7039 101.054 75.7415 100.919 77.7822C100.415 85.3135 99.9118 92.8419 99.4203 100.373C99.0127 106.612 98.6291 112.854 98.2155 119.092C97.9967 122.399 97.8169 125.714 97.4782 129.008C96.8368 135.217 91.7058 140.621 85.5107 141.698C84.3958 141.893 83.2479 141.976 82.115 141.976C64.3272 141.994 46.5393 142.006 28.7515 141.985C21.0879 141.976 15.0937 137.192 13.6671 129.792C13.1666 127.204 13.1695 124.517 12.9867 121.872C12.5402 115.382 12.1146 108.892 11.689 102.399C11.3443 97.1356 11.0176 91.8724 10.676 86.6091C10.3583 81.7259 10.0256 76.8427 9.72587 71.9564C9.6929 71.3999 9.43515 71.2353 8.95861 71.0767C3.84555 69.3921 0.86642 65.8643 0.108152 60.5532C-0.764007 54.4581 3.82457 48.1925 9.94466 47.1213C11.2724 46.8879 12.651 46.9478 14.0057 46.8789C14.3744 46.861 14.743 46.8789 15.0787 46.8789V46.8759ZM93.6659 109.098C93.2193 109.098 92.8776 109.098 92.536 109.098C80.0021 109.098 67.4682 109.098 54.9372 109.098C54.6196 109.098 54.3019 109.116 53.9872 109.086C52.6804 108.97 51.7154 107.949 51.6614 106.645C51.5925 104.978 52.6954 103.949 54.5776 103.949C67.3003 103.949 80.023 103.949 92.7488 103.949C93.1504 103.949 93.549 103.949 94.0165 103.949C94.1784 101.453 94.3312 99.0806 94.4901 96.615H93.2073C80.9282 96.615 68.646 96.615 56.3669 96.615C56.0821 96.615 55.7974 96.624 55.5127 96.609C54.4577 96.5581 53.5766 95.8939 53.2319 94.9065C52.6115 93.1141 53.9032 91.4774 55.9623 91.4774C68.4962 91.4744 81.0301 91.4774 93.564 91.4774H94.8407C94.9996 89.0298 95.1554 86.681 95.3113 84.2692C94.9217 84.2513 94.61 84.2244 94.3013 84.2244C82.178 84.2244 70.0577 84.2244 57.9344 84.2214C57.4938 84.2214 57.0442 84.2214 56.6156 84.1256C55.3359 83.8474 54.5236 82.8031 54.5566 81.5434C54.5866 80.2837 55.4498 79.3022 56.7565 79.0838C57.1911 79.012 57.6376 79.009 58.0782 79.009C70.1685 79.006 82.2589 79.006 94.3492 79.006H95.6649C95.8298 76.4896 95.9886 74.0599 96.1475 71.6123H14.8479C14.9049 72.3514 14.9678 73.0336 15.0128 73.7158C15.6512 83.3267 16.2895 92.9346 16.9189 102.546C17.4524 110.705 18.0369 118.865 18.4804 127.031C18.8281 133.425 23.9741 136.887 28.9733 136.851C46.8241 136.719 64.6749 136.803 82.5256 136.797C87.348 136.797 91.3401 133.697 92.2333 128.987C92.6858 126.591 92.6768 124.11 92.8866 121.552H91.5439C78.8512 121.552 66.1614 121.552 53.4687 121.546C52.9981 121.546 52.5126 121.531 52.06 121.42C50.6004 121.055 49.8092 119.475 50.3397 118.063C50.7833 116.884 51.6854 116.36 53.3098 116.36C66.1284 116.36 78.9471 116.36 91.7657 116.36C92.0504 116.36 92.3681 116.438 92.6109 116.336C92.8656 116.232 93.2163 115.971 93.2343 115.756C93.4111 113.587 93.528 111.411 93.6719 109.095L93.6659 109.098ZM85.5497 52.0165C61.6238 52.0165 37.6979 52.0165 13.772 52.0165C13.1695 52.0165 12.5671 52.0045 11.9677 52.0315C7.8347 52.211 4.60082 56.2235 5.31113 60.2839C5.9675 64.0421 8.8717 66.4299 12.7949 66.4299C61.2492 66.4299 109.7 66.4299 158.155 66.4299C158.376 66.4299 158.598 66.4299 158.82 66.4269C163.51 66.2952 166.858 61.6633 165.504 57.184C164.533 53.9794 161.811 52.0195 158.281 52.0195C134.037 52.0165 109.796 52.0195 85.5527 52.0195L85.5497 52.0165ZM56.0102 46.8759C67.5281 46.8759 79.049 46.8819 90.5669 46.855C91.0404 46.855 91.6638 46.6725 91.9665 46.3463C93.6389 44.545 94.5081 42.3637 94.61 39.9191C94.7958 35.4069 92.2243 31.538 87.9264 29.7846C85.0402 28.6057 83.146 26.5471 82.3788 23.522C82.163 22.6722 82.1929 21.7656 82.0041 20.9068C81.0001 16.3647 77.7333 13.8662 73.0608 14.1235C69.1945 14.336 66.2453 12.9326 64.0365 9.68013C61.6867 6.21817 58.2371 4.65326 54.11 5.30855C49.6384 6.02069 46.5993 8.67176 45.4334 13.1211C44.4384 16.9122 42.3284 19.4646 38.4472 20.5747C34.7158 21.6429 32.1143 25.1677 31.9015 28.9797C31.6767 33.0401 29.8005 35.9575 25.9222 37.4984C25.113 37.8186 24.3368 38.3063 23.6564 38.8509C21.4536 40.6163 20.0749 42.8036 20.2847 45.7748C20.3476 46.6575 20.6653 46.9029 21.5525 46.8999C33.0404 46.867 44.5253 46.8789 56.0132 46.8789L56.0102 46.8759Z" fill="black"/>
<path d="M64.6656 18.7431C64.3269 19.3535 64.0812 20.0447 63.6316 20.5594C62.7384 21.5767 61.7464 22.5103 60.7693 23.4528C59.5765 24.6018 58.03 24.6318 56.975 23.5546C55.929 22.4893 55.995 20.9244 57.1428 19.7665C58.1439 18.7581 59.1329 17.7348 60.1699 16.7653C60.9821 16.0053 61.9592 15.8587 62.9782 16.3195C63.9583 16.7623 64.4648 17.5493 64.6686 18.7431H64.6656Z" fill="black"/>
<path d="M68.6907 36.6752C67.5338 36.5375 66.7486 36.0348 66.287 35.0654C65.8225 34.0899 65.9304 33.1085 66.6437 32.3275C67.7257 31.1396 68.8706 29.9996 70.0634 28.9194C71.0584 28.0188 72.572 28.1205 73.5101 29.0241C74.4931 29.9727 74.628 31.4807 73.6869 32.525C72.6109 33.7189 71.4571 34.8499 70.2672 35.9301C69.8566 36.3011 69.2272 36.4328 68.6967 36.6752H68.6907Z" fill="black"/>
<path d="M49.3054 32.4832C48.9967 33.0757 48.7869 33.7579 48.3553 34.2456C47.3933 35.3288 46.3383 36.3341 45.2893 37.3395C44.2043 38.3778 42.6488 38.3628 41.6358 37.3455C40.6468 36.3521 40.5928 34.8261 41.5879 33.7669C42.6488 32.6418 43.7428 31.5467 44.8757 30.4934C45.6609 29.7633 46.626 29.6406 47.609 30.0775C48.5921 30.5173 49.0956 31.3073 49.3054 32.4832Z" fill="black"/>
</g>
<defs>
<clipPath id="clip0_19_1106">
<rect width="171" height="142" fill="white"/>
</clipPath>
</defs>
</svg>
