<svg width="166" height="141" viewBox="0 0 166 141" fill="none" xmlns="http://www.w3.org/2000/svg">
<g clip-path="url(#clip0_19_1070)">
<path d="M0 126.698C0.123403 126.421 0.279281 126.154 0.366962 125.867C1.31522 122.669 3.15977 120.197 6.04351 118.464C6.55985 118.154 7.08594 117.346 7.08594 116.77C7.1379 92.504 7.1314 68.2413 7.12491 43.9753C7.12491 43.6072 7.05996 43.2392 7.02424 42.8288C6.05 42.7604 5.13422 42.7636 4.23793 42.6203C2.17904 42.2913 0.724182 40.6855 0.691707 38.6042C0.636501 35.0311 0.630006 31.4547 0.691707 27.8816C0.733924 25.5787 2.45507 23.9046 4.90365 23.8199C7.70945 23.7222 10.5217 23.8199 13.3308 23.7612C13.9348 23.7482 14.6363 23.5821 15.1136 23.2336C22.4886 17.8527 29.8376 12.4328 37.1833 7.01283C40.184 4.79795 43.1554 2.55701 46.8023 1.45282C54.9599 -1.01937 62.796 -0.455883 70.132 4.07485C72.7007 5.6611 75.0811 7.55352 77.5199 9.34497C79.03 10.4557 79.345 11.9051 78.4325 13.1038C77.5524 14.26 76.169 14.3871 74.6881 13.3513C72.652 11.9279 70.6613 10.4394 68.6349 8.99645C61.2047 3.69702 50.8551 3.44947 43.4022 8.63165C36.6605 13.3187 30.0811 18.2436 23.4304 23.0642C23.268 23.1815 23.1316 23.3345 22.7776 23.6603H88.873C87.3045 22.5235 86.077 21.6343 84.8527 20.7418C84.3298 20.3607 83.7843 20.0025 83.2907 19.5823C82.1086 18.5693 81.8683 17.2371 82.6314 16.1297C83.4238 14.9831 84.8884 14.7193 86.2134 15.6737C89.4576 18.0091 92.6206 20.4585 95.8745 22.7776C96.602 23.2955 97.5697 23.6994 98.4465 23.745C100.98 23.872 103.522 23.7612 106.062 23.8003C109.183 23.8459 110.819 25.5299 110.832 28.6633C110.845 31.6436 110.839 34.6207 110.832 37.601C110.826 41.0634 109.264 42.6659 105.834 42.7441C105.409 42.7538 104.98 42.7864 104.373 42.8157C104.373 43.4965 104.373 44.1316 104.373 44.7668C104.373 56.9519 104.373 69.1402 104.373 81.3253C104.373 81.7586 104.389 82.1918 104.367 82.625C104.285 84.234 103.279 85.2763 101.869 85.2372C100.499 85.1981 99.5604 84.2177 99.5247 82.6575C99.4792 80.6544 99.5084 78.6512 99.5084 76.6448C99.5084 76.1106 99.5084 75.5764 99.5084 74.7849C98.3783 74.7849 97.3651 74.824 96.3584 74.7752C94.9133 74.7035 94.0397 73.9511 93.939 72.4658C93.8481 71.0913 94.7834 70.0816 96.3064 69.8959C96.839 69.8308 97.3846 69.8796 97.9269 69.8633C98.401 69.8471 98.8719 69.8145 99.424 69.7852V66.4205C98.44 66.4205 97.4885 66.4791 96.5435 66.4075C94.8256 66.2739 93.9098 65.3619 93.9261 63.9157C93.9423 62.5021 94.9198 61.5673 96.602 61.4533C97.5047 61.3914 98.4173 61.4435 99.4143 61.4435V58.0268C98.505 58.0268 97.6054 58.0724 96.7156 58.017C94.9035 57.9062 93.9163 56.991 93.9293 55.5057C93.9423 54.0335 94.9425 53.1345 96.7578 53.0302C97.6087 52.9814 98.4627 53.0205 99.411 53.0205V49.6102C98.6154 49.6102 97.8295 49.6265 97.0469 49.6102C95.0107 49.5613 93.9196 48.6754 93.9293 47.0989C93.939 45.5127 94.9847 44.6821 97.0728 44.6202C97.8165 44.5974 98.5634 44.6169 99.4078 44.6169V42.845H12.1033V117.265C13.2431 117.265 14.4089 117.239 15.5748 117.272C17.2537 117.314 18.2734 118.216 18.3124 119.633C18.3546 121.092 17.2635 122.099 15.5358 122.141C14.2401 122.174 12.9184 122.307 11.6519 122.118C8.64797 121.672 5.25763 124.597 4.90041 128.405C4.57891 131.834 7.16388 135.274 10.5575 135.844C11.457 135.994 12.3825 136.056 13.2983 136.056C31.9939 136.069 50.6862 136.056 69.3818 136.092C70.6256 136.092 71.4894 135.714 72.3435 134.834C76.8022 130.268 81.3682 125.802 85.8009 121.21C89.5258 117.35 94.0007 115.363 99.5312 115.337C99.5312 114.676 99.5312 114.099 99.5312 113.519C99.5312 107.021 99.5214 100.52 99.5377 94.0218C99.5442 92.0773 100.626 90.9471 102.21 91.1425C103.61 91.3119 104.386 92.3118 104.389 94.0577C104.402 100.881 104.396 107.705 104.396 114.532C104.396 115.119 104.396 115.705 104.396 116.662C104.987 116.174 105.354 115.917 105.666 115.604C108.15 113.115 110.615 110.607 113.109 108.129C121.127 100.155 132.561 100.123 140.605 108.041C142.222 109.633 143.833 111.239 145.405 112.881C146.765 114.301 146.847 115.64 145.723 116.734C144.645 117.783 143.248 117.636 141.871 116.304C139.813 114.311 137.88 112.171 135.688 110.337C130.476 105.969 123.111 105.933 118.019 110.438C114.96 113.148 112.313 116.327 109.42 119.363C112.173 121.972 115.109 124.76 118.048 127.545C120.757 130.111 123.445 132.704 126.202 135.215C126.706 135.671 127.508 136.033 128.174 136.036C138.708 136.088 149.243 136.072 159.781 136.065C160.142 136.065 160.499 135.994 161.217 135.919C160.655 135.294 160.301 134.87 159.914 134.476C156.563 131.095 153.169 127.756 149.886 124.31C149.289 123.685 148.837 122.61 148.886 121.773C148.922 121.115 149.76 120.079 150.367 119.982C151.231 119.841 152.455 120.138 153.088 120.721C155.634 123.063 158.011 125.587 160.45 128.043C161.48 129.079 162.425 130.219 163.551 131.134C167.072 133.997 167.081 139.114 161.795 141.016H10.7004C8.73889 140.196 6.64753 139.596 4.85169 138.508C2.07837 136.831 0.925524 133.916 0.00324745 130.942C0.00324745 129.535 0.00324745 128.124 0.00324745 126.717L0 126.698ZM105.844 28.9011H5.6733V30.8228H7.52435C14.1719 30.8228 20.8162 30.8228 27.4637 30.8228C28.7594 30.8228 30.0617 30.7609 31.3509 30.8586C32.7538 30.9661 33.5202 31.9302 33.5267 33.2429C33.5332 34.562 32.77 35.4773 31.3704 35.6532C30.8898 35.7151 30.3994 35.6793 29.9123 35.6793C22.4009 35.6793 14.8896 35.6793 7.38146 35.6793C6.80991 35.6793 6.23836 35.6793 5.55964 35.6793C5.59536 36.4838 5.62134 37.0473 5.64732 37.601H105.799V35.6793C105.104 35.6793 104.519 35.6793 103.931 35.6793C97.1216 35.6793 90.3149 35.6858 83.505 35.676C81.6929 35.676 80.6375 34.8063 80.5725 33.3471C80.5076 31.8293 81.6247 30.8261 83.4725 30.8228C90.3344 30.8098 97.1962 30.8163 104.058 30.8163C104.633 30.8163 105.204 30.8163 105.841 30.8163V28.8946L105.844 28.9011ZM119.571 135.981C119.308 135.623 119.211 135.434 119.068 135.297C114.905 131.356 110.806 127.34 106.546 123.503C101.743 119.177 95.1374 119.216 90.4318 123.656C86.3433 127.515 82.4755 131.606 78.5169 135.603C78.4649 135.655 78.5104 135.802 78.5104 135.978H119.571V135.981Z" fill="black"/>
<path d="M47.6044 70.5146C48.0428 66.0946 49.9328 62.756 53.6284 60.5151C55.0703 59.6421 56.4472 59.6519 57.8858 60.5248C61.5782 62.769 63.4617 66.1174 63.8741 70.3192C65.3874 70.5016 66.8358 70.5993 68.2517 70.8664C69.9371 71.1823 70.9731 72.1986 71.3595 73.9574C71.957 76.6837 71.8499 79.309 70.7165 81.8854C70.5444 82.2763 70.4275 82.8691 70.5996 83.2078C72.2493 86.4357 72.0122 89.6505 70.7327 92.9077C70.5769 93.3051 70.4762 93.8979 70.6581 94.2236C73.1813 98.7543 71.5641 106.197 65.6505 109.431C63.5137 110.601 61.4873 111.044 58.4054 110.959C58.0547 112.679 58.4152 115.099 55.6321 114.991C53.1153 114.894 53.3459 112.724 53.1413 110.936C48.9131 111.194 45.3377 109.933 42.5546 106.741C39.5637 103.308 38.8785 98.2495 40.775 94.3148C40.9666 93.9207 40.9114 93.2888 40.7425 92.8588C39.4728 89.5951 39.2292 86.3836 40.9244 83.1655C41.0965 82.8365 40.8497 82.2828 40.7847 81.8366C40.4762 79.7259 39.8365 77.6055 39.9209 75.5111C40.0606 72.0259 41.5317 70.7882 45.0292 70.5211C45.8313 70.4592 46.6399 70.5113 47.6044 70.5113V70.5146ZM44.883 97.5589C44.1231 102.327 47.4323 106.233 51.8813 105.995C52.8393 105.943 53.1835 105.611 53.1998 104.643C53.2712 100.331 49.4197 96.6209 44.8863 97.5589H44.883ZM58.4963 105.774C63.6695 106.679 67.7126 102.529 66.5857 97.598C61.5782 96.7512 57.7852 100.536 58.4963 105.774ZM53.0861 83.1785C53.4693 79.8366 51.4721 76.5762 48.2214 75.7391C47.1822 75.472 46.0196 75.6772 44.9155 75.6675C44.9447 76.8238 44.7661 78.0354 45.0649 79.1136C45.3084 79.9995 45.9514 81.1591 46.7049 81.4522C48.715 82.2339 50.8811 82.6118 53.0861 83.1785ZM58.4769 83.3218C60.263 82.729 61.9062 81.8561 63.6111 81.703C65.3907 81.5467 66.1051 80.6379 66.4559 79.2113C66.7351 78.0843 66.7709 76.8987 66.9105 75.788C62.2666 74.2832 57.7754 78.4947 58.4769 83.3186V83.3218ZM44.4414 86.8428C44.7856 88.3835 45.0422 89.8916 45.4871 91.341C45.6299 91.8068 46.2112 92.3279 46.6919 92.468C48.8124 93.0868 50.972 93.5754 53.0893 94.1031C53.6284 89.5398 49.4002 85.5497 44.4381 86.8428H44.4414ZM66.9235 86.8363C62.2147 85.4194 57.7299 89.6212 58.4834 94.2431C60.1753 93.6959 61.8575 92.8426 63.6046 92.6732C65.2608 92.5136 66.0889 91.81 66.4299 90.3834C66.7092 89.2108 66.7709 87.9894 66.9235 86.8363ZM55.801 75.2408C56.418 74.5828 56.9473 74.0552 57.4344 73.4917C57.9086 72.9445 58.5613 72.4266 58.7529 71.7816C59.3277 69.8599 58.1391 66.7558 56.4407 65.6191C56.103 65.3943 55.3041 65.4236 54.9826 65.6777C53.3556 66.9512 52.7873 68.7883 52.5633 70.7719C52.3879 72.3354 53.5213 73.0422 54.4987 73.876C54.9047 74.2213 55.2424 74.648 55.801 75.2408Z" fill="black"/>
<path d="M25.4016 86.9635C25.7458 102.403 35.1732 114.259 49.4977 117.392C59.0679 119.486 67.7841 117.18 75.3539 110.842C75.8507 110.425 76.3119 109.962 76.838 109.585C78.0915 108.679 79.4359 108.796 80.3095 109.848C81.1701 110.881 81.1506 112.383 79.9393 113.311C77.2504 115.373 74.6297 117.666 71.6355 119.167C50.6765 129.688 25.9699 117.617 21.1864 94.6537C17.2147 75.5797 30.013 56.2971 49.03 52.698C68.125 49.0858 86.7297 61.6585 90.3409 80.7032C91.9061 88.9471 90.6786 96.8393 86.8271 104.301C86.038 105.829 84.6773 106.409 83.3718 105.803C82.0826 105.204 81.6085 103.764 82.4138 102.178C85.015 97.0575 86.392 91.6701 85.9633 85.9179C85.0248 73.2443 78.6955 64.1079 67.0664 59.3068C49.41 52.0172 29.961 62.6975 26.0381 81.4458C25.6094 83.4979 25.551 85.628 25.4048 86.97L25.4016 86.9635Z" fill="black"/>
<path d="M49.5821 13.5173C49.5756 14.8202 48.5332 15.869 47.2212 15.8951C45.8313 15.9244 44.7401 14.8528 44.7531 13.4783C44.7661 12.1819 45.8248 11.0842 47.0978 11.0451C48.4098 11.0061 49.5886 12.1786 49.5821 13.5173Z" fill="black"/>
<path d="M64.2898 15.8919C62.9746 15.8691 61.9452 14.8333 61.9354 13.5239C61.9224 12.1591 63.0623 11.0094 64.3937 11.0419C65.6505 11.0745 66.7449 12.195 66.7644 13.4653C66.7839 14.8235 65.67 15.9147 64.2898 15.8919Z" fill="black"/>
<path d="M129.713 114.255C129.697 115.584 128.687 116.607 127.368 116.623C126.001 116.643 124.848 115.516 124.874 114.184C124.897 112.878 126.134 111.721 127.437 111.783C128.719 111.845 129.729 112.939 129.713 114.252V114.255Z" fill="black"/>
<path d="M72.8111 22.4974C71.5413 22.429 70.4762 21.2955 70.5054 20.035C70.5346 18.7093 71.7524 17.566 73.0579 17.6409C74.3991 17.7159 75.4513 18.9373 75.3344 20.2793C75.2207 21.5789 74.1003 22.569 72.8143 22.5006L72.8111 22.4974Z" fill="black"/>
<path d="M40.9634 20.0708C40.9666 21.4421 39.8397 22.543 38.4823 22.5007C37.2223 22.4583 36.1247 21.3346 36.1247 20.0806C36.1247 18.8331 37.2256 17.6866 38.4758 17.6377C39.8008 17.5856 40.9601 18.7224 40.9634 20.0741V20.0708Z" fill="black"/>
<path d="M58.1489 20.0056C58.1878 21.3801 57.0967 22.5039 55.736 22.4973C54.476 22.4908 53.3524 21.3997 53.3102 20.1457C53.268 18.8526 54.4565 17.6344 55.762 17.6409C57.0415 17.6474 58.1164 18.7092 58.1521 20.0056H58.1489Z" fill="black"/>
<path d="M121.529 118.815C122.929 118.845 123.933 119.933 123.864 121.349C123.803 122.643 122.682 123.714 121.429 123.678C120.234 123.646 119.055 122.447 119.035 121.245C119.013 119.942 120.201 118.789 121.533 118.815H121.529Z" fill="black"/>
<path d="M107.244 127.642C108.579 127.646 109.585 128.633 109.618 129.971C109.65 131.339 108.546 132.502 107.224 132.492C106.029 132.483 104.828 131.31 104.782 130.111C104.734 128.802 105.896 127.639 107.244 127.642Z" fill="black"/>
<path d="M98.086 128.388C96.7936 128.379 95.7057 127.32 95.6764 126.04C95.6472 124.737 96.8455 123.509 98.1315 123.525C99.4694 123.542 100.551 124.708 100.502 126.089C100.457 127.405 99.4078 128.401 98.086 128.388Z" fill="black"/>
<path d="M89.7108 127.639C91.0358 127.639 92.062 128.639 92.0977 129.962C92.1334 131.33 91.0325 132.496 89.7076 132.492C88.4281 132.489 87.22 131.232 87.2688 129.958C87.3175 128.688 88.4216 127.639 89.7108 127.642V127.639Z" fill="black"/>
</g>
<defs>
<clipPath id="clip0_19_1070">
<rect width="166" height="141" fill="white"/>
</clipPath>
</defs>
</svg>
