<svg width="155" height="154" viewBox="0 0 155 154" fill="none" xmlns="http://www.w3.org/2000/svg">
<g clip-path="url(#clip0_108_25)">
<path d="M155 90.5055C154.575 93.1495 154.253 95.8123 153.705 98.4314C151.582 108.587 148.201 118.299 142.547 127.054C137.484 134.899 130.36 140.599 122.192 144.992C110.702 151.172 98.3058 153.738 85.3401 153.978C75.0201 154.171 64.9034 152.959 55.1213 149.616C42.0462 145.148 30.9131 137.889 23.2419 126.175C19.508 120.475 17.2157 114.046 15.2048 107.551C13.3316 101.49 12.2527 95.2853 11.7899 88.9652C11.2832 82.0651 14.7483 77.12 19.6612 72.8702C20.1709 72.4306 20.7182 72.0315 21.3437 71.5388C23.4202 72.8608 25.5061 74.186 27.6858 75.5735C26.4661 76.6835 25.2528 77.6282 24.2239 78.7476C20.4243 82.882 20.6807 87.1256 24.8462 90.9576C28.0392 93.8916 31.8388 95.7904 35.8261 97.3183C44.2103 100.53 52.9572 102.21 61.8449 103.314C70.8484 104.43 79.883 104.78 88.9334 104.493C102.947 104.05 116.8 102.46 130.082 97.6332C134.441 96.0492 138.654 94.113 142.031 90.8204C144.442 88.4694 146.062 85.7661 144.83 82.2085C143.886 79.4772 141.859 77.622 139.558 76.0536C134.473 72.5927 128.747 70.591 122.855 69.0382C119.502 68.1558 116.103 67.4418 112.607 66.6218V58.5088C115.59 59.2259 118.499 59.8495 121.363 60.629C129.769 62.9207 137.847 65.9888 144.971 71.1459C148.805 73.9209 152.095 77.2011 153.918 81.6816C154.343 82.7261 154.64 83.8236 154.997 84.8994V90.4992L155 90.5055Z" fill="black"/>
<path d="M59.1117 46.5825C69.1096 60.1863 76.5306 75.3864 85.19 89.9162C86.1282 88.5193 86.1876 87.2316 85.6466 85.6601C82.3567 76.1254 76.7151 67.8191 71.8616 59.1012C71.4894 58.434 71.0735 57.7916 70.9484 56.9467C71.6427 57.9444 72.3338 58.9422 73.028 59.9399C73.1125 59.8963 73.2 59.8558 73.2845 59.8121C72.6215 58.4963 71.9554 57.1805 71.2924 55.8679C71.3737 55.818 71.455 55.7681 71.5332 55.7213C71.7865 56.1017 72.0711 56.4634 72.29 56.8625C75.852 63.3541 79.4233 69.8364 82.9446 76.3498C83.9891 78.283 84.9523 80.1132 87.4197 80.6838C88.5674 80.9489 89.5494 81.9123 90.8941 82.4268C90.2906 81.4134 89.8715 80.2068 89.0459 79.4242C85.9593 76.5057 83.8109 73.0386 82.3192 69.1006C81.8469 67.8534 81.2371 66.6436 80.5585 65.4931C77.2592 59.9212 73.9099 54.3775 70.5856 48.8212C70.495 48.6684 70.4606 48.4783 70.6607 48.1633C71.3925 49.2577 72.1462 50.3397 72.8498 51.4497C75.9051 56.2607 78.9386 61.0905 82.0127 65.8922C82.3317 66.3879 82.8508 66.7558 83.2761 67.183C83.3887 67.0957 83.5044 67.0084 83.617 66.9211C82.9728 65.4868 82.3285 64.0525 81.6499 62.5403C81.8125 62.5871 81.9157 62.5871 81.9345 62.6245C83.2011 65.4213 84.9805 67.5821 87.6168 69.4435C91.8761 72.4524 93.5867 77.0732 93.5648 82.5141C92.8706 82.1368 92.3452 81.8531 91.776 81.5444C94.0402 87.3501 96.2949 93.1246 98.5466 98.9022C98.3871 99.0706 98.2276 99.242 98.0681 99.4104C97.6803 99.2358 96.9735 99.0986 96.9517 98.8866C96.7327 96.8661 95.0065 96.2176 93.7087 95.1824C92.98 94.6025 92.2545 94.0194 91.3257 93.2742C91.6728 96.0711 94.4061 97.0844 95.2786 99.5944H84.9742C84.8397 97.9637 84.355 96.043 84.6114 94.2283C84.9117 92.0925 84.3863 90.3901 83.2448 88.7189C82.9884 88.3416 82.7789 87.9269 82.2222 87.5434V97.9605C77.4156 93.8292 74.6073 89.1616 73.5472 83.4464C73.0499 80.7743 73.4283 78.205 74.1539 75.6296C74.3259 75.0154 74.2383 74.2078 73.9881 73.6091C70.2917 64.7853 65.2505 56.691 60.2969 48.5468C59.8998 47.8952 59.5057 47.2404 59.1117 46.5888V46.5825Z" fill="black"/>
<path d="M30.738 70.1763C33.3899 71.7633 36.0668 73.313 38.6906 74.9468C44.9014 78.8162 51.0777 82.7448 57.2979 86.6018C57.8639 86.951 58.6614 87.1942 59.3025 87.11C68.4466 85.9221 76.4086 92.3295 79.464 99.267C77.7752 99.0051 76.2147 98.8461 74.6949 98.5093C69.1315 97.2777 64.4187 94.4715 60.1906 90.7206C58.3017 89.0463 56.294 87.4717 54.1956 86.0655C46.3493 80.8148 38.4404 75.6546 30.5535 70.46C30.616 70.3665 30.6754 70.2698 30.738 70.1763Z" fill="black"/>
<path d="M46.3711 37.2161C51.8 43.9353 57.0257 50.826 61.3069 58.3747C62.5266 60.5229 63.9057 62.6089 65.4256 64.5576C69.6974 70.0359 71.6989 77.0919 70.4823 83.2842C67.7147 81.1827 65.4568 78.7631 63.8744 75.748C61.8198 71.8287 60.8191 67.7629 61.9668 63.3322C62.1231 62.7273 61.9324 61.873 61.5946 61.3211C57.5667 54.7453 53.495 48.2007 49.4045 41.6654C48.4539 40.147 47.3843 38.7002 46.3711 37.2192V37.2161Z" fill="black"/>
<path d="M21.9878 59.0046C24.4771 60.4358 26.9915 61.8264 29.4526 63.3043C35.0598 66.6686 40.6545 70.0485 46.221 73.4783C47.3813 74.1954 48.4977 74.501 49.8706 74.317C57.2134 73.3224 65.0941 78.9036 67.8461 85.1956C63.6118 84.8683 59.562 84.0825 55.9562 81.9187C53.6108 80.5124 51.478 78.7539 49.2576 77.1419C47.7096 76.0194 46.2367 74.7847 44.6261 73.7589C37.1895 69.0165 29.7153 64.3301 22.2599 59.6189C22.1035 59.5191 21.9753 59.3757 21.8346 59.2541L21.9847 59.0046H21.9878Z" fill="black"/>
<path d="M103.35 44.6245C103.61 52.8154 103.91 61.0936 104.113 69.375C104.207 73.1446 104.082 76.9205 104.101 80.6932C104.132 87.1162 102.312 92.1549 98.0961 96.7477C97.699 94.9891 97.1611 93.4457 97.0329 91.868C96.5638 86.1185 97.6396 80.8335 102.065 76.6554C102.396 76.3436 102.612 75.7668 102.643 75.2991C102.909 71.2177 103.247 67.1363 103.319 63.0517C103.431 56.8906 103.347 50.7263 103.347 44.6213L103.35 44.6245Z" fill="black"/>
<path d="M58.1015 69.4623C53.5826 66.4971 50.4178 62.5529 49.2607 57.2617C48.8729 55.4938 49.1982 53.5793 49.1106 51.7335C49.0825 51.1068 48.9417 50.3834 48.5915 49.8908C43.8693 43.2775 39.1002 36.6986 34.3436 30.1134C34.106 29.7829 33.8589 29.4555 33.8026 28.9224C34.1435 29.2903 34.5 29.6457 34.8221 30.0324C40.0634 36.3213 45.3485 42.576 49.6673 49.5665C50.3928 50.7388 51.4686 51.6992 52.3849 52.7531C56.3377 57.3053 58.5643 62.5061 58.3548 68.6173C58.3486 68.7732 58.3548 68.9291 58.3204 69.0819C58.3016 69.1723 58.2266 69.2503 58.1015 69.4623Z" fill="black"/>
<path d="M55.7185 71.4641C49.2607 71.2521 43.8099 68.9136 38.9783 64.9132C37.2708 63.5008 35.457 62.1881 33.5775 61.0158C27.1103 56.9717 20.5962 53.0088 14.1008 49.0115C13.9476 48.918 13.8225 48.7715 13.7975 48.4565C14.2822 48.6935 14.7857 48.9024 15.2517 49.1737C22.2036 53.2115 29.1461 57.2711 36.1168 61.2777C36.7423 61.6362 37.621 61.9262 38.284 61.7859C44.6386 60.4296 52.8633 65.2281 55.7154 71.4641H55.7185Z" fill="black"/>
<path d="M97.2768 34.2698C98.681 43.6362 99.9788 53.0026 99.7505 62.5124C99.6911 64.9756 100.307 67.4482 100.329 69.9207C100.367 74.4636 98.7967 78.5014 95.9634 82.1058C92.8924 77.0266 93.7524 68.5987 97.6615 63.956C98.2369 63.2701 98.7216 62.2256 98.6935 61.365C98.4527 54.1749 98.093 46.9911 97.7365 39.8073C97.6458 37.9583 97.4363 36.1156 97.2799 34.2698H97.2768Z" fill="black"/>
<path d="M45.1359 56.4416C40.3637 54.234 35.0442 48.0635 35.407 41.5376C35.457 40.6116 35.1161 39.4517 34.5345 38.7377C29.9843 33.1471 25.334 27.6408 20.7119 22.1095C20.3492 21.6761 19.9583 21.2645 19.705 20.6721C19.9332 20.8498 20.1991 20.9995 20.3867 21.2115C25.4904 27.0141 30.5753 32.8291 35.6884 38.6223C36.5766 39.6294 37.5773 40.5399 38.5249 41.4971C42.0962 45.1015 44.4854 49.3014 45.0327 54.418C45.1015 55.0665 45.1015 55.7182 45.1359 56.4416Z" fill="black"/>
<path d="M4.15924 37.2317C4.68462 37.4967 5.21939 37.743 5.73226 38.033C12.0462 41.6218 18.3352 45.2511 24.6866 48.7744C25.5122 49.2328 26.6631 49.4105 27.6138 49.2983C33.4211 48.6154 40.5732 52.5753 43.1469 58.119C39.8007 57.9662 36.5953 57.4923 33.6619 55.9707C31.7386 54.973 29.9123 53.7694 28.0954 52.5815C25.7624 51.0537 23.5327 49.3606 21.1653 47.8921C15.4862 44.375 9.75393 40.9452 4.04041 37.4811C4.08106 37.3969 4.12171 37.3159 4.16237 37.2317H4.15924Z" fill="black"/>
<path d="M0.125091 20.5288C0.50349 20.7627 0.906908 20.9653 1.26029 21.2304C7.77439 26.11 14.2729 31.0114 20.812 35.8568C21.5531 36.4055 22.4913 36.8545 23.3951 37.0011C28.6489 37.8585 32.0889 41.0014 33.1397 46.0837C33.2397 46.5733 33.2429 47.0846 33.3054 47.702C28.0141 46.7822 24.1519 44.2816 22.1223 39.2897C21.7908 38.4728 21.2623 37.6153 20.5837 37.0728C13.907 31.7223 7.18334 26.4311 0.472218 21.1243C0.3096 20.9965 0.156363 20.8593 0 20.7252C0.0406545 20.6598 0.081309 20.5943 0.125091 20.5288Z" fill="black"/>
<path d="M92.6735 68.053C90.0684 61.7796 89.4492 55.977 93.6679 50.4208C94.0244 49.95 94.1652 49.1674 94.1058 48.5594C93.4803 42.1738 92.7986 35.7913 92.1168 29.4119C91.9855 28.1865 91.7791 26.9674 91.729 25.7327C93.2614 33.1815 94.6468 40.646 95.0502 48.2663C95.1784 50.6765 95.8383 53.0555 96.0634 55.4688C96.4793 59.9369 95.4755 64.0775 92.6766 68.0561L92.6735 68.053Z" fill="black"/>
<path d="M90.2843 68.4582C85.1681 65.8173 81.8845 61.9229 79.7579 56.9373C79.0324 55.238 78.1505 53.5886 77.1842 52.0109C73.838 46.5451 70.4262 41.1198 67.2708 35.5137C68.3028 36.9885 69.3723 38.4446 70.3636 39.9443C73.2501 44.3095 76.0897 48.7058 78.9918 53.0616C79.3358 53.5792 79.8924 54.1124 80.4616 54.3057C86.344 56.3106 89.1554 60.6726 90.0685 66.5344C90.1561 67.0894 90.1936 67.6507 90.2843 68.4582Z" fill="black"/>
<path d="M88.8269 53.7102C85.5933 49.2671 85.3994 42.4605 88.2359 37.9831C88.6111 37.3907 88.8394 36.5177 88.73 35.838C87.7386 29.7143 86.6535 23.6061 85.5964 17.4918C85.5214 17.0553 85.4526 16.6156 85.3838 16.176C85.5558 16.1448 85.7309 16.1136 85.9029 16.0793C87.0788 22.2093 88.239 28.3392 89.4336 34.4661C89.8589 36.6424 90.378 38.8 90.8252 40.9733C91.7447 45.4476 91.163 49.6849 88.8238 53.7071L88.8269 53.7102Z" fill="black"/>
<path d="M99.6379 99.2016C100.557 95.5411 102.39 92.7568 104.982 90.3933C105.498 89.9225 105.977 89.1648 106.046 88.4976C106.709 81.9686 107.428 75.4395 107.825 68.8918C108.094 64.458 107.875 59.9931 108.147 55.5437C108.376 66.3413 109.082 77.1575 107.344 87.9145C107.025 89.8851 107.25 91.943 107.2 93.9603C107.09 98.5406 107.065 98.5562 102.518 98.8929C101.649 98.9584 100.783 99.08 99.6411 99.2047L99.6379 99.2016Z" fill="black"/>
<path d="M86.1906 54.309C81.9375 52.248 79.0073 48.9742 76.8776 44.8584C75.6017 42.389 74.2069 39.9757 72.7465 37.6091C70.2197 33.5121 67.6021 29.4712 65.0253 25.4023C64.9565 25.29 64.9408 25.1466 65.0847 24.9065C65.8759 26.0196 66.6827 27.1234 67.452 28.2521C70.1321 32.1932 72.7621 36.1655 75.5016 40.063C75.9863 40.7521 76.8245 41.3601 77.625 41.6376C82.5786 43.3649 86.691 49.3327 86.1875 54.309H86.1906Z" fill="black"/>
<path d="M83.8639 39.9849C81.0056 35.5262 79.8986 31.08 82.0126 26.297C82.5943 24.9812 82.8007 23.8151 82.4598 22.4619C81.2026 17.4544 79.9767 12.4438 78.7383 7.43012C78.6664 7.14015 78.6007 6.85018 78.8415 6.4729C79.9611 10.2238 81.1307 13.9654 82.1909 17.7319C83.1384 21.1024 83.939 24.5166 84.849 27.8965C86.0343 32.296 85.8247 35.4732 83.8608 39.9818L83.8639 39.9849Z" fill="black"/>
<path d="M62.2765 13.7004C65.2943 18.0282 68.3434 22.3404 71.3143 26.7024C72.0992 27.8561 72.9905 28.6168 74.354 29.1032C78.6665 30.6466 82.0346 35.7726 81.8876 40.356C78.2287 38.6817 75.6237 35.9815 73.6253 32.6141C71.5457 29.1095 69.4598 25.6049 67.3208 22.1315C65.6133 19.3627 63.8245 16.6469 62.0701 13.9062L62.2796 13.7004H62.2765Z" fill="black"/>
<path d="M78.4319 29.4805C74.9794 27.0828 73.1093 23.9492 73.4564 19.6433C73.5127 18.9636 73.3688 18.1935 73.078 17.5761C70.4886 12.0573 67.8492 6.56652 65.2254 1.0664C65.0816 0.767078 64.9627 0.455281 65.141 0.00317383C66.9798 3.46101 68.8374 6.90949 70.6481 10.3798C71.3423 11.7081 71.9647 13.0737 72.5651 14.4456C73.4126 16.3881 74.4415 18.05 76.2522 19.4126C79.4983 21.8571 80.1988 25.8917 78.4287 29.4836L78.4319 29.4805Z" fill="black"/>
<path d="M38.6813 81.27C47.5533 87.0414 56.4285 92.8128 65.3006 98.581C65.2443 98.7307 65.1849 98.8835 65.1286 99.0331C64.3249 98.8086 63.3929 98.7712 62.7393 98.3285C54.6647 92.8595 46.6308 87.3314 38.5906 81.8157C38.528 81.772 38.503 81.6785 38.4592 81.6068L38.6813 81.27Z" fill="black"/>
<path d="M45.7457 92.6506C47.8941 94.0038 50.0425 95.357 52.191 96.7102C52.0878 96.863 51.9877 97.0189 51.8845 97.1717C49.7767 95.7593 47.6689 94.3468 45.5612 92.9375C45.6237 92.8408 45.6831 92.7473 45.7457 92.6506Z" fill="black"/>
</g>
<defs>
<clipPath id="clip0_108_25">
<rect width="155" height="154" fill="white"/>
</clipPath>
</defs>
</svg>
