<svg width="142" height="142" viewBox="0 0 142 142" fill="none" xmlns="http://www.w3.org/2000/svg">
<g clip-path="url(#clip0_19_1101)">
<path d="M50.1875 -0.000395725H53.7922C58.2335 1.13029 60.9794 4.14176 62.7025 8.19223C63.1444 9.23402 63.7058 9.46738 64.7563 9.4646C78.5748 9.42849 92.3904 9.43682 106.209 9.44516C110.525 9.44793 113.832 12.6761 113.646 16.6627C113.449 20.852 109.983 23.7302 105.628 23.4079C102.957 23.2107 100.278 23.1357 97.6015 22.9995C90.9591 22.6634 84.3139 22.3244 77.6715 21.9911C73.6221 21.7883 69.57 21.6021 65.3872 21.4021C64.9759 25.3026 64.5729 29.1252 64.1588 33.0646H65.7152C71.585 33.0646 77.4519 33.0646 83.3217 33.0646C91.6872 33.0646 100.05 33.0563 108.416 33.0701C111.464 33.0757 113.524 34.9315 113.649 37.8096C113.718 39.4237 113.716 41.0461 113.649 42.6574C113.552 44.9299 112.198 46.5495 110.016 47.1662C109.672 47.2635 109.335 47.3802 109.038 47.4718V62.5986C110.528 61.629 111.131 60.3595 111.217 58.8176C111.264 57.9897 111.203 57.1535 111.242 56.3229C111.448 52.014 115.722 48.8275 119.91 49.8471C123.501 50.7222 125.511 53.4086 125.436 57.5563C125.383 60.4289 126.397 62.3875 129.185 63.4737C131.411 64.3433 132.487 66.2046 132.553 68.5854C132.601 70.294 132.545 72.0053 132.581 73.711C132.589 74.0888 132.678 74.6389 132.931 74.8084C135.73 76.7003 137.089 79.395 137.372 82.751C139.743 82.876 141.08 84.29 142.008 86.2236V93.4328C141.022 94.6718 140.032 95.9109 139.115 97.0638C140.038 99.7057 141.022 102.531 142.008 105.356V136.41C140.488 140.594 137.453 142.002 133.09 141.994C90.3865 141.908 47.6807 141.941 4.97477 141.941C4.09653 141.941 3.21551 141.98 2.34004 141.93C0.953201 141.855 -0.0250937 140.811 -8.04594e-05 139.516C0.0249328 138.246 0.925408 137.293 2.29836 137.227C6.38385 137.03 9.84957 135.363 13.0123 132.885C13.8406 132.237 14.1935 131.537 14.1907 130.443C14.1574 103.278 14.163 76.1141 14.163 48.9498V47.5024C10.2887 46.3023 9.43824 45.1327 9.43824 41.1544C9.43824 40.3238 9.43824 39.4903 9.43824 38.6597C9.4438 34.9231 11.3114 33.0646 15.0718 33.0618C22.8814 33.059 30.6939 33.0618 38.5036 33.0618C39.0011 33.0618 39.4986 33.0618 40.0127 33.0618C39.8487 31.545 39.6931 30.1781 39.5569 28.8085C39.0066 23.2996 38.4452 17.7906 37.9227 12.2788C37.7615 10.5703 38.4786 9.78686 40.2156 9.41737C40.5769 9.33959 41.0327 9.00899 41.1717 8.6784C42.9476 4.49735 45.6601 1.31365 50.1848 -0.00317383L50.1875 -0.000395725ZM98.149 96.8721C95.367 95.7025 94.5137 93.7245 94.6138 91.1797C94.661 89.9796 94.5888 88.7767 94.6332 87.5765C94.7222 85.1763 96.1118 83.4288 98.4158 82.9232C99.1412 82.7649 99.4135 82.4621 99.4858 81.762C99.7804 78.9311 101.201 76.7503 103.441 75.0501C103.707 74.8473 104.041 74.5111 104.049 74.2305C104.105 72.4025 104.077 70.5745 104.077 68.7493H19.0711V115.827C19.4102 115.858 19.6798 115.902 19.9493 115.902C23.9681 115.908 27.9897 115.922 32.0085 115.888C32.5838 115.883 33.1841 115.697 33.7233 115.474C39.6431 113.005 45.549 112.999 51.4771 115.458C52.1358 115.73 52.8917 115.888 53.606 115.891C66.7741 115.916 79.9449 115.91 93.1158 115.91H94.6638C94.5499 109.229 94.0274 102.687 98.1518 96.8776L98.149 96.8721ZM103.988 63.7515V47.4607H19.0933V63.7515H103.988ZM99.5886 132.512C99.1495 136.435 99.8054 137.193 103.46 137.193C113.624 137.193 123.79 137.193 133.954 137.193C136.5 137.193 137.278 136.421 137.281 133.901C137.284 126.559 137.12 119.211 137.339 111.874C137.484 106.968 136.594 102.464 134.082 98.2417C133.57 97.3832 133.129 96.9943 132.095 96.9999C124.241 97.0471 116.386 97.0193 108.532 97.0276C106.779 97.0276 104.577 96.4415 103.393 97.2749C102.029 98.2361 101.476 100.436 100.731 102.167C100.164 103.484 99.8527 104.906 99.3718 106.459C101.54 106.459 103.382 106.459 105.225 106.459C107.732 106.459 108.894 107.193 108.916 108.785C108.938 110.388 107.737 111.177 105.281 111.177C103.363 111.177 101.448 111.177 99.5859 111.177V113.493C103.393 113.493 107.084 113.477 110.775 113.502C112.507 113.513 113.613 114.463 113.646 115.863C113.682 117.308 112.529 118.319 110.736 118.333C107.548 118.358 104.361 118.341 101.173 118.341C100.636 118.341 100.1 118.341 99.5775 118.341V120.625C101.801 120.625 103.921 120.611 106.039 120.636C106.534 120.642 107.073 120.689 107.512 120.889C108.549 121.358 109.055 122.247 108.852 123.361C108.63 124.575 107.851 125.337 106.551 125.35C104.252 125.375 101.951 125.356 99.5831 125.356V127.74C100.195 127.74 100.695 127.74 101.198 127.74C104.477 127.74 107.76 127.72 111.039 127.753C112.582 127.767 113.61 128.723 113.646 130.048C113.685 131.404 112.587 132.44 111.02 132.507C110.558 132.526 110.097 132.512 109.633 132.512C106.314 132.512 102.993 132.512 99.5859 132.512H99.5886ZM69.7729 137.113C69.5617 136.852 69.4672 136.713 69.3532 136.596C66.6657 133.813 63.8725 131.126 61.3156 128.229C58.2696 124.773 54.7928 121.961 50.5044 120.261C47.3249 119 44.0704 117.933 40.5547 118.538C33.8511 119.691 28.5483 123.211 24.0376 128.17C21.3723 131.098 18.518 133.854 15.7555 136.693C15.6526 136.799 15.6165 136.966 15.5415 137.116H69.7729V137.113ZM60.5764 120.686C62.319 122.539 63.9504 124.267 65.5762 126.006C67.2771 127.826 68.8641 129.765 70.69 131.448C73.8111 134.329 77.2991 136.827 81.6736 137.113C85.9926 137.393 90.3449 137.157 94.6833 137.141C94.7472 137.141 94.8083 137.03 94.6443 137.185V120.686H60.5764ZM14.3214 42.4574H108.73V37.9874H14.3214V42.4574ZM61.2545 14.2929H43.0421C43.006 14.5263 42.9559 14.6652 42.9671 14.7986C43.5146 20.2603 44.0398 25.7276 44.6429 31.1838C44.7763 32.384 45.6463 33.034 46.8691 33.0424C50.3348 33.0618 53.8006 33.0618 57.2663 33.0424C58.6476 33.0368 59.4508 32.22 59.5869 30.9338C60.1761 25.4331 60.6931 19.9242 61.2489 14.2902L61.2545 14.2929ZM127.815 73.1915C127.815 71.8441 127.776 70.6051 127.829 69.3744C127.87 68.4132 127.52 67.8826 126.592 67.5075C123.721 66.3435 121.811 64.2071 121.042 61.2234C120.691 59.865 120.753 58.3953 120.675 56.9757C120.594 55.5144 119.752 54.5227 118.462 54.4504C117.12 54.3754 116.12 55.3478 115.986 56.8757C115.956 57.2424 115.967 57.6147 115.975 57.9814C116.086 62.5847 114.08 65.8268 109.819 67.6686C109.463 67.8214 109.013 68.2687 108.994 68.6021C108.905 70.105 108.955 71.6163 108.955 73.1971H127.815V73.1915ZM137.234 87.6543H99.5525V92.141H137.234V87.6543ZM65.9153 16.6182C68.7946 16.7543 71.5988 16.8766 74.4003 17.021C82.6074 17.4433 90.8118 17.8823 99.0189 18.3017C101.509 18.4295 103.999 18.5546 106.492 18.6018C108.076 18.6323 109.013 17.4961 108.763 16.0126C108.557 14.7902 107.66 14.1957 105.92 14.1957C93.0352 14.1902 80.1478 14.1929 67.2632 14.1957C66.8686 14.1957 66.4739 14.2624 66.032 14.3013C65.9903 15.118 65.957 15.7987 65.9153 16.6154V16.6182ZM132.47 82.6621C132.089 79.7173 130.43 78.1643 127.695 78.131C124.744 78.0949 121.792 78.1199 118.838 78.1199C115.425 78.1199 112.009 78.081 108.599 78.1532C106.084 78.206 104.197 80.2507 104.363 82.6621H132.47ZM57.8833 9.37292C57.0439 6.86985 54.2147 4.68349 51.9996 4.7585C49.6539 4.83906 46.883 7.07543 46.3494 9.37292H57.8805H57.8833ZM19.0933 120.717V125.742C20.7776 124.236 22.7008 122.517 24.7964 120.644C22.9898 120.644 21.4307 120.644 19.8687 120.647C19.6464 120.647 19.4241 120.686 19.0933 120.717Z" fill="black"/>
<path d="M42.6864 89.8661C42.8837 89.0243 43.0449 88.2659 43.2423 87.5186C45.4712 79.0315 53.3087 73.028 61.7993 73.2947C71.0208 73.5864 78.4914 79.8927 80.1229 88.8132C80.2674 89.6077 80.5592 89.9466 81.3763 89.8661C81.9238 89.8133 82.4908 89.8188 83.0383 89.88C84.3584 90.0272 85.22 91.0329 85.1894 92.3191C85.1588 93.5637 84.3334 94.4333 83.0299 94.5888C82.1406 94.6972 81.0039 94.5138 80.4286 94.9972C79.8922 95.4501 79.9811 96.6196 79.7421 97.4586C77.2852 106.035 69.4033 111.571 60.2596 111.16C51.9274 110.785 44.5985 104.265 42.9893 95.7556C42.8365 94.9417 42.5502 94.4999 41.6442 94.6138C41.1439 94.6777 40.627 94.6389 40.1212 94.5888C38.7677 94.4583 37.8839 93.5109 37.8922 92.233C37.9005 90.9634 38.8066 89.9744 40.1434 89.8744C40.9661 89.8105 41.7971 89.8633 42.6892 89.8633L42.6864 89.8661ZM65.957 78.7759C66.2183 81.5179 65.3289 83.4709 63.1083 84.696C61.6659 85.4906 60.2985 85.2211 59.5537 84.0654C58.7782 82.868 59.0812 81.629 60.5208 80.665C61.2045 80.2094 61.3018 79.7677 61.0183 79.0565C60.7293 78.3314 60.2902 78.1119 59.5203 78.2203C52.0552 79.2593 46.4578 86.5268 47.4556 93.9193C48.5756 102.206 55.86 107.574 64.1505 106.221C71.8879 104.96 77.0962 97.2503 75.4092 89.3021C74.3226 84.1848 71.1292 80.7678 65.957 78.7759Z" fill="black"/>
<path d="M132.556 114.877C132.556 115.941 132.576 117.003 132.553 118.067C132.517 119.617 131.614 120.595 130.233 120.62C128.804 120.648 127.859 119.736 127.831 118.178C127.793 115.869 127.795 113.558 127.831 111.246C127.856 109.821 128.843 108.816 130.122 108.779C131.442 108.743 132.501 109.805 132.545 111.271C132.581 112.472 132.553 113.674 132.553 114.875L132.556 114.877Z" fill="black"/>
<path d="M132.551 128.862C132.551 129.324 132.584 129.788 132.545 130.246C132.431 131.527 131.383 132.502 130.169 132.499C128.932 132.496 127.929 131.54 127.845 130.224C127.795 129.443 127.801 128.654 127.829 127.871C127.881 126.345 128.837 125.343 130.188 125.351C131.519 125.359 132.498 126.404 132.556 127.893C132.57 128.215 132.556 128.54 132.556 128.862H132.548H132.551Z" fill="black"/>
</g>
<defs>
<clipPath id="clip0_19_1101">
<rect width="142" height="142" fill="white"/>
</clipPath>
</defs>
</svg>
