<svg width="113" height="109" viewBox="0 0 113 109" fill="none" xmlns="http://www.w3.org/2000/svg">
<g clip-path="url(#clip0_19_1115)">
<path d="M14.9882 0H23.8177C35.0415 3.18419 45.3783 8.1542 54.2651 15.7371C59.6765 20.3545 64.7041 25.4188 69.4627 29.8722C75.9079 27.7412 82.418 25.0289 89.1946 23.4815C99.7232 21.0772 108.012 26.3105 111.318 36.5461C111.841 38.163 112.437 39.7576 112.997 41.3621V57.2036C112.681 58.2964 112.267 59.3744 112.061 60.4871C109.896 72.0689 106.732 83.3477 99.7282 93.0244C91.4742 104.432 80.0262 110.262 65.9124 108.769C52.1275 107.311 42.9716 99.2487 38.0735 86.2959C37.63 85.1211 36.1352 83.8742 34.892 83.5364C23.297 80.3945 14.7739 73.5567 9.41741 62.874C3.22877 50.5272 -0.284107 37.4999 0.0173524 23.6107C0.251544 12.7889 3.49535 3.77284 14.9882 0ZM4.94534 22.4334C4.609 37.6191 7.75814 51.9082 15.8926 64.7617C17.8882 67.9161 20.6561 70.8022 23.6284 73.0848C32.3159 79.7586 41.9825 81.3979 52.5809 77.871C52.3019 77.1656 52.277 76.8228 52.0901 76.6713C40.1812 66.9101 31.9048 54.2703 24.0893 41.305C23.4091 40.1749 23.9871 38.2922 23.9821 36.7572C25.32 37.5371 27.0889 38.009 27.9136 39.1565C30.5619 42.84 32.5102 47.0624 35.3679 50.5545C41.5714 58.13 48.1164 65.4323 54.6413 72.742C56.769 75.1264 58.8717 74.8209 61.3133 72.511C71.9267 62.4716 73.713 45.5522 64.4923 32.7261C54.8805 19.3485 41.7384 10.4194 25.9279 5.62324C23.0803 4.75889 19.9187 4.91537 16.503 4.56019C25.1157 14.7635 33.0932 24.1347 40.9685 33.5904C43.2183 36.2928 45.3434 39.1317 47.1895 42.1147C47.8722 43.215 47.5857 44.9114 47.7401 46.3371C46.3101 45.7435 44.7978 45.284 43.4799 44.5041C42.7872 44.0943 42.4783 43.0834 41.9128 42.4103C33.2277 32.0853 24.5651 21.7404 15.7904 11.4924C14.4475 9.92264 12.5665 8.80743 9.83098 6.58694C9.55693 10.7025 8.9266 13.5738 9.25796 16.3283C11.0269 30.9775 16.8816 44.1663 24.301 56.7615C25.2652 58.3958 27.4601 60.3604 24.747 61.8706C24.0295 62.2705 21.2316 60.3853 20.4344 58.9671C17.218 53.2296 14.0888 47.4002 11.5451 41.3472C8.96397 35.1999 7.11536 28.7496 4.94285 22.4309L4.94534 22.4334ZM72.9481 38.8237C78.6908 36.7076 83.7857 34.3654 89.1273 32.9695C97.3838 30.8111 102.314 34.4001 103.144 42.8275C103.528 46.742 103.44 50.7334 103.161 54.6627C103.074 55.8897 101.669 57.0223 100.867 58.1996C100.194 56.985 99.0555 55.8176 98.9285 54.5509C98.4975 50.2018 98.6096 45.8006 98.1562 41.4565C97.7501 37.5645 94.9248 36.0543 91.4941 37.1149C85.5746 38.9479 79.8344 41.3547 74.4779 43.3467C76.4635 62.9336 69.5574 76.1671 52.0852 83.1862C57.6933 95.5057 71.0696 98.7048 82.4877 90.7816C87.9339 87.0013 90.7891 81.47 93.4848 75.7076C93.993 74.6197 95.7096 74.0907 96.8681 73.3058C97.1421 74.5974 98.0864 76.3087 97.5806 77.1159C94.1176 82.6398 91.2525 88.9908 86.5089 93.1735C73.7902 104.383 56.7391 100.918 48.2609 86.4921C47.4661 85.141 45.0519 84.7336 43.3877 83.8891C43.0738 84.3611 42.7623 84.833 42.4484 85.3049C43.7664 87.7216 44.8626 90.2923 46.4347 92.5302C57.5637 108.379 81.3566 108.431 94.3767 92.5649C101.442 83.9537 104.651 73.5989 106.884 62.9162C108.665 54.3845 109.562 45.813 106.771 37.3037C104.656 30.8508 100.301 27.612 93.6218 27.7089C85.4699 27.8256 78.2972 30.9278 71.3362 35.1502C71.9914 36.643 72.4997 37.8054 72.9457 38.8262L72.9481 38.8237Z" fill="black"/>
<path d="M65.484 50.5471C65.1153 51.0488 64.1611 52.3503 63.2044 53.6518C62.447 52.313 61.1664 51.0264 61.0219 49.6256C60.3592 43.2175 57.3296 38.0835 53.2587 33.2998C52.3742 32.2591 52.434 30.4211 52.0603 28.9482C53.5128 29.3779 55.4113 29.368 56.348 30.3093C61.5376 35.5228 64.9459 41.6875 65.4865 50.5446L65.484 50.5471Z" fill="black"/>
</g>
<defs>
<clipPath id="clip0_19_1115">
<rect width="113" height="109" fill="white"/>
</clipPath>
</defs>
</svg>
