<svg width="100" height="115" viewBox="0 0 100 115" fill="none" xmlns="http://www.w3.org/2000/svg">
<path d="M47.0903 0C49.0415 0 50.9904 0 52.9416 0C53.6634 0.150786 54.3785 0.330828 55.1048 0.447856C66.6946 2.3293 76.5633 12.2294 78.3634 23.8219C78.6138 25.4288 78.7581 27.0537 78.9566 28.7258C79.4055 28.7258 79.8138 28.7258 80.2243 28.7258C83.5989 28.7258 86.9757 28.7056 90.3502 28.7416C92.324 28.7618 93.6593 29.9929 93.9278 31.9238C93.9887 32.3694 94.0518 32.815 94.0857 33.2606C94.7105 41.6529 95.3173 50.0451 95.9557 58.4351C96.6685 67.7951 97.4151 77.1505 98.1369 86.5105C98.7572 94.5652 99.3573 102.62 99.9798 110.674C100.192 113.42 98.7617 114.998 95.994 114.998C85.532 114.998 75.0678 114.998 64.6058 114.998C44.3541 114.998 24.1046 114.998 3.85288 114.998C1.40544 114.998 -0.150996 113.434 0.0114152 111.057C0.399397 105.386 0.821214 99.7166 1.25205 94.0475C1.73929 87.6335 2.26261 81.2217 2.74984 74.81C3.23708 68.396 3.69273 61.9797 4.17545 55.5657C4.75066 47.9206 5.35518 40.2778 5.91911 32.6327C6.10634 30.0941 7.46202 28.7416 10.0132 28.7326C13.3133 28.7191 16.6134 28.7326 19.9135 28.7258C20.3083 28.7258 20.703 28.6898 21.0775 28.6718C21.1993 27.3507 21.2715 26.1602 21.4203 24.9764C22.8459 13.6607 31.1266 4.12298 42.1886 1.08701C43.7992 0.643653 45.4549 0.360085 47.088 0.00225053L47.0903 0ZM92.4616 107.776C90.6367 83.7784 88.8186 59.8867 87.0028 35.986H78.81C78.81 38.4301 78.8439 40.8179 78.7987 43.2035C78.7604 45.1885 77.1092 46.7278 75.1468 46.7076C73.2339 46.6873 71.6572 45.166 71.6166 43.217C71.5715 41.16 71.6008 39.1008 71.5985 37.0415C71.5985 36.6882 71.5985 36.3349 71.5985 35.9973H28.3927C28.3927 36.4721 28.3927 36.875 28.3927 37.2801C28.3927 39.2268 28.4198 41.1735 28.3814 43.118C28.3476 44.9094 27.0664 46.3745 25.361 46.6716C23.7144 46.9596 22.0046 46.0122 21.4181 44.385C21.2083 43.8066 21.179 43.1427 21.1699 42.5171C21.1406 40.3566 21.1587 38.1961 21.1587 36.0063H12.9502C11.1275 59.9632 9.3117 83.8436 7.4936 107.776H92.4616ZM28.3341 28.665H71.5963C71.2985 21.1618 68.3052 15.1213 62.0862 10.9871C54.6514 6.04268 46.788 5.78162 39.0712 10.2309C32.1214 14.2391 28.7311 20.5654 28.3341 28.665Z" fill="black"/>
</svg>
