<svg width="150" height="132" viewBox="0 0 150 132" fill="none" xmlns="http://www.w3.org/2000/svg">
<path d="M25.5392 0C52.1878 0 78.8392 0 105.488 0C107.615 1.12119 109.208 2.63965 109.241 5.25281C109.264 7.15971 109.273 9.06956 109.238 10.9765C109.205 12.6744 108.607 14.1723 107.201 15.1669C106.456 15.6937 106.277 16.2705 106.28 17.118C106.306 25.6314 106.295 34.1447 106.298 42.6552C106.298 43.1201 106.339 43.5851 106.362 44.0589C106.89 44.0824 107.231 44.1089 107.568 44.1118C111.374 44.1148 115.179 44.103 118.985 44.1177C120.922 44.1265 121.908 44.9387 121.881 46.4454C121.858 47.8844 120.881 48.6554 119.044 48.6819C118.703 48.6878 118.36 48.6819 118.02 48.6819C100.406 48.6819 82.7887 48.6819 65.1746 48.6819H63.4405C63.3906 49.0556 63.3466 49.241 63.3466 49.4264C63.3407 57.8898 63.3172 66.3531 63.3554 74.8165C63.3671 77.4149 64.8577 78.7921 67.5513 78.8039C73.8452 78.8275 80.1391 78.8216 86.4359 78.8069C89.5344 78.801 90.846 77.4444 90.849 74.2986C90.8548 68.3777 90.849 62.4599 90.849 56.5391C90.849 53.973 91.4476 53.3786 94.0443 53.3756C104.34 53.3756 114.637 53.3756 124.933 53.3756C130.79 53.3756 136.643 53.3844 142.5 53.3697C144.416 53.3638 145.575 52.4104 145.543 50.9478C145.51 49.5029 144.454 48.6849 142.559 48.6819C138.606 48.6731 134.654 48.6878 130.701 48.676C128.917 48.6702 127.841 47.8403 127.785 46.4719C127.729 45.0653 128.865 44.1207 130.699 44.1148C134.748 44.1001 138.8 44.1001 142.849 44.1148C144.938 44.1236 146.825 44.7592 148.192 46.3925C148.92 47.2635 149.404 48.3376 150 49.3205V52.5516C148.495 56.6067 145.525 57.9457 141.32 57.8839C130.247 57.7191 119.167 57.828 108.09 57.828H106.415C106.356 58.1693 106.309 58.3106 106.309 58.4519C106.303 77.3855 106.295 96.3221 106.324 115.256C106.324 115.691 106.644 116.259 106.996 116.533C108.401 117.631 109.167 119.049 109.226 120.8C109.291 122.804 109.302 124.814 109.226 126.818C109.126 129.472 107.33 131.688 104.786 131.826C100.846 132.041 96.8905 131.982 92.9411 131.921C91.5796 131.9 90.7815 130.823 90.8607 129.572C90.9399 128.298 91.8701 127.477 93.3724 127.465C96.691 127.439 100.01 127.427 103.328 127.474C104.34 127.489 104.745 127.147 104.704 126.12C104.652 124.802 104.693 123.478 104.693 122.157C104.693 120.771 103.987 120.079 102.577 120.079C70.6146 120.079 38.6522 120.079 6.68982 120.079C6.3964 120.079 6.10298 120.097 5.81249 120.079C4.87061 120.014 4.48036 120.479 4.49209 121.391C4.5097 122.713 4.49209 124.034 4.49209 125.355C4.49209 126.756 5.19141 127.456 6.59006 127.456C31.525 127.456 56.4629 127.456 81.3979 127.456C81.885 127.456 82.3779 127.421 82.862 127.477C84.0944 127.618 84.9982 128.566 84.9512 129.716C84.8984 130.949 84.2177 131.712 82.997 131.912C82.4718 131.997 81.929 131.991 81.392 131.991C56.4072 131.994 31.4223 131.994 6.43748 131.991C5.80662 131.991 5.16696 131.971 4.54197 131.882C1.88651 131.5 0.102506 129.452 0.0731641 126.75C0.0526246 124.793 0.084901 122.836 0.0643615 120.879C0.0467562 119.131 0.727494 117.698 2.12418 116.724C2.88708 116.192 3.01912 115.612 3.01618 114.779C2.98977 107.928 3.00151 101.081 3.00151 94.2298C3.00151 68.5926 3.00151 42.9553 3.00738 17.3151C3.00738 16.4676 2.97804 15.7879 2.11831 15.2052C0.660007 14.2282 0.0203482 12.7127 0.0614272 10.9147C0.0937036 9.49626 0.178796 8.06608 0.043822 6.65944C-0.258402 3.49304 0.953429 1.27421 3.87004 0H17.0476C17.9337 0.7916 18.7905 1.58614 18.2653 2.97512C17.7459 4.34939 16.628 4.45532 15.3956 4.44355C12.2736 4.42001 9.15163 4.46415 6.02962 4.42295C4.89408 4.40824 4.43047 4.84377 4.48036 5.98261C4.53611 7.20385 4.49209 8.42804 4.49209 9.64928C4.49209 11.0834 5.22076 11.8004 6.67808 11.8004C38.6287 11.8004 70.5794 11.8004 102.53 11.8004C102.87 11.8004 103.214 11.7798 103.554 11.8004C104.358 11.8534 104.71 11.5003 104.696 10.6851C104.669 9.31675 104.693 7.94543 104.693 6.57705C104.693 5.14883 103.957 4.43472 102.486 4.43472C77.6098 4.43472 52.7306 4.43472 27.8543 4.43472C27.3174 4.43472 26.7745 4.47004 26.2464 4.39647C24.9964 4.22285 24.2306 3.4283 24.3949 2.21001C24.4946 1.43606 25.1402 0.735688 25.5392 0ZM95.2855 57.9045C95.2855 58.5872 95.2855 59.1169 95.2855 59.6496C95.2796 64.8847 95.3383 70.1199 95.2503 75.3521C95.1769 79.7956 91.741 83.2857 87.3455 83.3387C80.5147 83.4182 73.6838 83.4182 66.853 83.3387C62.4047 83.2857 58.9453 79.6779 58.9306 75.2079C58.9012 65.7675 58.8983 56.3242 58.957 46.8839C58.9629 46.0894 59.356 45.1918 59.8284 44.5238C60.7967 43.1584 61.9411 41.9195 63.1676 40.4422H7.55835V91.4989H101.653V57.9045H95.2855ZM7.53487 115.553H101.612V96.1838H7.53487V115.553ZM7.529 35.8427H9.43918C26.9564 35.8427 44.4766 35.7456 61.991 35.9222C65.5267 35.9575 68.1 35.2983 70.2009 32.2055C72.9239 28.1945 81.2776 28.1827 83.8274 32.0524C86.1454 35.5661 89.109 36.1899 92.8648 35.8898C95.7579 35.6573 98.6863 35.8427 101.656 35.8427V16.4941H7.529V35.8427ZM88.0351 44.0177C87.771 43.6351 87.6301 43.3967 87.4541 43.1849C85.3268 40.6394 83.2112 38.0821 81.0546 35.5602C78.8774 33.0147 75.2272 33.0795 73.05 35.6691C71.0401 38.0615 69.036 40.4569 67.0349 42.8523C66.7503 43.1907 66.4979 43.5556 66.1458 44.0177H88.0351ZM91.0368 40.4393C91.7439 41.3015 92.2457 41.9548 92.7944 42.5639C93.2726 43.0966 93.7832 43.9794 94.3231 44.0118C96.7644 44.1677 99.2232 44.0795 101.667 44.0795V40.4363H91.0368V40.4393Z" fill="black"/>
</svg>
