<svg width="168" height="137" viewBox="0 0 168 137" fill="none" xmlns="http://www.w3.org/2000/svg">
<g clip-path="url(#clip0_19_1084)">
<path d="M168 18.157C162.686 30.1185 157.375 42.0767 152.06 54.0382C151.765 54.7011 151.473 55.3604 151.071 56.2705C153.304 56.2705 155.283 56.2705 157.265 56.2705C161.311 56.2705 162.246 56.9986 162.929 61.0236C164.372 69.5337 164.067 77.9408 161.229 86.1693C159.467 91.2761 156.584 95.6548 152.747 99.4565C147.268 104.886 142.706 110.985 139.779 118.18C139.03 120.021 138.439 121.93 137.883 123.84C136.965 126.982 135.512 128.174 132.228 128.181C123.946 128.198 115.66 128.205 107.377 128.167C106.264 128.164 105.522 128.435 104.794 129.366C102.654 132.099 99.8195 133.827 96.4289 134.668C95.869 134.805 95.23 135.214 94.9242 135.688C94.0482 137.031 93.21 137.374 91.7844 136.581C88.7476 134.884 85.7692 133.078 82.7014 131.443C81.9972 131.069 80.9529 130.942 80.1799 131.141C76.7068 132.041 73.2819 133.112 69.8294 134.095C66.5796 135.022 64.7142 133.988 63.7283 130.756C63.3298 129.451 62.7217 128.16 62.6015 126.828C62.4881 125.543 62.8694 124.211 63.0584 122.902C63.1202 122.487 63.4809 121.972 63.3366 121.69C62.1171 119.279 60.8117 116.913 59.3964 114.275C58.7471 116.786 58.407 118.987 57.5928 120.996C56.6825 123.242 55.4698 125.402 54.1472 127.442C52.9586 129.273 51.9143 129.242 50.4508 127.655C47.5102 124.468 46.1533 120.591 45.6345 116.37C45.4799 115.131 45.3838 113.88 45.2429 112.459C44.1608 113.029 43.1817 113.544 42.1546 114.087C44.8513 116.326 45.1708 117.696 43.8207 120.849C43.3501 121.948 42.8932 123.053 42.3951 124.142C41.1652 126.828 39.1006 127.676 36.3798 126.546C32.9583 125.128 29.5436 123.692 26.1736 122.16C25.1842 121.711 24.3975 121.776 23.4494 122.174C20.7183 123.321 17.9563 124.389 15.2012 125.481C12.714 126.467 11.9651 126.052 11.4705 123.431C5.63732 121.59 1.67642 117.926 0.326341 111.83C-1.38444 104.124 4.02616 96.4275 11.8415 95.2426C15.2356 94.7275 18.4132 95.2598 21.4912 96.7022C21.9275 96.9048 22.5493 97.0147 22.9822 96.8671C24.6998 96.2798 25.4556 96.5545 26.1461 98.3232C27.2625 101.187 28.3309 104.072 29.4233 106.943C29.5848 107.366 29.7634 107.781 29.839 107.97C32.4189 105.326 35.0263 102.65 37.7471 99.8617C37.1631 99.3947 36.2974 98.7113 35.4454 98.0107C32.3674 95.4727 29.7394 92.5777 28.2725 88.7965C27.2729 86.2208 27.771 85.1974 30.4746 84.9982C33.2331 84.7956 36.0157 84.9536 38.7845 84.9536C38.307 82.2851 37.6372 79.3832 37.2971 76.44C36.6581 70.8559 36.8814 65.2718 37.9601 59.746C38.4513 57.2355 39.8289 56.274 42.663 56.2705C52.5464 56.2602 62.4297 56.2671 72.3131 56.2671C72.9383 56.2671 73.5635 56.2671 74.1716 56.2671C74.2197 56.0816 74.3021 55.9271 74.2609 55.8859C70.7294 52.273 69.8191 47.6917 69.2694 42.9078C69.0461 40.9537 68.4656 38.9996 67.7407 37.1657C67.3319 36.1354 66.267 35.3764 65.5524 34.4526C65.0749 33.8344 64.1886 32.8522 64.3707 32.5397C64.776 31.8357 65.6933 31.063 66.4628 30.9977C71.3546 30.5787 76.0438 31.4922 80.2658 34.037C82.3923 35.318 84.2576 37.0214 86.3772 38.639C88.4281 36.2521 90.5648 33.673 91.5302 30.3898C91.8153 29.4214 91.4924 28.2915 91.6126 27.2509C91.6951 26.5366 91.8634 25.5338 92.3478 25.2453C92.8321 24.9534 94.1376 25.1114 94.4261 25.5269C99.634 33.0136 103.725 40.9056 102.059 50.4666C101.726 52.3829 100.747 54.1894 99.9947 56.2465C102.808 56.2465 105.68 56.3014 108.545 56.1881C108.968 56.1709 109.442 55.4154 109.751 54.914C119.102 39.7105 128.494 24.531 137.735 9.25877C140.614 4.5023 144.331 1.17105 149.92 0.206024C150.02 0.188852 150.099 0.0755214 150.188 0.00683594C151.559 0.00683594 152.929 0.00683594 154.303 0.00683594C154.565 0.113298 154.815 0.264406 155.083 0.322789C161.761 1.71367 165.904 5.75581 167.663 12.305C167.732 12.5591 167.897 12.7858 168.014 13.0262V18.1638L168 18.157ZM59.4582 87.3988C60.3685 87.0004 61.2411 86.5951 62.1343 86.2311C66.4525 84.4625 70.8565 83.5695 75.4736 84.9742C77.8955 85.7091 78.2321 86.4063 77.2256 88.6935C75.1129 93.4843 72.3646 97.784 67.6857 100.549C72.6704 105.133 75.0957 108.344 76.7927 112.551C77.4935 114.289 77.0882 115.086 75.2606 115.501C74.7075 115.628 74.1372 115.776 73.5773 115.762C70.4168 115.687 67.2598 115.567 64.113 115.46C64.7486 116.717 65.5627 118.146 66.1983 119.647C66.638 120.687 67.222 120.78 68.1907 120.478C70.963 119.616 73.7731 118.874 76.5282 117.964C77.1947 117.744 77.8989 117.167 78.2493 116.559C79.8811 113.753 81.396 110.875 82.9557 108.028C83.6187 106.816 84.6733 106.04 85.8482 107.019C86.7585 107.778 87.3735 107.575 88.2529 107.266C96.9373 104.223 105.972 108.987 107.741 117.713C108.188 119.921 107.81 122.301 107.81 124.722H129.257C132.303 124.722 134.296 123.285 135.238 120.409C138.089 111.652 143.101 104.244 149.549 97.7771C153.19 94.1265 156.165 90.0981 157.886 85.2077C159.621 80.2761 160.418 75.2174 160.14 69.9595H40.4575C40.3304 75.5677 41.0793 80.8908 43.0855 85.9976C43.3432 86.6535 44.0715 87.124 44.8891 88.0135C44.9578 87.0622 44.975 86.7222 45.0059 86.3857C45.4559 81.2205 47.0533 76.5808 51.107 73.0641C52.5704 71.7934 53.5941 71.8381 54.5972 73.514C55.7343 75.4063 56.8474 77.3741 57.5516 79.4484C58.4036 81.9554 58.8124 84.6136 59.4582 87.3953V87.3988ZM156.121 36.7742C148.426 32.2821 140.865 27.8657 133.183 23.3805C126.45 34.3564 119.806 45.1881 113.015 56.2637C124.365 56.2637 135.32 56.274 146.275 56.2224C146.735 56.2224 147.416 55.7176 147.622 55.2746C150.463 49.1925 153.238 43.0795 156.121 36.7742ZM160.113 66.1681C159.924 64.7017 159.628 63.4138 159.621 62.1191C159.608 60.1512 158.68 59.7906 156.856 59.7941C119.15 59.849 81.4441 59.8353 43.7417 59.8353C43.3432 59.8353 42.8829 59.7117 42.5565 59.8662C42.079 60.0894 41.4057 60.4569 41.3232 60.8656C40.9831 62.5724 40.832 64.317 40.5984 66.1681H160.113ZM31.8555 88.3329C32.1407 88.8961 32.2781 89.2121 32.4533 89.504C34.7927 93.3778 38.2315 96.06 42.024 98.3713C43.9787 99.563 43.9203 100.916 41.9622 102.053C40.5365 102.88 39.0869 103.708 37.802 104.728C35.2908 106.72 33.3258 109.172 31.993 112.338C37.3932 112.524 41.8763 110.948 45.8166 107.64C46.4006 107.153 47.5583 106.861 48.2145 107.105C48.6954 107.287 48.984 108.485 49.0217 109.244C49.1214 111.236 48.9015 113.245 49.0492 115.23C49.2863 118.424 50.0936 121.463 52.2063 124.204C52.5773 123.62 52.8727 123.211 53.1063 122.772C55.0782 119.056 55.724 115.048 55.8511 110.893C55.8786 110.031 56.1947 108.746 56.7821 108.444C57.4004 108.128 58.5375 108.671 59.3861 109C60.1727 109.306 60.8495 109.886 61.6224 110.247C65.1127 111.878 68.7438 112.727 72.8353 112.256C72.3955 111.473 72.0898 110.872 71.736 110.302C69.5683 106.796 66.6861 104.014 63.2439 101.744C62.5568 101.29 61.7633 100.209 61.8766 99.5698C61.99 98.9482 63.158 98.4331 63.9447 98.0381C64.8997 97.5608 66.0505 97.4234 66.9231 96.8465C70.1145 94.7309 72.0108 91.5886 73.7353 87.9105C72.0554 87.9105 70.6367 87.8074 69.2385 87.9311C65.3944 88.2711 62.0278 89.9264 58.7849 91.8942C57.0775 92.9314 55.9164 92.3029 55.7893 90.3145C55.7068 89.006 55.7034 87.6872 55.566 86.3857C55.2122 82.9823 54.3739 79.7232 52.2612 76.2477C51.1722 78.3872 49.9218 80.046 49.4889 81.8936C48.8843 84.4625 48.9359 87.179 48.6164 89.8199C48.503 90.7644 48.3965 92.1072 47.7988 92.4746C47.2285 92.8249 45.9643 92.2651 45.1089 91.8771C43.2985 91.0563 41.6221 89.9161 39.7705 89.2224C37.3177 88.302 34.7343 87.8899 31.8624 88.3329H31.8555ZM160.425 27.4604C161.628 24.7473 162.923 22.2609 163.85 19.644C165.801 14.156 163.448 8.08081 158.433 5.16855C153.414 2.25285 146.866 3.17667 143.17 7.60001C141.332 9.80138 139.951 12.3805 138.367 14.7845C138.693 15.0524 138.81 15.1829 138.954 15.2653C146.042 19.2971 153.132 23.3221 160.422 27.4638L160.425 27.4604ZM16.7849 115.58C16.2558 115.196 15.7543 114.907 15.342 114.523C13.6759 112.967 11.948 111.459 10.433 109.763C9.89709 109.162 9.48486 107.884 9.77342 107.269C10.0517 106.675 11.2884 106.486 12.1369 106.229C12.4804 106.126 12.9167 106.318 13.3083 106.383C15.5894 106.771 17.8704 107.16 20.2648 107.568C20.6599 105.59 21.0927 103.767 21.347 101.919C21.4157 101.417 21.0962 100.607 20.6942 100.343C17.9872 98.5773 14.9676 98.1274 11.8483 98.8246C6.97709 99.9201 3.72042 103.784 3.4559 108.574C3.19825 113.286 6.50301 117.902 11.2918 119.677C12.8549 120.258 14.0572 120.388 14.8542 118.558C15.2562 117.634 15.9535 116.837 16.7849 115.577V115.58ZM90.1904 125.584C90.9736 127.058 91.8187 128.308 92.3272 129.682C93.028 131.567 94.1891 131.756 95.9033 131.217C100.483 129.778 103.537 126.889 104.409 122.109C105.161 117.978 103.664 114.526 100.304 112.071C96.5148 109.303 92.3718 109.189 88.1567 111.095C87.7479 111.281 87.2635 111.899 87.2773 112.301C87.3357 113.822 87.583 115.333 87.7685 116.951C90.5923 117.153 93.2616 117.366 95.9342 117.528C97.1538 117.6 98.2908 117.837 98.6138 119.18C98.9264 120.478 97.9954 121.12 96.9992 121.683C94.7662 122.94 92.547 124.228 90.1835 125.581L90.1904 125.584ZM91.0355 121.044C90.9805 120.928 90.9256 120.814 90.8706 120.697C89.3419 120.564 87.8166 120.412 86.2845 120.296C85.0546 120.2 84.4638 119.544 84.3607 118.328C84.2439 116.951 84.055 115.58 83.842 113.716C82.7598 115.69 81.8357 117.184 81.1006 118.767C80.4685 120.127 79.5135 120.852 78.0775 121.24C74.4499 122.215 70.8668 123.349 67.2392 124.334C65.9543 124.685 65.5455 125.231 66.0883 126.515C66.4628 127.398 66.6792 128.359 66.8784 129.304C67.1739 130.688 67.7441 131.158 69.2591 130.66C72.77 129.503 76.3633 128.593 79.8948 127.487C81.3067 127.044 82.4953 127.106 83.763 127.944C85.3191 128.974 86.999 129.809 88.6273 130.729C88.2048 129.307 87.5968 128.153 86.9853 127.003C85.5871 124.386 85.6558 124.159 88.301 122.645C89.2182 122.119 90.1251 121.58 91.0355 121.048V121.044ZM94.0963 56.0919C94.22 56.2018 94.3471 56.3117 94.4708 56.4216C94.9826 56.0301 95.5976 55.721 95.9961 55.2334C98.6103 52.0326 99.2493 48.303 98.8061 44.3021C98.3389 40.0951 96.8549 36.259 94.859 32.7389C92.9489 35.4554 91.1729 38.0895 89.2869 40.6411C85.9409 45.1641 85.5837 50.0579 87.3872 55.2093C87.5487 55.6695 88.2769 56.0748 88.8197 56.2327C89.9224 56.5556 90.4446 55.8378 90.7881 54.8762C92.1039 51.1912 92.042 47.3758 91.8703 43.5534C91.8153 42.3136 91.8187 41.1391 93.4058 41.0498C95.0685 40.9571 95.2369 42.1728 95.3296 43.471C95.6285 47.7432 95.4533 51.9674 94.0963 56.0954V56.0919ZM17.5647 120.752C19.8251 119.86 21.6218 119.035 23.4975 118.458C24.3357 118.197 25.4178 118.173 26.2285 118.476C28.8943 119.471 31.488 120.66 34.1057 121.79C37.3326 123.182 39.5712 122.238 40.8217 118.96C40.8423 118.908 40.8835 118.843 40.8698 118.798C40.7118 118.304 40.6808 117.521 40.3545 117.363C38.4719 116.466 36.6375 115.488 34.3633 115.721C32.7487 115.889 31.0551 115.656 29.444 115.35C28.829 115.234 27.8053 114.231 27.9015 113.929C28.4546 112.191 27.1389 111.092 26.706 109.725C26.1461 107.96 25.3972 106.256 24.5555 104.072C24.1467 106.116 23.8685 107.661 23.5284 109.196C23.0921 111.16 22.4703 111.538 20.4984 111.181C19.248 110.954 17.9907 110.766 16.699 110.553C17.8292 111.803 18.8254 112.96 19.8835 114.056C20.7286 114.931 20.842 115.814 20.1755 116.82C19.3957 117.995 18.6193 119.173 17.575 120.752H17.5647ZM82.7701 47.4616C83.148 46.033 83.3885 44.6764 83.8763 43.416C84.2405 42.475 84.0756 41.8431 83.4572 41.1288C80.6368 37.8628 77.1053 35.8229 72.904 34.9265C72.1825 34.772 71.4405 34.7102 71.0798 34.6586C71.7497 38.1547 72.5123 41.5169 73.0208 44.9202C73.7456 49.7729 75.6419 53.7463 80.3964 55.8206C80.9597 56.0645 81.609 56.1091 82.4472 56.298C81.1281 51.4316 78.8024 47.4891 75.9511 43.8282C75.1884 42.846 74.8758 41.8706 75.9889 41.0086C77.1156 40.1397 78.0123 40.7133 78.7199 41.7126C80.0631 43.6015 81.3926 45.5006 82.7736 47.465L82.7701 47.4616ZM135.011 20.403C142.617 24.8435 150.068 29.1947 157.598 33.5906C158.075 32.4951 158.47 31.5815 158.896 30.5993C151.37 26.3271 144.011 22.1476 136.553 17.9131C136.004 18.8026 135.557 19.5169 135.011 20.3995V20.403Z" fill="black"/>
<path d="M146.76 77.1165C146.042 83.6107 143.991 89.394 139.068 93.862C138.226 94.6244 137.199 94.8888 136.56 93.9307C136.186 93.3709 136.172 91.9697 136.591 91.5713C140.902 87.4914 142.641 82.3297 143.345 76.6357C143.427 75.9797 144.18 75.1555 144.819 74.9048C145.221 74.7468 146.072 75.4131 146.557 75.8836C146.811 76.1308 146.711 76.7421 146.763 77.1165H146.76Z" fill="black"/>
<path d="M45.6174 99.9647C45.6414 96.0874 48.7057 93.103 52.646 93.1202C56.4729 93.1374 59.6712 96.3793 59.5716 100.136C59.472 103.979 56.2943 107.053 52.4708 107.005C48.5992 106.96 45.5933 103.869 45.6174 99.9613V99.9647ZM55.992 99.9819C55.968 98.0175 54.453 96.5476 52.4846 96.5819C50.5848 96.6163 48.9977 98.2407 49.0355 100.109C49.0767 102.015 50.6673 103.523 52.6082 103.495C54.587 103.468 56.0161 101.981 55.992 99.9819Z" fill="black"/>
<path d="M50.4921 113.88C50.4921 112.912 50.2585 111.861 50.5676 111.006C50.815 110.319 51.6704 109.533 52.3506 109.43C52.804 109.361 53.8346 110.381 53.8964 110.989C54.0991 112.96 54.0957 114.976 53.8964 116.947C53.838 117.534 52.9552 118.331 52.3093 118.506C51.265 118.788 50.5986 117.995 50.5092 116.954C50.4199 115.938 50.4886 114.907 50.4921 113.88Z" fill="black"/>
<path d="M53.9927 86.5059C53.9927 87.416 54.0373 88.3295 53.9824 89.2362C53.9137 90.3351 53.3365 91.2761 52.2029 91.0082C51.5296 90.8503 50.6364 89.9264 50.5608 89.2671C50.3444 87.3576 50.4337 85.4035 50.5161 83.47C50.5574 82.4294 51.2513 81.6292 52.2956 81.8971C52.9449 82.062 53.7178 82.8106 53.9033 83.4494C54.1747 84.3938 53.9755 85.4791 53.9755 86.5025C53.9824 86.5025 53.9892 86.5025 53.9995 86.5025L53.9927 86.5059Z" fill="black"/>
<path d="M42.8966 96.5856C41.9485 96.0567 41.203 95.6583 40.4713 95.2325C39.2896 94.5422 38.0082 93.9652 36.9948 93.0792C36.5138 92.6602 36.2459 91.5647 36.4245 90.9259C36.7028 89.9128 37.7025 89.6243 38.654 90.1532C40.4473 91.1491 42.2508 92.1451 43.9032 93.3471C44.3566 93.6768 44.525 94.7792 44.3772 95.4282C44.2707 95.8987 43.4291 96.201 42.9001 96.589L42.8966 96.5856Z" fill="black"/>
<path d="M61.5847 96.6575C60.9182 96.0805 60.1693 95.7405 60.0388 95.2391C59.8876 94.6553 60.0525 93.6147 60.4682 93.3194C62.2236 92.0727 64.0856 90.9463 66.0093 89.971C66.4353 89.7546 67.4762 90.1667 67.8541 90.6132C68.1805 90.9978 68.2389 92.2101 67.9503 92.423C65.9578 93.8895 63.8417 95.1876 61.5847 96.6575Z" fill="black"/>
<path d="M42.9378 103.722C43.6146 104.337 44.3566 104.697 44.4734 105.202C44.6108 105.8 44.4287 106.83 43.9993 107.139C42.292 108.358 40.4781 109.457 38.6025 110.402C38.1353 110.639 37.0978 110.34 36.689 109.924C36.3352 109.567 36.2149 108.314 36.4829 108.111C38.5063 106.596 40.6533 105.243 42.9378 103.722Z" fill="black"/>
<path d="M61.4094 103.863C62.0896 104.158 62.5225 104.299 62.9072 104.522C64.4256 105.408 66.0265 106.198 67.3903 107.283C67.9125 107.699 67.8816 108.805 68.1049 109.595C67.3079 109.808 66.3322 110.422 65.7517 110.161C63.955 109.347 62.2545 108.276 60.6434 107.129C60.1934 106.809 59.9048 105.81 60.0422 105.243C60.1727 104.694 60.9491 104.299 61.4129 103.863H61.4094Z" fill="black"/>
</g>
<defs>
<clipPath id="clip0_19_1084">
<rect width="168" height="137" fill="white"/>
</clipPath>
</defs>
</svg>
