<svg width="120" height="128" viewBox="0 0 120 128" fill="none" xmlns="http://www.w3.org/2000/svg">
<g clip-path="url(#clip0_19_1111)">
<path d="M76.8015 108.302C77.266 108.302 77.5291 108.302 77.7907 108.302C84.8561 108.314 91.9201 108.323 98.9855 108.341C99.5357 108.341 100.084 108.424 100.635 108.433C102.751 108.472 104.053 110.022 103.662 112.381C103.345 114.291 102.285 115.785 100.95 117.108C99.0772 118.964 96.8343 120.271 94.4576 121.366C89.9072 123.463 85.0936 124.708 80.2019 125.681C74.8938 126.736 69.5331 127.525 64.1318 127.739C57.7293 127.993 51.3117 128.044 44.9032 127.966C41.0052 127.919 37.0966 127.6 33.2197 127.166C25.1199 126.259 17.1194 124.851 9.59548 121.528C6.99329 120.378 4.54894 118.967 2.57062 116.878C1.2357 115.47 0.229997 113.873 0.106727 111.879C0.0706485 111.296 0.145813 110.673 0.324704 110.117C0.622355 109.186 1.27328 108.631 2.32708 108.611C9.81496 108.473 17.3013 108.325 24.7892 108.181C25.389 108.169 25.9888 108.18 26.6713 108.024C26.4473 107.875 26.2294 107.715 25.9979 107.58C17.0834 102.39 10.3592 95.1296 5.58772 86.0456C2.45637 80.0915 0.733599 73.7194 0.13529 67.0386C0.0390795 65.9718 0.0405828 64.8961 0.00300054 63.8248C-0.046608 62.352 0.526145 61.1714 1.65361 60.22C3.7056 58.4865 6.08681 57.3433 8.67096 56.7994C12.8276 55.9244 17.0232 55.2292 21.2174 54.5505C23.2889 54.2149 25.392 54.0606 27.4861 53.8793C28.328 53.8074 29.1954 53.7984 30.0297 53.9138C31.9103 54.176 33.0498 56.308 32.2185 58.016C31.6352 59.2146 30.8249 60.0012 29.272 60.1316C22.8139 60.6769 16.3768 61.4261 10.0525 62.9154C9.52784 63.0382 9.01972 63.23 8.5041 63.3903C8.50259 63.4697 8.50109 63.5506 8.49808 63.63C8.93103 63.7454 9.35646 63.9027 9.79692 63.9686C14.842 64.7298 19.8705 65.6527 24.9395 66.1936C39.4959 67.7458 54.0943 67.6454 68.6973 66.9966C77.239 66.6176 85.701 65.5703 94.0968 63.9731C94.7432 63.8503 95.3791 63.6705 96.021 63.5177C96.021 63.4413 96.021 63.3633 96.0225 63.2869C94.838 63.0307 93.6639 62.7026 92.4673 62.5303C86.9953 61.7452 81.5339 60.8492 76.0378 60.2814C68.0103 59.4529 59.9406 59.309 51.871 59.318C50.6743 59.318 49.4627 59.2521 48.2826 59.0648C46.6305 58.8026 45.8172 57.4811 45.96 55.5364C46.0577 54.1954 47.1957 53.1257 48.6885 53.0478C49.8881 52.9863 51.0923 52.9789 52.2949 52.9848C60.6141 53.0178 68.9273 53.2276 77.2164 53.9647C83.1499 54.4921 89.0638 55.1933 94.8304 56.7755C96.9591 57.3598 99.0006 58.1404 100.919 59.2716C101.735 59.754 102.72 60.0327 103.664 60.2065C111.732 61.6973 118.345 68.2042 119.734 76.2574C120.711 81.9254 118.939 86.8846 115.248 91.1607C111.646 95.3349 107.084 97.7621 101.488 98.0512C98.4068 98.2101 95.4558 97.6332 92.6552 96.3582C91.9607 96.0421 91.5337 96.117 90.994 96.6893C87.8852 99.9885 84.6126 103.112 80.8093 105.629C79.6623 106.389 78.5002 107.126 77.3472 107.877C77.2134 107.964 77.0946 108.073 76.8 108.304L76.8015 108.302ZM96.929 69.5422C96.4495 69.6336 96.1759 69.6666 95.9128 69.737C87.9258 71.9214 79.7359 72.7635 71.5129 73.2609C66.4664 73.565 61.3988 73.631 56.3402 73.6415C49.2522 73.6564 42.1612 73.6145 35.0762 73.4107C31.1286 73.2969 27.1794 72.9163 23.2529 72.4548C19.4315 72.0054 15.6327 71.3416 11.8369 70.6899C10.2464 70.4172 8.69201 69.9302 7.10153 69.5362C7.0414 69.6606 6.9512 69.7535 6.96473 69.8299C7.20225 71.2038 7.37813 72.5927 7.71186 73.9441C8.82279 78.4479 10.4659 82.7449 12.8892 86.7258C15.0344 90.2498 17.6155 93.4156 20.6416 96.2218C34.7019 109.26 55.6592 111.67 72.1548 103.607C86.3414 96.6713 94.2081 85.0478 96.9275 69.5407L96.929 69.5422ZM93.3602 115.167C92.368 114.743 11.5032 114.511 9.7834 114.88C10.078 115.016 10.3201 115.134 10.5666 115.242C14.155 116.805 17.8831 117.95 21.6939 118.805C30.7422 120.837 39.9348 121.634 49.1891 121.794C56.7597 121.926 64.3062 121.543 71.8241 120.6C78.3258 119.785 84.6817 118.366 90.8648 116.2C91.678 115.915 92.4613 115.542 93.3602 115.167ZM100.602 91.8199C103.53 91.7405 106.23 91.0349 108.595 89.3014C112.944 86.1145 114.696 80.0481 112.843 74.6992C111.458 70.7049 108.709 68.1233 104.66 66.9097C103.761 66.6401 103.704 66.73 103.58 67.6244C103.055 71.403 102.487 75.1697 101.221 78.8C99.886 82.6311 98.2143 86.2988 96.1203 89.7778C95.531 90.7562 95.6182 91.0079 96.7546 91.2371C98.0249 91.4933 99.3178 91.6312 100.602 91.8199Z" fill="black"/>
<path d="M34.6192 45.6163C34.511 42.9523 35.6339 40.7903 37.3312 38.9445C39.2914 36.8124 41.4186 34.8347 43.4661 32.7821C44.4011 31.8442 45.3527 30.9198 46.2321 29.9324C46.7252 29.378 47.1371 28.7353 47.4994 28.085C48.2601 26.7201 48.2255 25.3402 47.0815 24.23C45.7045 22.895 44.2388 21.644 42.7415 20.4424C40.6173 18.7388 38.4 17.1492 36.2849 15.4352C35.6204 14.8973 35.0702 14.1676 34.6207 13.4335C33.9593 12.3517 34.2163 11.0108 35.1078 10.1328C35.6234 9.62487 36.3766 9.52299 36.9689 9.88107C37.6739 10.3081 38.0467 11.0527 37.7025 11.7224C37.3357 12.4356 37.6649 12.8072 38.1565 13.1638C40.1408 14.6006 42.1717 15.979 44.114 17.4683C45.7571 18.7283 47.4152 20.0034 48.8689 21.4687C51.6861 24.3079 51.9942 27.3808 49.6852 30.6635C48.3893 32.5064 46.7402 34.1156 45.1663 35.7472C43.6224 37.3473 42.0004 38.8755 40.3588 40.3768C37.9265 42.6017 37.5221 45.3646 38.1249 48.4C38.9532 52.5742 41.0277 56.173 43.4104 59.6266C44.0764 60.5914 44.7033 61.5833 45.3497 62.5617C45.8082 63.2569 45.4444 63.7333 44.9107 64.1513C44.2117 64.6997 43.6179 64.7506 43.0887 64.2862C42.7896 64.0225 42.4964 63.7408 42.2544 63.4262C39.1907 59.4318 36.6742 55.1377 35.3468 50.2504C34.9394 48.7491 34.8537 47.1625 34.6207 45.6148L34.6192 45.6163Z" fill="black"/>
<path d="M68.6913 21.6185C68.6131 23.9093 68.0103 26.4384 66.9414 28.8641C65.4366 32.2817 63.6477 35.5329 61.3477 38.489C60.8351 39.1482 60.3179 39.7715 59.3604 39.7925C58.6944 39.8075 58.308 39.4958 57.9608 38.9744C57.6241 38.468 57.83 38.0979 58.1051 37.6874C59.3784 35.7741 60.7103 33.8968 61.8949 31.9296C63.6568 29.0035 64.9947 25.9035 65.4457 22.471C65.7614 20.0753 65.2743 17.9477 63.52 16.2127C61.8318 14.5437 60.0654 12.9495 58.4118 11.2475C56.7957 9.58441 55.2053 7.88538 53.7381 6.09345C52.7444 4.88135 52.2663 3.38009 52.1626 1.79492C52.107 0.955889 52.7549 0.137835 53.5471 0.0119801C54.2417 -0.0973935 55.2323 0.590311 55.2669 1.3784C55.3391 3.01001 56.2245 4.20114 57.2678 5.28888C59.6054 7.72356 61.9986 10.1043 64.3648 12.512C64.9601 13.1188 65.5238 13.7556 66.1191 14.3639C67.9997 16.2862 68.6898 18.6444 68.6913 21.62V21.6185Z" fill="black"/>
</g>
<defs>
<clipPath id="clip0_19_1111">
<rect width="120" height="128" fill="white"/>
</clipPath>
</defs>
</svg>
