<svg width="90" height="90" viewBox="0 0 90 90" fill="none" xmlns="http://www.w3.org/2000/svg">
<mask id="mask0_226_6" style="mask-type:alpha" maskUnits="userSpaceOnUse" x="0" y="0" width="90" height="90">
<rect x="0.5" y="0.5" width="89" height="89" stroke="#D9D9D9"/>
</mask>
<g mask="url(#mask0_226_6)">
</g>
<g clip-path="url(#clip0_226_6)">
<path d="M66.1181 37.232C65.0828 35.0568 64.1486 33.0947 63.0888 30.8663C69.965 32.9713 76.6352 35.0127 83.4997 37.1125C80.1996 43.3041 76.9772 49.3516 73.6356 55.6224C72.8556 53.7252 72.178 52.0786 71.5003 50.4333C62.3437 53.9563 50.7681 63.4944 52.1402 85.2481C50.3042 85.3377 48.4644 85.4922 46.6245 85.4987C44.3441 85.5078 42.0637 85.3533 39.7846 85.3481C38.507 85.3455 37.9823 84.7001 37.9913 83.5379C38.1066 69.7535 41.3459 57.1248 51.5416 47.1128C55.0089 43.708 58.9814 40.9913 63.2766 38.7383C64.1836 38.263 65.0854 37.7787 66.1181 37.2307V37.232Z" fill="#FF0000"/>
<path d="M45.1414 52.0331C43.0359 49.6969 40.9771 47.5699 39.1333 45.2701C38.5956 44.5987 38.4984 43.4352 38.4919 42.4963C38.4505 35.7295 38.4855 28.9626 38.4919 22.1944C38.4919 21.9412 38.4595 21.6893 38.431 21.2711H31.5186C36.2595 15.5392 40.7335 10.1267 45.3863 4.5C49.9717 10.0397 54.4975 15.5093 59.2229 21.2192C57.4141 21.2192 55.9306 21.2581 54.4496 21.2088C52.6525 21.149 52.1977 21.5399 52.1964 23.493C52.1912 29.6885 52.1679 35.8853 52.2573 42.0795C52.2819 43.8378 51.7248 45.1402 50.4783 46.3531C48.6657 48.1179 47.0007 50.0372 45.1414 52.0331Z" fill="#FF0000"/>
<path d="M37.0328 72.7739C35.3782 61.5153 28.4036 54.5341 18.5939 49.6814C17.8839 51.4253 17.1907 53.1278 16.3692 55.1484C13.0316 48.8853 9.8325 42.8833 6.5 36.6294C13.2661 34.5464 19.887 32.5077 26.8449 30.3663C25.8044 32.6246 24.9065 34.5737 23.9438 36.6618C26.1931 37.9955 28.4152 39.2811 30.6049 40.6186C35.2927 43.4794 39.3417 47.0738 42.7623 51.376C44.128 53.0927 44.2057 53.89 43.1329 55.7314C40.3848 60.4466 38.7172 65.537 37.7986 70.8962C37.7027 71.4559 37.5472 72.0052 37.4008 72.5532C37.3827 72.6194 37.2414 72.6532 37.0328 72.7739Z" fill="#FF0000"/>
</g>
<defs>
<clipPath id="clip0_226_6">
<rect width="77" height="81" fill="white" transform="translate(6.5 4.5)"/>
</clipPath>
</defs>
</svg>
