<svg width="90" height="90" viewBox="0 0 90 90" fill="none" xmlns="http://www.w3.org/2000/svg">
<mask id="mask0_226_9" style="mask-type:alpha" maskUnits="userSpaceOnUse" x="0" y="0" width="90" height="90">
<rect width="90" height="90" fill="#D9D9D9"/>
</mask>
<g mask="url(#mask0_226_9)">
<path d="M22.4218 85H14.2446C13.9559 84.0859 13.4349 83.1767 13.4186 82.2577C13.3338 77.5428 13.3794 72.8255 13.3794 68.1099C13.3794 67.1248 13.3794 66.139 13.3794 64.99C11.9842 64.99 10.8075 64.915 9.64472 65.0063C7.56781 65.1702 5.97771 64.504 5.00082 62.6V44.1108C5.93123 42.1529 7.52622 41.4924 9.61292 41.6449C10.8173 41.733 12.0323 41.6612 13.2644 41.6612V34.9037C11.8122 34.9037 10.4626 34.8091 9.131 34.9257C7.07121 35.1059 5.75428 34.2358 5 32.3775V14.2446C5.80157 12.3071 7.23919 11.5912 9.32344 11.7013C11.7575 11.8301 14.203 11.7314 16.6102 11.7314C16.8961 8.04511 17.7667 5.8013 19.222 5H70.778C74.0332 6.21011 73.1044 9.15628 73.3686 11.7314C75.8891 11.7314 78.289 11.8301 80.6774 11.7013C82.7608 11.5887 84.1976 12.3096 85 14.2438V32.3775C84.2433 34.2326 82.9288 35.1067 80.869 34.9257C79.5382 34.8091 78.1887 34.9037 76.7445 34.9037V41.6612C78.0411 41.6612 79.2202 41.7321 80.3879 41.6457C82.4746 41.4908 84.0696 42.1529 85 44.1108V62.6C83.1702 66.2817 79.6222 64.4869 76.6214 65.1719C76.6214 65.7859 76.6214 66.417 76.6214 67.0482C76.6214 72.1177 76.6638 77.1873 76.5823 82.2552C76.5676 83.1742 76.0441 84.0851 75.7562 84.9992H67.5782C67.1444 82.8114 66.7106 80.6244 66.2711 78.4064H23.2878C23.2878 79.5407 23.3987 80.5534 23.2592 81.5303C23.0921 82.7021 22.7105 83.8437 22.4226 84.9984L22.4218 85ZM19.9951 81.7065C19.9951 80.1465 20.0114 78.7399 19.9902 77.3341C19.9673 75.8255 20.5699 75.0337 22.1935 75.0362C37.4169 75.0574 52.6402 75.0549 67.8628 75.0394C69.3803 75.0378 70.0107 75.7774 70.0049 77.2158C69.9992 78.6755 70.0033 80.1359 70.0033 81.6265H73.292V79.5822C73.292 74.5469 73.2863 69.5124 73.2944 64.4771C73.2985 62.1197 73.7184 61.7038 76.1044 61.6834C77.9204 61.6679 79.7372 61.6802 81.6004 61.6802V45.0559H8.36857V61.6802C10.1275 61.6802 11.773 61.6777 13.4194 61.6802C16.4112 61.6859 16.7048 61.9721 16.7056 64.8913C16.7072 69.8671 16.7031 74.8429 16.7097 79.8187C16.7105 80.4401 16.7643 81.0614 16.7953 81.7065H19.9942H19.9951ZM81.6575 14.9516C76.1435 14.9516 70.8187 14.9361 65.4939 14.9638C64.3124 14.9703 63.4007 14.5488 63.3828 13.3509C63.364 12.1343 64.2773 11.6907 65.4597 11.7225C66.9683 11.7632 68.4784 11.7322 69.9707 11.7322V8.37672H20.0619V11.7314H22.1079C33.7156 11.7314 45.3233 11.7314 56.9302 11.7322C57.4627 11.7322 58.1118 11.5569 58.5016 11.7967C59.0748 12.1497 59.8299 12.8054 59.8275 13.328C59.825 13.8662 59.0863 14.5284 58.5146 14.8904C58.1322 15.1326 57.4774 14.9516 56.9441 14.9516C41.428 14.9524 25.9119 14.9516 10.3949 14.9516H8.36531V31.5628H81.6575V14.9516ZM66.5915 34.9803H23.4093V41.5927H66.5915V34.9803ZM16.867 34.9444V41.5438H19.8369V34.9444H16.867ZM70.1167 34.9868V41.5552H73.1525V34.9868H70.1167Z" fill="#FF0000"/>
<path d="M44.7924 71.5967C37.4552 71.5967 30.1179 71.6016 22.7797 71.5943C20.3098 71.5918 20.0007 71.2779 19.991 68.8552C19.9844 67.1396 19.9877 65.4231 19.9926 63.7074C19.9959 62.4141 20.6506 61.7406 21.9431 61.6973C22.4161 61.6818 22.8898 61.681 23.3628 61.681C37.8009 61.681 52.239 61.6794 66.6771 61.681C69.7668 61.681 69.9984 61.9175 70 65.0015C70 66.3624 70.0114 67.7234 69.9976 69.0844C69.9764 71.1743 69.5915 71.5869 67.5146 71.591C59.9408 71.6057 52.3662 71.5967 44.7924 71.5967ZM66.6306 65.1238H23.4019V68.1825H66.6315V65.1238H66.6306Z" fill="#FF0000"/>
<path d="M31.8251 48.3379C31.4574 48.8891 31.2299 49.3792 30.8727 49.7404C27.7463 52.8994 24.593 56.0307 21.4569 59.1799C20.6414 59.9986 19.5985 60.4235 18.8956 59.4123C18.5246 58.8782 18.6534 57.4618 19.1166 56.9701C22.2005 53.6929 25.4052 50.5257 28.6572 47.414C29.0951 46.9949 30.0532 46.8946 30.7088 47.0079C31.1214 47.0788 31.4182 47.8225 31.8251 48.3387V48.3379Z" fill="#FF0000"/>
<path d="M71.7517 48.2027C71.4337 48.8143 71.2902 49.3631 70.9452 49.7129C67.7854 52.9184 64.6003 56.0978 61.4014 59.2633C60.5868 60.0689 59.6425 60.3242 58.7708 59.3612C57.9301 58.4332 58.4136 57.6251 59.15 56.8896C62.2935 53.7501 65.406 50.5789 68.6098 47.5014C69.06 47.0685 69.9684 46.9127 70.6313 46.9763C71.0243 47.0146 71.3505 47.7347 71.7533 48.2011L71.7517 48.2027Z" fill="#FF0000"/>
<path d="M39.9397 60.1302C39.4422 59.7282 38.6415 59.3955 38.5746 58.9527C38.4776 58.3085 38.7092 57.3961 39.1511 56.9272C41.4621 54.4735 43.8823 52.1226 46.2666 49.7375C47.0617 48.9424 47.8494 48.1409 48.6616 47.3629C49.4631 46.5956 50.4922 46.3877 51.094 47.3377C51.4324 47.871 51.3541 49.1594 50.9326 49.6054C47.8021 52.9128 44.5452 56.1003 41.3063 59.3034C40.9883 59.6173 40.5243 59.7837 39.9397 60.1302Z" fill="#FF0000"/>
<path d="M51.8203 18.2126C51.4893 18.785 51.3148 19.3004 50.9707 19.6494C47.8108 22.8483 44.62 26.0155 41.4439 29.1981C40.6179 30.0258 39.7013 30.3161 38.8321 29.3906C38.0444 28.5515 38.3045 27.6912 39.0914 26.91C42.2814 23.7421 45.4249 20.5252 48.6662 17.411C49.1164 16.9788 50.0435 16.8345 50.7073 16.9136C51.1011 16.9601 51.411 17.7054 51.8203 18.2126Z" fill="#FF0000"/>
<path d="M31.8885 18.3234C31.4033 18.9954 31.0926 19.5662 30.6539 20.0106C27.6645 23.0383 24.6474 26.0383 21.6417 29.0505C20.8149 29.879 19.8673 30.4359 18.8912 29.4321C17.9241 28.4373 18.4909 27.5216 19.33 26.6898C22.4359 23.6115 25.4938 20.4835 28.6488 17.4566C29.1046 17.0196 30.0268 16.8026 30.6621 16.9087C31.1114 16.9837 31.4416 17.7755 31.8877 18.3243L31.8885 18.3234Z" fill="#FF0000"/>
<path d="M71.8263 18.3077C71.4243 18.9111 71.2008 19.3955 70.8486 19.7526C67.7328 22.9035 64.5909 26.0282 61.4653 29.1693C60.6515 29.9872 59.7448 30.3215 58.8437 29.4384C57.9957 28.6075 58.3055 27.7056 59.0582 26.9497C62.2686 23.7271 65.4651 20.489 68.7399 17.3324C69.1557 16.9312 70.0641 16.7494 70.6366 16.8945C71.1014 17.012 71.4031 17.7719 71.8263 18.3085V18.3077Z" fill="#FF0000"/>
</g>
</svg>
