<svg width="81" height="81" viewBox="0 0 81 81" fill="none" xmlns="http://www.w3.org/2000/svg">
<mask id="mask0_226_16" style="mask-type:alpha" maskUnits="userSpaceOnUse" x="0" y="0" width="81" height="81">
<rect x="0.932617" y="0.5" width="80" height="80" fill="#D9D9D9"/>
</mask>
<g mask="url(#mask0_226_16)">
</g>
<g clip-path="url(#clip0_226_16)">
<path d="M77.7504 18.4521C75.421 23.6908 73.0932 28.9279 70.7638 34.1666C70.6343 34.4568 70.5063 34.7456 70.3301 35.1442C71.3089 35.1442 72.1762 35.1442 73.045 35.1442C74.8187 35.1442 75.2283 35.4631 75.5279 37.2258C76.1603 40.9529 76.0263 44.6348 74.7826 48.2386C74.0101 50.4751 72.7468 52.3928 71.0649 54.0578C68.6633 56.4357 66.6637 59.1069 65.3808 62.2579C65.0525 63.0641 64.7936 63.9003 64.5496 64.7366C64.1476 66.1128 63.5107 66.6347 62.0712 66.6377C58.4409 66.6453 54.809 66.6483 51.1787 66.6317C50.6909 66.6302 50.3656 66.749 50.0464 67.1566C49.1083 68.3539 47.8661 69.1104 46.38 69.4789C46.1345 69.5391 45.8545 69.7181 45.7204 69.9256C45.3365 70.5137 44.9691 70.6641 44.3442 70.3167C43.0131 69.5737 41.7077 68.7825 40.363 68.0666C40.0544 67.9027 39.5966 67.847 39.2578 67.9342C37.7355 68.3283 36.2343 68.7976 34.7211 69.2277C33.2966 69.6338 32.479 69.1811 32.0469 67.7658C31.8722 67.1942 31.6057 66.6287 31.553 66.0451C31.5033 65.4826 31.6705 64.899 31.7533 64.326C31.7804 64.144 31.9385 63.9184 31.8752 63.7951C31.3407 62.7392 30.7685 61.7029 30.1482 60.5478C29.8636 61.6473 29.7145 62.6114 29.3576 63.4912C28.9586 64.4749 28.4271 65.421 27.8474 66.3144C27.3264 67.116 26.8687 67.1025 26.2272 66.4076C24.9383 65.0118 24.3436 63.3138 24.1162 61.4653C24.0484 60.9223 24.0063 60.3748 23.9445 59.7521C23.4702 60.0018 23.0411 60.2274 22.5909 60.4651C23.7729 61.4457 23.9129 62.0458 23.3212 63.4266C23.1149 63.9079 22.9146 64.3922 22.6963 64.869C22.1572 66.0451 21.2523 66.4166 20.0597 65.9218C18.56 65.3006 17.0633 64.6719 15.5862 64.0011C15.1526 63.8041 14.8078 63.8327 14.3922 64.0071C13.1951 64.5095 11.9845 64.9773 10.7769 65.4555C9.68676 65.8872 9.35851 65.7052 9.14168 64.5576C6.58495 63.7514 4.84884 62.1466 4.25708 59.4769C3.50723 56.1018 5.87876 52.7312 9.3043 52.2123C10.792 51.9867 12.1848 52.2198 13.5339 52.8515C13.7251 52.9403 13.9977 52.9884 14.1874 52.9237C14.9403 52.6665 15.2715 52.7868 15.5742 53.5614C16.0635 54.8158 16.5318 56.0792 17.0106 57.3366C17.0814 57.5216 17.1597 57.7036 17.1928 57.7863C18.3236 56.6282 19.4665 55.4565 20.659 54.2353C20.4031 54.0307 20.0236 53.7314 19.6502 53.4246C18.3011 52.3131 17.1492 51.0451 16.5062 49.3892C16.0681 48.2611 16.2864 47.8129 17.4714 47.7257C18.6805 47.6369 19.9001 47.7061 21.1138 47.7061C20.9045 46.5375 20.6108 45.2665 20.4618 43.9776C20.1817 41.532 20.2796 39.0863 20.7524 36.6663C20.9677 35.5668 21.5715 35.1457 22.8137 35.1442C27.1457 35.1397 31.4777 35.1427 35.8097 35.1427C36.0838 35.1427 36.3578 35.1427 36.6243 35.1427C36.6454 35.0615 36.6815 34.9938 36.6635 34.9757C35.1156 33.3935 34.7166 31.3871 34.4756 29.2919C34.3778 28.4361 34.1233 27.5803 33.8056 26.7771C33.6264 26.3259 33.1596 25.9935 32.8464 25.5889C32.6371 25.3182 32.2487 24.888 32.3285 24.7511C32.5061 24.4428 32.9082 24.1044 33.2455 24.0758C35.3896 23.8923 37.4449 24.2924 39.2955 25.4069C40.2275 25.9679 41.0451 26.7139 41.9742 27.4224C42.8731 26.377 43.8097 25.2475 44.2328 23.8096C44.3578 23.3855 44.2162 22.8906 44.2689 22.4349C44.3051 22.122 44.3788 21.6829 44.5911 21.5565C44.8035 21.4287 45.3756 21.4979 45.5021 21.6799C47.7848 24.9587 49.5781 28.415 48.8478 32.6023C48.7018 33.4416 48.2727 34.2327 47.9429 35.1337C49.1761 35.1337 50.4349 35.1577 51.6907 35.1081C51.8759 35.1006 52.0837 34.7697 52.2192 34.5501C56.3178 27.8916 60.4345 21.2437 64.4849 14.5551C65.7467 12.472 67.3759 11.0131 69.8257 10.5904C69.8694 10.5829 69.904 10.5333 69.9432 10.5032C70.544 10.5032 71.1447 10.5032 71.747 10.5032C71.8615 10.5498 71.9714 10.616 72.0888 10.6415C75.016 11.2507 76.8319 13.021 77.6028 15.8892C77.6329 16.0005 77.7052 16.0998 77.7564 16.2051V18.4551L77.7504 18.4521ZM30.1753 48.777C30.5743 48.6025 30.9567 48.4251 31.3482 48.2656C33.2409 47.491 35.1713 47.1 37.195 47.7151C38.2565 48.037 38.4041 48.3423 37.9629 49.344C37.0369 51.4422 35.8323 53.3253 33.7815 54.5361C35.9663 56.544 37.0294 57.9503 37.7732 59.7928C38.0804 60.5538 37.9027 60.9028 37.1016 61.0847C36.8592 61.1404 36.6093 61.2051 36.3638 61.1991C34.9785 61.166 33.5948 61.1133 32.2155 61.0667C32.4941 61.6172 32.8509 62.2429 33.1295 62.9001C33.3222 63.3559 33.5782 63.3965 34.0028 63.2641C35.218 62.8866 36.4496 62.5617 37.6572 62.1632C37.9494 62.0669 38.258 61.8142 38.4116 61.548C39.1268 60.3192 39.7909 59.0588 40.4745 57.8119C40.7651 57.281 41.2273 56.9411 41.7423 57.3697C42.1413 57.7021 42.4108 57.6134 42.7963 57.478C46.6028 56.1454 50.5629 58.2315 51.3383 62.0534C51.5341 63.0205 51.3684 64.0628 51.3684 65.1231H60.7687C62.1038 65.1231 62.9776 64.4934 63.3902 63.234C64.64 59.3987 66.8368 56.1544 69.6631 53.3223C71.2592 51.7235 72.5631 49.9592 73.3175 47.8174C74.0779 45.6576 74.4272 43.4421 74.3053 41.1394H21.8471C21.7913 43.5955 22.1196 45.9268 22.9989 48.1634C23.1119 48.4506 23.4311 48.6567 23.7894 49.0462C23.8196 48.6296 23.8271 48.4807 23.8406 48.3333C24.0379 46.0712 24.7381 44.0392 26.5148 42.4991C27.1563 41.9426 27.605 41.9621 28.0446 42.6961C28.543 43.5248 29.0309 44.3867 29.3396 45.2951C29.713 46.3931 29.8922 47.5572 30.1753 48.7755V48.777ZM72.5436 26.6057C69.1707 24.6383 65.8566 22.7041 62.4898 20.7398C59.5386 25.5468 56.6265 30.2906 53.6496 35.1412C58.6246 35.1412 63.4264 35.1457 68.2281 35.1231C68.4299 35.1231 68.728 34.902 68.8184 34.708C70.0636 32.0443 71.2803 29.3671 72.5436 26.6057ZM74.2932 39.4789C74.2104 38.8367 74.0809 38.2727 74.0779 37.7056C74.0719 36.8438 73.6653 36.6859 72.8658 36.6874C56.3389 36.7114 39.8119 36.7054 23.2865 36.7054C23.1119 36.7054 22.9101 36.6513 22.7671 36.719C22.5578 36.8167 22.2626 36.9777 22.2265 37.1566C22.0774 37.9042 22.0112 38.6682 21.9088 39.4789H74.2932ZM18.0767 49.1861C18.2017 49.4328 18.2619 49.5712 18.3387 49.699C19.3641 51.3956 20.8713 52.5703 22.5337 53.5825C23.3904 54.1044 23.3648 54.697 22.5066 55.1948C21.8817 55.5573 21.2463 55.9198 20.6831 56.3665C19.5824 57.2389 18.7212 58.3128 18.1369 59.6995C20.5039 59.7807 22.4689 59.0904 24.196 57.6419C24.452 57.4284 24.9594 57.3005 25.247 57.4073C25.4578 57.487 25.5843 58.0119 25.6008 58.3443C25.6445 59.2167 25.5481 60.0966 25.6129 60.9659C25.7168 62.3647 26.0706 63.6958 26.9967 64.896C27.1593 64.6403 27.2888 64.4614 27.3912 64.2688C28.2555 62.6414 28.5385 60.8862 28.5942 59.0663C28.6063 58.6888 28.7448 58.1263 29.0023 57.9939C29.2733 57.8555 29.7717 58.0932 30.1436 58.2376C30.4885 58.3714 30.7851 58.6256 31.1239 58.7835C32.6537 59.498 34.2453 59.8695 36.0386 59.6634C35.8459 59.3205 35.7118 59.0573 35.5568 58.8076C34.6066 57.2719 33.3433 56.0537 31.8346 55.0595C31.5334 54.8609 31.1856 54.3872 31.2353 54.1074C31.285 53.8352 31.7969 53.6096 32.1417 53.4366C32.5603 53.2275 33.0648 53.1674 33.4472 52.9147C34.846 51.9882 35.6772 50.612 36.4331 49.0011C35.6968 49.0011 35.0749 48.956 34.4621 49.0101C32.7772 49.159 31.3015 49.884 29.8801 50.7458C29.1318 51.2001 28.6228 50.9248 28.5671 50.054C28.531 49.4809 28.5295 48.9034 28.4693 48.3333C28.3142 46.8428 27.9468 45.4154 27.0208 43.8933C26.5434 44.8304 25.9953 45.5568 25.8056 46.366C25.5406 47.491 25.5632 48.6808 25.4232 49.8374C25.3735 50.251 25.3268 50.8391 25.0648 51C24.8149 51.1534 24.2607 50.9083 23.8858 50.7383C23.0923 50.3788 22.3575 49.8795 21.5459 49.5757C20.4708 49.1726 19.3385 48.9921 18.0797 49.1861H18.0767ZM74.4302 22.5266C74.9573 21.3384 75.5249 20.2495 75.9315 19.1034C76.7867 16.6999 75.7553 14.0392 73.5569 12.7638C71.357 11.4868 68.4871 11.8914 66.867 13.8287C66.0614 14.7928 65.4561 15.9223 64.7619 16.9751C64.905 17.0925 64.9562 17.1496 65.0194 17.1857C68.1257 18.9515 71.2336 20.7142 74.4287 22.5281L74.4302 22.5266ZM11.471 61.1193C11.2392 60.9509 11.0193 60.8245 10.8386 60.6561C10.1084 59.9747 9.35098 59.3145 8.68695 58.5715C8.45205 58.3082 8.27137 57.7487 8.39785 57.4795C8.51981 57.2193 9.06188 57.1366 9.43379 57.0238C9.58437 56.9787 9.77559 57.0629 9.94725 57.0915C10.9471 57.2614 11.9469 57.4314 12.9964 57.6104C13.1695 56.744 13.3592 55.9454 13.4707 55.1362C13.5008 54.9166 13.3607 54.5616 13.1846 54.4458C11.9981 53.6727 10.6745 53.4757 9.30731 53.781C7.17218 54.2608 5.74475 55.9529 5.62881 58.0511C5.51588 60.1146 6.96439 62.1361 9.06338 62.9137C9.74849 63.1679 10.2755 63.225 10.6248 62.4234C10.801 62.0188 11.1067 61.6698 11.471 61.1178V61.1193ZM43.6455 65.5007C43.9889 66.1459 44.3593 66.6934 44.5821 67.295C44.8893 68.1207 45.3982 68.2035 46.1496 67.9673C48.1567 67.3371 49.4953 66.0722 49.8778 63.9786C50.2075 62.1692 49.551 60.6576 48.0784 59.5822C46.4176 58.3699 44.6017 58.3203 42.7541 59.155C42.575 59.2363 42.3627 59.507 42.3687 59.683C42.3943 60.3493 42.5027 61.011 42.584 61.7195C43.8217 61.8082 44.9917 61.9014 46.1631 61.9721C46.6977 62.0037 47.1961 62.1075 47.3376 62.6956C47.4746 63.2641 47.0666 63.5454 46.6299 63.7921C45.6512 64.3425 44.6785 64.9066 43.6425 65.4992L43.6455 65.5007ZM44.016 63.5123C43.9919 63.4612 43.9678 63.4115 43.9437 63.3604C43.2736 63.3017 42.6051 63.2356 41.9335 63.1844C41.3945 63.1423 41.1355 62.855 41.0903 62.3226C41.0391 61.7195 40.9563 61.1193 40.863 60.3026C40.3886 61.1675 39.9836 61.8217 39.6614 62.5151C39.3843 63.1107 38.9657 63.4281 38.3363 63.598C36.7463 64.0252 35.1758 64.5215 33.5857 64.9532C33.0226 65.1066 32.8434 65.3458 33.0813 65.9083C33.2455 66.2948 33.3403 66.7159 33.4276 67.1296C33.5571 67.7357 33.8071 67.9418 34.4711 67.7237C36.01 67.2168 37.585 66.8182 39.1329 66.3339C39.7517 66.1399 40.2727 66.167 40.8283 66.534C41.5104 66.9852 42.2467 67.3507 42.9604 67.7538C42.7752 67.1311 42.5087 66.6257 42.2407 66.1218C41.6279 64.9757 41.658 64.8765 42.8174 64.2132C43.2194 63.9831 43.6169 63.7469 44.016 63.5138V63.5123ZM45.3576 35.066C45.4118 35.1141 45.4675 35.1623 45.5217 35.2104C45.746 35.0389 46.0156 34.9036 46.1902 34.69C47.3361 33.2882 47.6162 31.6548 47.4219 29.9026C47.2171 28.0601 46.5667 26.38 45.6918 24.8384C44.8546 26.0281 44.0762 27.1817 43.2495 28.2992C41.783 30.2801 41.6264 32.4234 42.4169 34.6794C42.4876 34.881 42.8068 35.0585 43.0448 35.1277C43.5281 35.269 43.757 34.9547 43.9075 34.5336C44.4842 32.9197 44.4571 31.2487 44.3818 29.5747C44.3578 29.0317 44.3593 28.5173 45.0549 28.4782C45.7837 28.4376 45.8575 28.97 45.8981 29.5386C46.0291 31.4096 45.9523 33.2596 45.3576 35.0675V35.066ZM11.8129 63.3845C12.8036 62.9934 13.5911 62.6324 14.4133 62.3797C14.7806 62.2654 15.255 62.2549 15.6103 62.3873C16.7788 62.8234 17.9156 63.3438 19.063 63.8387C20.4773 64.4483 21.4586 64.0352 22.0067 62.5993C22.0157 62.5768 22.0338 62.5482 22.0277 62.5286C21.9585 62.3121 21.9449 61.9691 21.8019 61.8999C20.9767 61.5074 20.1727 61.0787 19.1759 61.181C18.4682 61.2547 17.7259 61.1524 17.0197 61.0186C16.7501 60.9674 16.3014 60.5282 16.3436 60.3959C16.586 59.6348 16.0093 59.1535 15.8196 58.5549C15.5742 57.7818 15.2459 57.0358 14.877 56.0792C14.6978 56.9741 14.5759 57.651 14.4268 58.3233C14.2356 59.1836 13.963 59.3491 13.0987 59.1926C12.5507 59.0934 11.9996 59.0106 11.4334 58.9174C11.9288 59.4649 12.3655 59.9717 12.8292 60.4515C13.1996 60.8351 13.2493 61.2216 12.9572 61.6623C12.6154 62.1767 12.2751 62.6926 11.8174 63.3845H11.8129ZM40.3932 31.2863C40.5588 30.6606 40.6642 30.0665 40.878 29.5145C41.0376 29.1024 40.9653 28.8256 40.6943 28.5128C39.4581 27.0824 37.9102 26.189 36.0687 25.7965C35.7525 25.7288 35.4273 25.7017 35.2692 25.6791C35.5628 27.2103 35.897 28.6828 36.1199 30.1733C36.4376 32.2985 37.2688 34.0387 39.3527 34.9472C39.5996 35.054 39.8842 35.0735 40.2516 35.1562C39.6734 33.025 38.654 31.2983 37.4043 29.695C37.07 29.2648 36.933 28.8377 37.4208 28.4602C37.9147 28.0796 38.3077 28.3308 38.6179 28.7685C39.2066 29.5957 39.7894 30.4275 40.3947 31.2878L40.3932 31.2863ZM63.2908 19.4358C66.6245 21.3805 69.8905 23.2862 73.191 25.2114C73.4003 24.7316 73.5735 24.3315 73.7602 23.9013C70.4611 22.0303 67.2359 20.1999 63.9669 18.3453C63.726 18.7349 63.5303 19.0477 63.2908 19.4343V19.4358Z" fill="black"/>
<path d="M68.4409 44.2737C68.1262 47.1179 67.2273 49.6507 65.0695 51.6075C64.7006 51.9414 64.2504 52.0572 63.9704 51.6376C63.8062 51.3924 63.8002 50.7787 63.9839 50.6043C65.8736 48.8174 66.6355 46.5568 66.9442 44.0631C66.9803 43.7758 67.3101 43.4149 67.5901 43.3051C67.7663 43.2359 68.1397 43.5277 68.352 43.7337C68.4635 43.842 68.4198 44.1097 68.4424 44.2737H68.4409Z" fill="black"/>
<path d="M24.1085 54.2802C24.119 52.5821 25.4621 51.2751 27.1892 51.2826C28.8666 51.2901 30.2684 52.71 30.2247 54.3554C30.1811 56.0385 28.7883 57.3846 27.1124 57.3635C25.4154 57.344 24.0979 55.9903 24.1085 54.2787V54.2802ZM28.6558 54.2877C28.6452 53.4274 27.9812 52.7837 27.1184 52.7987C26.2858 52.8138 25.5901 53.5252 25.6067 54.3434C25.6247 55.1781 26.3219 55.8384 27.1726 55.8264C28.0399 55.8144 28.6663 55.1631 28.6558 54.2877Z" fill="black"/>
<path d="M26.2451 60.3747C26.2451 59.9505 26.1427 59.4903 26.2782 59.1158C26.3866 58.8149 26.7616 58.4705 27.0597 58.4254C27.2584 58.3953 27.7102 58.842 27.7373 59.1082C27.8261 59.9716 27.8246 60.8545 27.7373 61.7178C27.7117 61.975 27.3247 62.3239 27.0416 62.4006C26.5839 62.524 26.2918 62.1765 26.2526 61.7208C26.2135 61.2756 26.2436 60.8244 26.2451 60.3747Z" fill="black"/>
<path d="M27.7802 48.3858C27.7802 48.7843 27.7998 49.1844 27.7757 49.5815C27.7456 50.0628 27.4926 50.4749 26.9957 50.3576C26.7006 50.2884 26.3091 49.8838 26.276 49.595C26.1811 48.7588 26.2203 47.903 26.2564 47.0562C26.2745 46.6005 26.5786 46.25 27.0364 46.3673C27.321 46.4395 27.6597 46.7674 27.7411 47.0472C27.86 47.4608 27.7727 47.9361 27.7727 48.3843C27.7757 48.3843 27.7787 48.3843 27.7832 48.3843L27.7802 48.3858Z" fill="black"/>
<path d="M22.9159 52.8002C22.5003 52.5686 22.1735 52.3941 21.8528 52.2076C21.3348 51.9053 20.7732 51.6526 20.329 51.2645C20.1182 51.081 20.0008 50.6013 20.0791 50.3215C20.201 49.8778 20.6392 49.7515 21.0563 49.9831C21.8423 50.4193 22.6328 50.8554 23.357 51.3819C23.5558 51.5262 23.6296 52.0091 23.5648 52.2933C23.5182 52.4994 23.1493 52.6317 22.9174 52.8017L22.9159 52.8002Z" fill="black"/>
<path d="M31.108 52.8318C30.8159 52.5792 30.4876 52.4303 30.4304 52.2107C30.3642 51.955 30.4364 51.4992 30.6186 51.3699C31.3881 50.8239 32.2042 50.3306 33.0474 49.9034C33.2341 49.8087 33.6903 49.9892 33.856 50.1847C33.999 50.3531 34.0246 50.8841 33.8981 50.9773C33.0248 51.6196 32.0973 52.1881 31.108 52.8318Z" fill="black"/>
<path d="M22.9342 55.9257C23.2308 56.1949 23.5561 56.3528 23.6073 56.5739C23.6675 56.8356 23.5877 57.2868 23.3995 57.4222C22.6511 57.9561 21.8561 58.4374 21.034 58.8511C20.8292 58.9548 20.3745 58.824 20.1953 58.642C20.0402 58.4856 19.9875 57.9366 20.1049 57.8478C20.9918 57.1846 21.9329 56.592 22.9342 55.9257Z" fill="black"/>
<path d="M31.0304 55.9873C31.3285 56.1167 31.5183 56.1783 31.6869 56.2761C32.3524 56.6641 33.0541 57.0101 33.6519 57.4854C33.8807 57.6673 33.8672 58.1516 33.9651 58.4976C33.6157 58.5908 33.1881 58.8601 32.9336 58.7458C32.1461 58.3893 31.4008 57.92 30.6946 57.4177C30.4974 57.2778 30.3709 56.8401 30.4311 56.5919C30.4883 56.3513 30.8286 56.1783 31.0319 55.9873H31.0304Z" fill="black"/>
</g>
<defs>
<clipPath id="clip0_226_16">
<rect width="73.6364" height="60" fill="white" transform="translate(4.11426 10.5)"/>
</clipPath>
</defs>
</svg>
