<svg width="81" height="81" viewBox="0 0 81 81" fill="none" xmlns="http://www.w3.org/2000/svg">
<mask id="mask0_226_19" style="mask-type:alpha" maskUnits="userSpaceOnUse" x="0" y="0" width="81" height="81">
<rect x="0.865234" y="0.5" width="80" height="80" fill="#D9D9D9"/>
</mask>
<g mask="url(#mask0_226_19)">
</g>
<g clip-path="url(#clip0_226_19)">
<path d="M48.6484 61.2667C48.8636 61.2667 48.9855 61.2667 49.1066 61.2667C52.3796 61.2723 55.6519 61.2765 58.9249 61.285C59.1797 61.285 59.4339 61.3236 59.6888 61.3278C60.6693 61.3461 61.2723 62.073 61.0913 63.1784C60.9444 64.0738 60.4534 64.7741 59.835 65.3942C58.9673 66.2644 57.9283 66.8768 56.8274 67.3902C54.7194 68.3734 52.4896 68.957 50.2236 69.4128C47.7647 69.9073 45.2815 70.2774 42.7794 70.3778C39.8135 70.4965 36.8407 70.5204 33.872 70.4839C32.0663 70.4621 30.2557 70.3125 28.4598 70.1088C24.7077 69.6839 21.0016 69.0238 17.5162 67.466C16.3108 66.9273 15.1785 66.2658 14.2621 65.2867C13.6437 64.6266 13.1778 63.8779 13.1207 62.9431C13.104 62.6699 13.1388 62.3778 13.2217 62.1172C13.3596 61.6811 13.6611 61.4205 14.1493 61.4114C17.6179 61.3468 21.0859 61.2772 24.5545 61.2098C24.8324 61.2042 25.1102 61.2091 25.4264 61.1361C25.3226 61.0665 25.2216 60.9914 25.1144 60.9282C20.9849 58.4954 17.87 55.092 15.6597 50.8338C14.2092 48.0429 13.4111 45.0559 13.1339 41.9243C13.0894 41.4243 13.0901 40.92 13.0727 40.4178C13.0497 39.7275 13.315 39.174 13.8373 38.7281C14.7878 37.9155 15.8909 37.3796 17.088 37.1247C19.0135 36.7145 20.957 36.3887 22.8999 36.0705C23.8595 35.9132 24.8338 35.8409 25.8038 35.7559C26.1938 35.7222 26.5956 35.718 26.9821 35.772C27.8532 35.8949 28.3811 36.8943 27.996 37.695C27.7258 38.2568 27.3505 38.6255 26.6311 38.6866C23.6395 38.9423 20.6576 39.2934 17.7279 39.9915C17.4849 40.0491 17.2495 40.139 17.0107 40.2142C17.01 40.2514 17.0093 40.2893 17.0079 40.3265C17.2084 40.3806 17.4055 40.4544 17.6096 40.4853C19.9466 40.842 22.276 41.2747 24.6242 41.5282C31.3672 42.2558 38.1297 42.2087 44.8943 41.9046C48.8511 41.727 52.771 41.236 56.6602 40.4874C56.9597 40.4298 57.2543 40.3455 57.5516 40.2739C57.5516 40.238 57.5516 40.2015 57.5523 40.1657C57.0036 40.0456 56.4597 39.8918 55.9054 39.811C53.3706 39.443 50.8406 39.023 48.2947 38.7569C44.576 38.3685 40.8379 38.3011 37.0997 38.3053C36.5454 38.3053 35.9841 38.2744 35.4375 38.1866C34.6722 38.0637 34.2954 37.4442 34.3616 36.5326C34.4068 35.9041 34.934 35.4026 35.6255 35.3661C36.1812 35.3373 36.739 35.3338 37.2961 35.3366C41.1499 35.3521 45.0008 35.4504 48.8406 35.7959C51.5892 36.0431 54.3288 36.3718 57.0001 37.1135C57.9861 37.3874 58.9318 37.7533 59.8204 38.2835C60.1985 38.5097 60.6547 38.6403 61.092 38.7218C64.8294 39.4206 67.8928 42.4707 68.5362 46.2456C68.9889 48.9025 68.1679 51.2271 66.4583 53.2315C64.7897 55.1882 62.6762 56.3259 60.0843 56.4615C58.6568 56.5359 57.2898 56.2655 55.9924 55.6679C55.6707 55.5197 55.4729 55.5548 55.2229 55.8231C53.7828 57.3696 52.2668 58.8339 50.505 60.0138C49.9736 60.3699 49.4353 60.7154 48.9012 61.0672C48.8392 61.108 48.7842 61.1592 48.6477 61.2674L48.6484 61.2667ZM57.9722 43.0979C57.7501 43.1407 57.6233 43.1562 57.5015 43.1892C53.8016 44.2131 50.0078 44.6078 46.1986 44.841C43.8608 44.9836 41.5134 45.0145 39.1701 45.0194C35.8866 45.0264 32.6018 45.0068 29.3198 44.9112C27.4911 44.8579 25.6618 44.6795 23.8428 44.4632C22.0726 44.2525 20.3129 43.9413 18.5545 43.6358C17.8178 43.508 17.0977 43.2798 16.361 43.0951C16.3331 43.1533 16.2913 43.1969 16.2976 43.2327C16.4076 43.8767 16.4891 44.5278 16.6437 45.1613C17.1583 47.2724 17.9194 49.2867 19.042 51.1527C20.0357 52.8045 21.2314 54.2885 22.6332 55.604C29.1464 61.7155 38.8546 62.8455 46.4959 59.0657C53.0676 55.8146 56.7118 50.3661 57.9715 43.0972L57.9722 43.0979ZM56.319 64.4847C55.8594 64.2859 18.3999 64.1771 17.6033 64.3499C17.7398 64.4138 17.8519 64.4693 17.9661 64.5198C19.6284 65.2523 21.3554 65.7889 23.1207 66.1899C27.3122 67.1423 31.5705 67.5159 35.8574 67.591C39.3643 67.6528 42.8602 67.473 46.3427 67.0313C49.3546 66.6492 52.2988 65.9841 55.163 64.9686C55.5398 64.8352 55.9026 64.6603 56.319 64.4847ZM59.6735 53.5406C61.03 53.5033 62.2807 53.1725 63.3761 52.36C65.3907 50.8662 66.2027 48.0225 65.3441 45.5152C64.7027 43.6429 63.429 42.4328 61.5537 41.8639C61.1372 41.7375 61.1108 41.7796 61.053 42.1989C60.81 43.9701 60.5467 45.7358 59.9604 47.4375C59.342 49.2333 58.5676 50.9525 57.5976 52.5833C57.3246 53.0419 57.365 53.1599 57.8914 53.2674C58.4799 53.3875 59.0788 53.4521 59.6735 53.5406Z" fill="black"/>
<path d="M29.108 31.8826C29.0579 30.6339 29.5781 29.6205 30.3643 28.7552C31.2724 27.7559 32.2578 26.8288 33.2062 25.8666C33.6394 25.427 34.0802 24.9937 34.4875 24.5308C34.716 24.271 34.9068 23.9697 35.0746 23.6649C35.427 23.0251 35.4109 22.3782 34.881 21.8578C34.2431 21.2321 33.5642 20.6456 32.8706 20.0824C31.8866 19.2839 30.8594 18.5387 29.8796 17.7353C29.5718 17.4831 29.317 17.1411 29.1087 16.797C28.8023 16.2899 28.9214 15.6613 29.3344 15.2498C29.5732 15.0117 29.9221 14.9639 30.1965 15.1318C30.5231 15.3319 30.6958 15.681 30.5363 15.9949C30.3664 16.3292 30.5189 16.5034 30.7466 16.6705C31.6658 17.3441 32.6066 17.9902 33.5064 18.6883C34.2675 19.2789 35.0356 19.8766 35.709 20.5635C37.014 21.8943 37.1568 23.3348 36.0871 24.8736C35.4868 25.7374 34.7229 26.4917 33.9938 27.2565C33.2786 28.0066 32.5272 28.7229 31.7668 29.4267C30.6401 30.4696 30.4527 31.7647 30.732 33.1875C31.1157 35.1442 32.0767 36.8311 33.1804 38.45C33.4889 38.9023 33.7793 39.3672 34.0788 39.8258C34.2912 40.1517 34.1226 40.375 33.8754 40.571C33.5516 40.828 33.2765 40.8519 33.0314 40.6342C32.8928 40.5106 32.7571 40.3785 32.6449 40.231C31.2257 38.3587 30.06 36.3458 29.4451 34.0549C29.2564 33.3512 29.2167 32.6074 29.1087 31.8819L29.108 31.8826Z" fill="black"/>
<path d="M44.8916 20.6337C44.8554 21.7075 44.5761 22.893 44.081 24.0301C43.3839 25.632 42.5553 27.1561 41.4898 28.5417C41.2523 28.8507 41.0128 29.1429 40.5692 29.1527C40.2607 29.1598 40.0817 29.0137 39.9209 28.7693C39.7649 28.5319 39.8603 28.3584 39.9877 28.166C40.5775 27.2691 41.1945 26.3891 41.7433 25.467C42.5594 24.0954 43.1792 22.6423 43.3881 21.0333C43.5344 19.9103 43.3087 18.913 42.4961 18.0997C41.714 17.3174 40.8958 16.5701 40.1298 15.7723C39.3812 14.9927 38.6444 14.1963 37.9647 13.3563C37.5044 12.7881 37.283 12.0844 37.2349 11.3414C37.2092 10.9481 37.5093 10.5646 37.8763 10.5056C38.198 10.4544 38.6569 10.7767 38.673 11.1461C38.7064 11.911 39.1166 12.4693 39.5998 12.9792C40.6827 14.1204 41.7913 15.2364 42.8874 16.365C43.1632 16.6495 43.4243 16.9479 43.7001 17.2331C44.5713 18.1342 44.8909 19.2396 44.8916 20.6344V20.6337Z" fill="black"/>
</g>
<defs>
<clipPath id="clip0_226_19">
<rect width="55.5882" height="60" fill="white" transform="translate(13.0713 10.5)"/>
</clipPath>
</defs>
</svg>
