<svg width="81" height="81" viewBox="0 0 81 81" fill="none" xmlns="http://www.w3.org/2000/svg">
<mask id="mask0_226_24" style="mask-type:alpha" maskUnits="userSpaceOnUse" x="0" y="0" width="81" height="81">
<rect x="1.23047" y="1" width="79" height="79" stroke="#D9D9D9"/>
</mask>
<g mask="url(#mask0_226_24)">
</g>
<g clip-path="url(#clip0_226_24)">
<path d="M53.0616 10.5C54.1649 10.9533 54.6405 11.7521 54.5503 12.9316C54.4923 13.6928 54.533 14.4625 54.5404 15.2286C54.5516 16.4298 54.0166 17.3244 52.9516 17.8892C52.6514 18.0492 52.597 18.2299 52.5538 18.5365C52.2523 20.6275 53.1567 22.4784 53.7151 24.3985C54.8913 28.4482 55.5214 32.5744 55.5251 36.7866C55.5313 46.3613 55.5288 55.9373 55.5251 65.512C55.5251 68.4187 53.4038 70.4976 50.4399 70.4976C38.7485 70.5 27.0584 70.4988 15.3671 70.4976C12.7244 70.4976 10.9774 69.1812 10.2559 66.6526C10.241 66.5993 10.1891 66.5557 10.1546 66.5072C10.1533 55.8233 10.1533 45.1383 10.1533 34.452C10.1916 34.2787 10.2546 34.1065 10.2657 33.9308C10.4745 30.6677 11.0651 27.4713 11.988 24.3306C12.5464 22.4324 13.4212 20.5972 13.1284 18.5305C13.0839 18.2202 13.0246 18.0395 12.7268 17.8832C11.6828 17.3329 11.1442 16.4601 11.1429 15.2856C11.1417 14.5001 11.1887 13.711 11.1318 12.9291C11.0453 11.7534 11.5123 10.9497 12.6193 10.5H53.0616ZM32.8244 68.5678C38.6398 68.5678 44.454 68.569 50.2694 68.5678C52.3376 68.5678 53.5558 67.3666 53.5558 65.329C53.557 55.9542 53.5657 46.5807 53.5533 37.206C53.5459 32.235 52.7119 27.3937 51.0873 22.6833C50.9415 22.2614 50.7488 22.1002 50.2706 22.1002C38.6608 22.1148 27.0522 22.116 15.4424 22.099C14.9346 22.099 14.7407 22.2602 14.585 22.7112C12.9443 27.4628 12.1289 32.3441 12.1264 37.3575C12.1214 46.651 12.1251 55.9446 12.1264 65.2381C12.1264 67.4018 13.31 68.5691 15.5054 68.5691C21.2788 68.5691 27.0535 68.5691 32.8269 68.5691L32.8244 68.5678ZM13.1098 12.4467C13.1098 13.2637 13.1098 14.0249 13.1098 14.7861C13.1098 16.0431 13.3792 16.3086 14.6591 16.3086C26.7792 16.3086 38.8993 16.3086 51.0206 16.3086C51.2257 16.3086 51.4344 16.3231 51.6358 16.2965C52.1103 16.2347 52.4994 15.9704 52.5241 15.5086C52.5797 14.494 52.5414 13.4746 52.5414 12.4649H49.5961V14.3207H47.6143V12.4746H45.6302V14.3316H43.6707V12.4625H41.7087V14.3219H39.727V12.4722H37.7428V14.3328H35.7834V12.4819H33.7992V14.3231H31.8397V12.4709H29.8555V14.3352H27.8961V12.4806H25.9119V14.3255H23.9524V12.4697H21.9682V14.3377H20.0088V12.4794H18.0246V14.328H16.0429V12.4467H13.1098ZM50.561 20.1511V18.2808H15.1311V20.1511H50.561Z" fill="black"/>
<path d="M67.3613 54.9943C67.3674 56.6246 66.0652 57.9168 64.4122 57.918C62.7542 57.9204 61.4458 56.6367 61.4482 55.0088C61.4507 53.4112 62.7467 52.1263 64.3665 52.1166C66.0331 52.1069 67.3551 53.3761 67.3613 54.9943ZM64.4245 54.0549C63.9192 54.0427 63.4374 54.4961 63.4238 54.9967C63.4114 55.4925 63.8747 55.9664 64.3838 55.9785C64.8878 55.9907 65.3721 55.5349 65.3845 55.0355C65.3968 54.5385 64.9348 54.0658 64.4245 54.0536V54.0549Z" fill="black"/>
<path d="M59.4556 63.7242C57.8062 63.7193 56.509 62.4235 56.5176 60.7896C56.5263 59.1726 57.8507 57.9095 59.5223 57.9228C61.1408 57.935 62.4306 59.2235 62.4306 60.8259C62.4306 62.449 61.1161 63.729 59.4556 63.7242ZM59.4754 61.7859C59.9819 61.7847 60.4551 61.3181 60.4539 60.8211C60.4526 60.3229 59.9782 59.8598 59.4717 59.8611C58.9639 59.8623 58.4919 60.3277 58.4932 60.8247C58.4932 61.3229 58.9688 61.7872 59.4754 61.7859Z" fill="black"/>
<path d="M68.3782 63.7241C66.7153 63.7313 65.397 62.4562 65.3945 60.8343C65.3908 59.2052 66.6955 57.9215 68.3535 57.9227C69.9831 57.9227 71.2952 59.1931 71.3076 60.781C71.3199 62.4162 70.0251 63.7168 68.3782 63.7241ZM69.3308 60.8367C69.3394 60.3397 68.8749 59.8694 68.3646 59.861C67.8581 59.8525 67.3787 60.3094 67.3701 60.8088C67.3614 61.3058 67.826 61.7761 68.3362 61.7858C68.8415 61.7943 69.3221 61.3361 69.3308 60.8367Z" fill="black"/>
<path d="M61.468 64.6974C63.1198 64.7035 64.4122 65.998 64.4023 67.6344C64.3924 69.2478 63.0618 70.5133 61.3926 70.4987C59.7791 70.4842 58.488 69.1908 58.4893 67.5908C58.4917 65.9677 59.8038 64.6913 61.468 64.6974ZM62.4255 67.6223C62.4403 67.1265 61.9807 66.6514 61.4705 66.6356C60.9652 66.6199 60.4809 67.072 60.4648 67.5738C60.4487 68.0696 60.9096 68.5448 61.4198 68.5605C61.9239 68.5763 62.4094 68.1229 62.4255 67.6223Z" fill="black"/>
<path d="M71.3067 67.6261C71.2993 69.2419 69.9724 70.511 68.3057 70.4988C66.665 70.4867 65.3776 69.1776 65.3937 67.5388C65.4098 65.9569 66.7293 64.6939 68.3638 64.6975C70.0169 64.7012 71.3141 65.9921 71.3067 67.6261ZM69.3299 67.6224C69.3448 67.1267 68.8852 66.6515 68.3749 66.6357C67.8696 66.62 67.3853 67.0721 67.3692 67.5739C67.3532 68.0697 67.814 68.5449 68.3243 68.5606C68.8283 68.5764 69.3139 68.123 69.3299 67.6224Z" fill="black"/>
<path d="M45.0535 66.6272C43.7069 66.5969 42.0945 65.8526 40.9418 64.312C40.1141 63.2053 39.0849 62.7217 37.6864 62.7423C34.421 62.7895 31.1531 62.7823 27.8877 62.7459C26.5596 62.7314 25.5848 63.2138 24.7904 64.255C23.3634 66.1241 21.4076 66.9314 19.0639 66.5484C16.6189 66.1484 15.0165 64.6975 14.311 62.3568C13.8996 60.9919 14.0639 59.6561 14.6508 58.3531C14.7558 58.1191 14.7731 57.7628 14.6693 57.5349C13.3894 54.7482 14.3382 51.5966 16.9525 50.0378C19.5594 48.485 22.8865 49.1032 24.7595 51.5529C25.5836 52.6318 26.5893 53.119 27.9643 53.0996C31.2297 53.056 34.4976 53.0584 37.7629 53.0996C39.1158 53.1166 40.1017 52.6245 40.9134 51.5675C42.3453 49.702 44.3036 48.908 46.6485 49.3008C49.0985 49.7105 50.6848 51.1748 51.3817 53.5142C51.782 54.8585 51.6485 56.1918 51.0234 57.4525C50.8492 57.8028 50.8739 58.0537 51.0357 58.3991C52.8506 62.2732 49.9954 66.6332 45.0548 66.6308L45.0535 66.6272ZM16.3582 59.604C16.2928 59.7822 16.2248 59.924 16.1902 60.0719C15.7689 61.9156 16.8524 63.8102 18.6945 64.4574C20.3921 65.0538 22.1082 64.5047 23.3053 62.9532C24.4086 61.5241 25.822 60.7919 27.6851 60.8137C31.2396 60.8549 34.7941 60.7943 38.3486 60.8513C39.0985 60.8634 39.9411 61.0404 40.565 61.4198C41.3607 61.9047 42.0229 62.6332 42.6616 63.3277C43.7896 64.5544 45.5403 65.0223 47.0871 64.4259C48.629 63.8332 49.6878 62.2586 49.6026 60.6852C49.5148 59.0416 48.3362 57.5591 46.7474 57.1167C46.4014 57.0209 46.0407 56.9761 45.6972 56.9094V55.0306C47.0748 54.9845 48.2299 55.4948 49.3394 56.2318C49.8175 54.9057 49.605 53.7239 48.7649 52.6681C47.8655 51.5372 46.6597 51.0196 45.1956 51.1857C43.9614 51.3263 43.0422 51.9784 42.3095 52.953C41.268 54.336 39.8744 55.0379 38.0854 55.0233C34.5112 54.9942 30.9344 55.0427 27.3602 54.9918C26.6276 54.9809 25.8023 54.8282 25.1932 54.4633C24.3938 53.9833 23.7007 53.2815 23.0768 52.5784C21.5473 50.8535 19.0133 50.662 17.3281 52.2111C15.6478 53.7542 15.6738 56.2767 17.375 57.8488C18.1089 58.5264 19.0096 58.8028 19.9745 58.9119V60.8162C18.608 60.8368 17.4553 60.3616 16.3582 59.6052V59.604Z" fill="black"/>
<path d="M45.6607 36.6605C45.6558 43.6182 39.9046 49.2196 32.7771 49.2086C25.7225 49.1977 20.0146 43.5564 20.0195 36.5987C20.0245 29.6398 25.7707 24.0421 32.9019 24.0518C39.959 24.0615 45.6657 29.7004 45.6607 36.6605ZM43.6914 36.6084C43.6778 30.7634 38.7581 25.9609 32.8043 25.9827C26.8715 26.0033 21.9963 30.7986 21.9889 36.6181C21.9827 42.4606 26.8913 47.2801 32.8451 47.2765C38.7988 47.2728 43.7049 42.4473 43.6914 36.6084Z" fill="black"/>
<path d="M26.9251 40.063C26.9461 39.2423 27.4687 38.2278 28.4645 37.4229C28.6955 37.2362 28.9142 36.9562 28.9933 36.6787C29.501 34.8883 30.9997 33.7259 32.8591 33.7295C34.6802 33.7331 36.1862 34.9077 36.6804 36.6593C36.7595 36.9381 36.9658 37.2302 37.1981 37.4096C38.7832 38.6351 39.2317 40.7527 38.231 42.4448C37.2315 44.1358 35.1175 44.8364 33.2754 44.0533C32.9357 43.9091 32.6911 43.9406 32.3649 44.074C29.7679 45.137 26.9189 43.2606 26.9238 40.063H26.9251ZM30.9107 42.5212C31.295 42.3503 31.7187 42.2315 32.056 41.9951C32.6058 41.6084 33.0753 41.6121 33.6226 42.0012C34.6345 42.7212 35.8873 42.4751 36.4988 41.4775C37.1067 40.4848 36.7163 39.2799 35.5784 38.7514C35.0545 38.509 34.7976 38.1866 34.7976 37.5926C34.7976 36.5332 33.9488 35.7053 32.9023 35.6629C31.9374 35.6241 30.9453 36.3696 30.9169 37.355C30.8934 38.1793 30.529 38.5708 29.8383 38.909C29.0723 39.2848 28.7548 40.1842 28.9809 40.9781C29.2268 41.8412 30.0014 42.4376 30.912 42.52L30.9107 42.5212Z" fill="black"/>
<path d="M27.9122 30.6653C27.9035 29.492 28.8289 28.7198 30.0199 28.9053C31.2677 29.0992 32.371 30.4059 32.3438 31.6556C32.3204 32.7029 31.4494 33.4545 30.3856 33.3466C29.1044 33.2157 27.9221 31.9344 27.9122 30.6665V30.6653Z" fill="black"/>
<path d="M37.7685 30.6968C37.7474 31.9635 36.5441 33.2375 35.2654 33.3478C34.2004 33.4399 33.3491 32.6787 33.338 31.6253C33.3244 30.4035 34.4079 29.1223 35.6311 28.9101C36.8406 28.7016 37.7882 29.4932 37.7685 30.6968Z" fill="black"/>
<path d="M25.7551 33.3514C27.1203 33.3635 28.4324 34.646 28.4534 35.9878C28.4695 36.9854 27.7652 37.7054 26.746 37.7345C25.3573 37.7733 23.9871 36.4872 23.9661 35.1272C23.9488 34.0569 24.6703 33.3417 25.7551 33.3514Z" fill="black"/>
<path d="M38.9803 37.7357C37.9524 37.7236 37.2346 37.0278 37.2247 36.0351C37.2111 34.732 38.4886 33.4108 39.8143 33.3563C41.0176 33.3066 41.7911 34.0848 41.7095 35.2617C41.6218 36.5393 40.2838 37.7515 38.9791 37.7357H38.9803Z" fill="black"/>
</g>
<defs>
<clipPath id="clip0_226_24">
<rect width="61.1538" height="60" fill="white" transform="translate(10.1533 10.5)"/>
</clipPath>
</defs>
</svg>
