<svg width="90" height="90" viewBox="0 0 90 90" fill="none" xmlns="http://www.w3.org/2000/svg">
<mask id="mask0_226_11" style="mask-type:alpha" maskUnits="userSpaceOnUse" x="0" y="0" width="90" height="90">
<rect width="90" height="90" fill="#D9D9D9"/>
</mask>
<g mask="url(#mask0_226_11)">
<path d="M49.7584 7.50022C58.9225 7.45202 66.6564 15.1761 66.703 24.4237C66.7523 34.1756 59.2384 41.9893 49.7871 42.0148C40.4814 42.0398 32.7811 34.3371 32.7453 24.9662C32.7076 15.2316 40.1897 7.55071 49.7584 7.50022ZM51.2858 21.1274C50.9559 23.1148 49.0207 24.7452 46.9493 24.8034C45.7034 24.8385 44.4558 24.8203 43.209 24.8103C42.5036 24.8048 41.6973 24.8498 41.5951 25.6639C41.5301 26.1819 41.8519 26.9164 42.2427 27.3002C45.3404 30.3454 48.4942 33.3311 51.6349 36.3313C52.4124 37.074 53.1241 37.1463 53.6471 36.5592C54.1831 35.957 54.0626 35.3317 53.238 34.5372C51.8693 33.2188 50.4921 31.9099 49.122 30.5933C48.0334 29.5468 46.9502 28.494 45.7402 27.3234C50.1098 27.2916 52.8418 25.2946 53.9254 21.127C54.824 21.127 55.6648 21.1233 56.5055 21.1279C57.3194 21.1324 57.8971 20.7995 57.9916 19.9327C58.0723 19.1932 57.4426 18.6807 56.4862 18.6616C55.6173 18.6443 54.7478 18.6579 54.059 18.6579C53.4513 17.3445 52.9171 16.1903 52.3528 14.971C53.7135 14.971 55.0839 14.9823 56.4544 14.9673C57.4251 14.9564 58.0091 14.4707 58.0024 13.7267C57.9957 12.9863 57.4104 12.5074 56.4361 12.5056C51.9544 12.4974 47.4723 12.4969 42.9907 12.506C42.0231 12.5079 41.4378 13.0049 41.4468 13.749C41.4558 14.4889 42.0402 14.9573 43.0163 14.9678C44.3303 14.9823 45.6452 14.9455 46.9587 14.981C49.0297 15.0369 50.972 16.6796 51.2844 18.6575C49.3587 18.6575 47.4437 18.657 45.5287 18.6575C44.5853 18.6575 43.6406 18.6311 42.6985 18.672C41.964 18.7043 41.4643 19.1354 41.4656 19.8936C41.467 20.6517 41.9702 21.0505 42.703 21.1169C43.0042 21.1442 43.3089 21.1265 43.6123 21.1265C46.1664 21.1265 48.7205 21.1265 51.2867 21.1265L51.2858 21.1274Z" fill="#FF0000"/>
<path d="M5.46875 52.6869C8.34032 52.6882 11.2123 52.7304 14.0822 52.6656C14.9457 52.6461 15.2292 52.9682 15.4598 53.7324C18.3027 63.1502 21.1795 72.5579 24.0502 81.967C24.1062 82.15 24.1978 82.3226 24.2725 82.5H9.19042C8.84656 79.7217 8.5001 76.9438 8.16014 74.1651C7.52366 68.9632 6.9015 63.7597 6.25155 58.5591C6.02275 56.7285 5.73142 54.9057 5.46875 53.0791C5.46875 52.9482 5.46875 52.8173 5.46875 52.6869ZM16.0363 81.6001C17.9549 81.6001 19.5292 80.0464 19.5522 78.1302C19.5752 76.23 17.9953 74.6394 16.075 74.6294C14.093 74.6189 12.4996 76.1931 12.5174 78.1436C12.5352 80.059 14.1047 81.6005 16.0363 81.6001Z" fill="#FF0000"/>
<path d="M23.8739 73.5412C22.2749 68.2911 20.7127 63.1614 19.1172 57.9222C21.7044 57.2032 23.3581 55.2417 25.3436 53.7297C29.9466 50.2242 35.0897 49.4652 40.3583 51.8239C43.6449 53.295 46.9186 54.0345 50.4778 53.8867C52.8892 53.7867 55.3088 53.8449 57.7241 53.8775C60.1519 53.9106 62.5268 55.7529 63.1963 58.0695C63.2484 58.2495 63.2349 58.4482 63.2593 58.7151C61.3919 58.6321 59.5723 58.4725 57.7545 58.4886C54.7917 58.5147 51.8298 58.646 48.868 58.7534C48.0852 58.7816 47.6467 59.2381 47.7235 60.028C47.8025 60.8409 48.3717 61.1291 49.1189 61.0287C53.9104 60.3866 58.6988 60.863 63.4881 61.0504C63.8467 61.0643 64.2509 61.2021 64.5526 61.0804C64.9929 60.903 65.6845 60.5566 65.6971 60.2575C65.7362 59.3581 66.3501 59.152 66.934 58.8373C70.8932 56.7019 74.8476 54.5574 78.8141 52.436C80.8872 51.3271 82.897 51.6014 84.5325 53.2263C82.7572 54.454 80.9993 55.6755 79.2348 56.8884C73.374 60.9174 67.4889 64.912 61.6576 68.984C58.7939 70.9837 55.6032 71.854 52.2267 71.5006C48.4143 71.1015 44.644 70.2908 40.8576 69.6444C38.7393 69.2827 36.631 68.8567 34.5079 68.5276C33.0053 68.2946 31.5955 68.6606 30.3069 69.4753C28.213 70.799 26.1185 72.1218 23.873 73.5407L23.8739 73.5412Z" fill="#FF0000"/>
<path d="M75.2491 51.7183C71.9611 53.4946 68.6806 55.2669 65.3848 57.0475C64.9546 56.2642 64.5677 55.5586 64.1318 54.7652C66.4472 53.5128 68.7283 52.2743 71.0142 51.0445C72.4752 50.2585 73.8033 50.4011 75.0897 51.4675C75.1353 51.5053 75.157 51.5714 75.2487 51.7183H75.2491Z" fill="#FF0000"/>
<path d="M66.9555 50.589C65.4798 51.3875 64.1139 52.1452 62.7259 52.8586C62.5188 52.9651 62.171 52.9412 61.9466 52.8434C61.1755 52.5078 60.43 52.1122 59.6963 51.7505C62.1263 49.783 64.6783 49.157 66.956 50.5894L66.9555 50.589Z" fill="#FF0000"/>
<path d="M17.218 78.0784C17.1594 78.82 16.7569 79.2826 16.0553 79.2943C15.3632 79.3061 14.8882 78.9044 14.8743 78.1484C14.8609 77.3989 15.2829 76.9842 16.0036 76.9629C16.7356 76.9412 17.1185 77.3842 17.2175 78.0788L17.218 78.0784Z" fill="#FF0000"/>
</g>
</svg>
