<svg width="107" height="86" viewBox="0 0 107 86" fill="none" xmlns="http://www.w3.org/2000/svg">
<path d="M60.8845 2.3067e-06L60.8845 25.8601C60.8845 42.0979 64.7023 55.3287 72.338 65.5524C80.1746 75.9767 91.7287 82.7925 107 86L107 66.4545C100.168 64.8508 94.7427 61.8438 90.7239 57.4336C86.7051 53.2238 84.0929 48.1119 82.8873 42.0979L100.972 42.0979L100.972 -1.19784e-06L60.8845 2.3067e-06ZM-7.51836e-06 7.62939e-06L-5.25759e-06 25.8601C-3.83804e-06 42.0979 3.81789 55.3287 11.4536 65.5524C19.2902 75.9767 30.7437 82.7925 45.8141 86L45.8141 66.4545C38.9822 64.8508 33.5568 61.8438 29.5381 57.4336C25.5193 53.2238 22.9071 48.1119 21.7014 42.0979L39.7859 42.0979L39.7859 4.1512e-06L-7.51836e-06 7.62939e-06Z" fill="#3DB39F"/>
</svg>
