<svg width="22" height="34" viewBox="0 0 22 34" fill="none" xmlns="http://www.w3.org/2000/svg">
<g clip-path="url(#clip0_1_94)">
<path d="M0 23.7285C0 19.2003 0 14.672 0 10.1438C0.0192703 10.0827 0.0491724 10.0222 0.0564818 9.95982C0.480428 6.33404 2.23136 3.51443 5.35248 1.6524C8.82645 -0.420135 12.4818 -0.560253 16.0555 1.331C19.9866 3.41084 21.9236 6.82147 21.9767 11.2554C22.0233 15.0963 21.9841 18.9386 21.988 22.7802C21.9894 24.1615 21.8007 25.5108 21.2996 26.8018C19.9181 30.3605 17.3791 32.6495 13.6992 33.6576C13.1197 33.8163 12.5164 33.888 11.9243 34.0002H10.0033C9.9315 33.9796 9.8604 33.9564 9.7873 33.9391C8.93144 33.7379 8.03836 33.633 7.22502 33.3215C3.6042 31.9343 1.29177 29.3412 0.328924 25.5753C0.174097 24.971 0.107648 24.3447 0 23.7285ZM2.04132 16.9723C2.04132 16.9723 2.03933 16.9723 2.038 16.9723C2.038 19.1146 1.97354 21.2588 2.05328 23.3978C2.16492 26.398 3.50918 28.8019 6.00435 30.4535C8.9208 32.3832 12.0406 32.5705 15.1418 30.9488C18.1539 29.373 19.8298 26.7825 19.9281 23.3838C20.0471 19.2687 19.9826 15.1475 19.9554 11.029C19.9374 8.34947 18.9394 6.05514 16.8954 4.31397C14.1597 1.98311 11.0259 1.38811 7.68419 2.73549C4.27401 4.11076 2.34101 6.74311 2.07056 10.416C1.91041 12.5902 2.04132 14.7862 2.04132 16.9723Z" fill="url(#paint0_linear_1_94)"/>
<path d="M13.9816 12.0774C13.9816 12.7953 14.0022 13.5131 13.9776 14.2303C13.9244 15.7782 12.5888 17.0326 11.0166 17.0346C9.40922 17.0366 8.05831 15.8021 8.02109 14.2369C7.98654 12.7913 7.99319 11.3443 8.01711 9.89862C8.03904 8.58311 8.99258 7.45155 10.2844 7.13878C11.5755 6.826 12.9191 7.40307 13.5809 8.54061C13.8793 9.05327 13.9942 9.60444 13.9916 10.1888C13.9889 10.8183 13.9916 11.4472 13.9916 12.0767C13.9889 12.0767 13.9856 12.0767 13.9829 12.0767L13.9816 12.0774ZM10.0019 12.023C10.0019 12.6731 9.99729 13.3232 10.0033 13.974C10.0086 14.5796 10.4472 15.0438 10.998 15.0418C11.5495 15.0398 11.9888 14.5749 11.9914 13.9707C11.9968 12.6923 11.9981 11.4133 11.9914 10.135C11.9881 9.4962 11.5635 9.06124 10.9781 9.06921C10.4113 9.07718 10.0079 9.51479 10.0039 10.1383C9.99929 10.7666 10.0033 11.3948 10.0033 12.023H10.0019Z" fill="url(#paint1_linear_1_94)"/>
</g>
<defs>
<linearGradient id="paint0_linear_1_94" x1="0.511658" y1="-9.1572" x2="21.3395" y2="42.8316" gradientUnits="userSpaceOnUse">
<stop stop-color="#FFD434"/>
<stop offset="0.56" stop-color="#EE2C3D"/>
<stop offset="1" stop-color="#F15A29"/>
</linearGradient>
<linearGradient id="paint1_linear_1_94" x1="2.20878" y1="-9.83731" x2="23.0367" y2="42.1515" gradientUnits="userSpaceOnUse">
<stop stop-color="#FFD434"/>
<stop offset="0.56" stop-color="#EE2C3D"/>
<stop offset="1" stop-color="#F15A29"/>
</linearGradient>
<clipPath id="clip0_1_94">
<rect width="22" height="34" fill="white"/>
</clipPath>
</defs>
</svg>
